<svg width="120" height="120" viewBox="0 0 120 120" fill="none" xmlns="http://www.w3.org/2000/svg">
<path d="M32.6281 4.04164C33.3437 4.00512 34.0596 3.99262 34.776 4.00415C42.3338 4.0912 50.1302 6.49829 56.1156 11.1698C57.512 12.2597 58.7376 13.5071 59.9727 14.7704C60.0067 14.6811 60.0409 14.5739 60.0933 14.494C60.1933 14.3419 60.2874 14.2921 60.4556 14.2379C60.6866 14.2578 60.8017 14.3442 60.9439 14.5217C61.2391 14.8906 61.0343 15.2532 61.0174 15.6677C61.0117 15.805 61.0425 15.9361 61.1387 16.0369C61.2957 15.9921 61.4024 15.9145 61.528 15.8142C61.8621 15.5473 62.1443 15.2137 62.4681 14.932C63.2386 14.2619 64.0545 13.5997 64.878 12.9964C68.3392 10.4613 72.2526 8.18088 76.4461 7.11558C78.0537 6.7072 79.6961 6.45375 81.3239 6.14147C82.7132 5.87495 84.0983 5.49064 85.5202 5.4567C87.0341 5.4206 88.4826 5.7547 89.9556 6.05669C92.3029 6.53795 94.7241 7.06915 96.9505 7.97108C98.9089 8.76444 100.802 9.86895 102.613 10.9491C103.37 11.4011 104.146 11.8542 104.864 12.3682C109.533 15.7121 114.54 21.068 116.912 26.3225C117.765 28.2113 118.288 30.2956 118.792 32.3006C119.373 34.6151 119.825 37.1106 119.963 39.4907C120.132 42.4298 119.713 46.4695 118.978 49.3239C118.714 50.3498 118.349 51.353 118.008 52.3554C117.097 55.0271 116.007 57.4678 114.548 59.888C113.502 61.6233 112.23 63.1427 110.873 64.6397C105.566 70.4903 99.3162 73.9073 91.562 75.3798C90.4799 75.5852 89.3639 75.7557 88.2634 75.8161C87.1257 75.8787 85.4814 75.8011 84.4176 76.073C84.1192 76.1492 83.7411 76.2442 83.5783 76.5192C83.7593 77.357 82.5153 81.4902 82.1402 82.5108C83.8147 83.3321 86.0348 84.8867 87.0882 86.4731C87.3369 86.8477 87.533 87.3107 87.4202 87.7664C87.3012 88.2463 86.4966 88.8568 86.123 89.1909C84.3016 90.8194 82.4032 92.052 79.9285 92.3752C79.4734 92.4346 78.5326 92.3838 78.1475 92.6221C77.855 92.8029 77.7161 93.3958 77.6102 93.7119C79.2633 94.259 80.9397 94.7389 82.6034 95.2521C84.2337 95.755 85.8557 96.2954 87.4999 96.7502C87.4826 97.1774 87.4302 97.5827 87.3201 97.996C87.0985 98.8275 85.2098 104.308 84.8764 104.722C84.2171 104.766 78.8108 102.945 77.7127 102.616C76.8085 102.345 75.8905 102.113 74.9781 101.872C74.3958 103.759 73.6991 105.629 73.0724 107.504C72.6451 108.783 71.1618 113.9 70.5806 114.672C70.3855 114.698 70.2354 114.674 70.0449 114.626C69.3978 114.463 68.7612 114.191 68.125 113.985C67.3078 113.721 63.5518 112.722 63.182 112.106C63.4697 110.431 64.2135 108.729 64.7604 107.119L67.3476 99.3045C65.572 98.9316 63.802 98.2516 62.0764 97.6884C61.0105 97.3406 59.8328 97.0584 58.821 96.5828C58.5151 96.4389 58.2883 96.2487 58.0401 96.0257C58.0409 96.0076 58.0413 95.9896 58.0423 95.9717L58.048 95.8818C58.1154 94.6805 59.9934 89.4495 60.8055 88.8069C60.9782 88.6702 61.1563 88.67 61.3669 88.6974C62.259 88.8131 63.2739 89.273 64.1275 89.5577C65.562 90.0519 67.0093 90.5051 68.4695 90.9174C69.0131 91.0753 69.6058 91.3144 70.1697 91.3499C70.5043 91.1446 70.5583 90.5925 70.6474 90.2308C68.4545 87.9432 67.2341 85.7365 66.3448 82.7043C66.2611 82.4203 66.1338 82.087 66.1127 81.7912C66.0996 81.607 66.1453 81.4544 66.2725 81.3166C67.1869 80.3256 70.2247 79.6772 71.5692 79.6116C72.7411 79.5546 72.9171 79.7921 73.7406 80.5386C73.5987 78.643 74.5919 76.7058 75.0627 74.8899C69.7194 72.6839 65.3422 70.1958 61.3938 65.8835C60.8046 65.24 60.0767 64.5987 59.6313 63.851C57.4411 66.5321 52.7461 69.7417 49.6656 71.3251C48.4569 71.9462 47.1101 72.3497 45.9572 73.0698L45.8811 73.1178C45.9405 73.8762 45.9093 74.6413 45.9372 75.4015C45.9948 76.9727 46.0749 78.5481 46.1136 80.1192C46.1486 81.5376 46.1326 82.9377 46.2315 84.355C46.7822 83.7578 47.1177 83.1108 47.4464 82.3736C49.4033 82.6614 52.1625 84.2526 53.665 85.5189C53.4239 86.3901 52.9261 87.2422 52.4099 87.9778C50.9052 90.1222 49.0429 91.5592 46.808 92.8712C46.8265 93.3075 46.8801 93.7466 46.9194 94.1817C48.4451 94.2981 56.7485 93.6341 57.3597 94.0605C57.4373 94.1147 57.4168 94.1252 57.4378 94.2332C57.5181 94.6443 57.4899 95.0987 57.508 95.5188C57.5667 96.865 57.5699 98.2006 57.5851 99.5473C57.5911 100.078 57.6772 100.621 57.663 101.148C57.6593 101.286 57.6263 101.427 57.5447 101.541C57.4274 101.704 57.2853 101.742 57.0951 101.778C56.111 101.967 55.0321 101.947 54.0311 101.993C52.7483 102.064 51.4665 102.151 50.1858 102.254C49.414 102.311 48.6255 102.325 47.8605 102.443L47.7805 102.457C47.7412 104.441 47.9115 106.467 48.0109 108.45C48.0698 109.625 48.0725 110.812 48.1066 111.989C48.1352 112.977 48.3169 114.561 48.0649 115.485C47.6641 115.671 41.3568 115.994 40.5844 116C40.3746 116.001 40.1928 115.991 39.9938 115.92C39.9023 115.813 39.8673 115.724 39.8493 115.584C39.6781 114.242 39.7173 112.615 39.6473 111.234L39.4366 106.537C39.376 105.27 39.2824 104.023 39.2889 102.753C37.1474 102.814 35.0078 102.915 32.8702 103.056C31.7602 103.123 30.0424 103.373 28.9746 103.181C28.8271 102.77 28.5096 96.3184 28.506 95.5742C28.505 95.3559 28.5191 95.1601 28.6013 94.9571L28.6051 95.0086L28.6388 95.022L28.6694 94.9213C29.5817 94.6226 31.0543 94.7499 32.0466 94.7239C33.4855 94.6863 34.9203 94.595 36.3582 94.5382C37.3137 94.5005 38.2923 94.5332 39.2416 94.4252L39.3382 94.4137C38.0389 93.7248 36.6566 93.2345 35.4194 92.426C35.201 92.2852 34.9873 92.1376 34.7783 91.9833C34.5694 91.8288 34.3656 91.6679 34.1669 91.5005C33.9682 91.3331 33.7751 91.1596 33.5875 90.98C33.3999 90.8002 33.2183 90.6147 33.0425 90.4235C32.8668 90.2321 32.6974 90.0354 32.5342 89.8333C32.3711 89.6312 32.2146 89.4241 32.0647 89.212C31.9149 88.9999 31.772 88.7833 31.636 88.562C31.4999 88.3409 31.3711 88.1156 31.2495 87.8861C31.0927 87.585 30.8736 87.2289 30.8194 86.8891C30.7943 86.7318 30.7963 86.6198 30.8977 86.4896C31.0141 86.34 35.2121 83.5513 35.6355 83.3154C35.8864 83.1757 36.1203 83.0701 36.4075 83.0431C36.6796 83.1741 36.8662 83.4722 37.0535 83.7032C37.0596 82.487 36.7355 74.2961 36.4789 73.6607C36.3718 73.7001 36.2754 73.7335 36.1614 73.7478C35.2216 73.8663 34.0427 73.6458 33.0738 73.6184C31.1123 73.5626 29.233 73.4274 27.3042 73.0406C21.8541 71.9477 16.3875 69.0591 12.1494 65.5175C7.90708 61.9724 4.93854 57.8344 2.77442 52.7613C2.40915 51.9051 2.00892 51.0406 1.72572 50.1539C1.52037 49.511 1.3901 48.8394 1.23549 48.1827C0.741424 46.0839 0.338158 43.9788 0.153627 41.8272C-0.0561274 39.3814 -0.111816 36.8247 0.383149 34.4084C0.63764 33.1661 1.03205 31.9511 1.32619 30.7172C1.5391 29.824 1.57333 28.8924 1.88117 28.0225C2.19575 27.1335 2.73975 26.3908 3.13272 25.5469C3.60246 24.5383 3.93233 23.4697 4.44912 22.4797C5.02739 21.372 5.83794 20.3306 6.56322 19.3124C7.43745 18.0849 8.29784 16.8161 9.27652 15.669C10.4581 14.2843 11.8518 13.1429 13.2743 12.0164C17.3074 8.82222 20.8181 6.9156 25.7623 5.41392C28.1849 4.67809 30.1022 4.23712 32.6281 4.04164Z" fill="#0275A6"/>
<path d="M94.6115 21.5098C94.8656 21.6519 95.1099 21.8157 95.3564 21.9708C95.3148 23.0903 94.973 24.2174 94.6582 25.2883C93.9071 27.842 92.4351 30.9821 89.984 32.3177L89.2539 32.6576C89.8081 32.1265 90.5246 31.7834 91.0876 31.2366C93.6697 28.7284 94.5735 24.9931 94.6115 21.5098Z" fill="#FEFEFE"/>
<path d="M89.3341 20.3594C89.5982 20.3939 89.8687 20.4008 90.1346 20.4175C90.1365 23.6452 89.7517 26.7225 88.1431 29.5818C88.0811 29.6905 88.0976 29.6853 87.976 29.7522L87.8438 29.6937C87.8347 29.6514 87.8151 29.6101 87.8165 29.567C87.8167 29.562 88.7057 27.0764 88.8172 26.6687C89.3971 24.5463 89.4969 22.5389 89.3341 20.3594Z" fill="#FEFEFE"/>
<path d="M92.0134 20.6367C92.2991 20.6705 92.5784 20.7477 92.8578 20.8146C92.9386 23.2549 92.339 26.2773 91.2135 28.4426C90.7285 29.3758 90.0842 30.2238 89.3914 31.0114C89.2542 31.1506 89.1184 31.2959 88.922 31.3391C88.8715 31.2419 89.465 30.6457 89.5647 30.5223C90.0728 29.8943 90.4095 29.1133 90.7248 28.375C91.7999 25.8579 91.9533 23.3254 92.0134 20.6367Z" fill="#FEFEFE"/>
<path d="M76.7915 39.7324C76.9805 39.9142 77.0318 42.0861 77.0632 42.5523C77.1516 43.8635 77.2709 45.1897 77.5742 46.4714C77.9839 48.203 78.6536 49.836 79.2397 51.5083C79.1762 51.6448 79.051 51.6813 78.923 51.7553C78.2479 50.9016 77.8757 49.6215 77.5633 48.585C76.9717 46.6224 75.8405 41.5016 76.7915 39.7324Z" fill="#FEFEFE"/>
<path d="M86.1492 29.9844C86.73 30.008 87.1931 30.0991 87.6204 30.5249C88.5735 31.4748 88.3463 32.8909 88.3645 34.1023C88.1758 34.3542 87.9878 34.5499 87.7444 34.7496C87.5208 34.8021 87.2784 34.8017 87.0494 34.8162C86.8569 34.6221 86.674 34.4266 86.5108 34.2068C85.9033 33.3885 85.3494 31.9548 85.5223 30.9275C85.5973 30.4831 85.782 30.2341 86.1492 29.9844Z" fill="#FEFEFE"/>
<path d="M85.9951 31.0449C86.0835 31.0508 86.1698 31.0553 86.256 31.0776C87.5306 31.407 87.1184 32.4508 87.6121 33.1645C87.7504 33.3643 87.8014 33.3983 87.8238 33.6455C87.6144 33.6644 87.3746 33.7097 87.1928 33.5769C86.8118 33.2983 86.8879 32.48 86.7515 32.0548C86.6014 31.5877 86.067 31.4033 86.0181 31.1595L85.9951 31.0449Z" fill="#0275A6"/>
<path d="M29.2868 44.0508C30.5524 44.7043 31.7086 45.7338 32.8008 46.6418L35.9678 49.282L35.2044 50.6507C34.0129 49.3298 29.9261 45.7761 28.4102 45.2089C28.7366 44.8541 29.0069 44.4427 29.2868 44.0508Z" fill="#FEFEFE"/>
<path d="M78.9314 25.3398C78.9665 25.65 78.5122 26.2387 78.3449 26.5302C77.6553 27.7438 77.0636 29.0033 76.5698 30.3086C75.7756 32.434 75.3947 34.7831 75.221 37.0411C75.0044 39.857 74.956 42.8943 75.5138 45.6715C75.7348 46.772 76.0112 47.8858 76.3262 48.9634C76.5538 49.7417 77.5836 52.2678 77.5373 52.888C77.4627 53.0077 77.4298 53.1308 77.2894 53.1674L77.224 53.0684C75.4249 48.8762 74.3882 44.4338 74.3751 39.8603C74.3687 37.6317 74.6846 34.6373 75.2383 32.4823C75.8716 30.0166 77.1239 27.1535 78.9314 25.3398Z" fill="#FEFEFE"/>
<path d="M60.3778 32.1777C60.4544 32.2416 60.454 32.2259 60.4914 32.3003C60.8592 33.0343 60.9212 34.1461 61.0245 34.9632C61.5896 39.4362 61.4038 43.4713 60.0102 47.789L59.9421 47.7565C59.6663 47.185 59.6463 46.1508 59.5644 45.5045C59.0565 41.502 59.0273 37.7973 59.9691 33.8596C60.1027 33.3013 60.2003 32.7233 60.3778 32.1777Z" fill="#FEFEFE"/>
<path d="M32.6294 40.0547C32.9281 40.2426 33.153 40.7852 33.4015 41.0596C34.6813 42.4724 36.4751 43.4542 38.3228 43.8813C37.5916 45.4607 36.8711 47.0449 36.1611 48.6339L35.7556 48.2607C33.9162 46.576 31.833 44.8936 29.709 43.5832C30.6322 42.3574 31.7032 41.2692 32.6294 40.0547Z" fill="#FEFEFE"/>
<path d="M28.1155 45.5664C28.8148 45.8162 30.2358 47.1312 30.8794 47.6536C32.1429 48.6793 33.4164 49.7109 34.5368 50.8952C35.2873 51.6884 35.9259 52.5766 36.5696 53.456C38.3446 55.8804 39.8708 58.3782 41.3277 61.0028C41.9112 62.0541 42.3494 63.1845 42.9654 64.2166L43.0318 64.3269C42.7165 64.4118 42.2546 64.6303 41.9314 64.5661C41.7266 64.5255 41.703 64.3647 41.6235 64.1985C38.6518 58.2701 31.8941 51.7953 26.1699 48.5028C26.7278 47.4595 27.4064 46.51 28.1155 45.5664Z" fill="#FEFEFE"/>
<path d="M96.5917 23.918C96.8355 24.0594 97.0089 24.4101 97.1407 24.6537C98.5951 27.3417 99.3941 30.4935 98.5172 33.4959C99.3681 34.0077 100.246 34.5069 101.023 35.1278C100.2 35.2942 99.2594 35.515 98.5656 36.0124C97.3289 36.8988 98.8963 37.62 98.7538 38.3761C98.1785 38.8457 96.5296 37.9448 95.8477 38.1962L95.8039 38.3808C96.1425 39.331 97.863 38.7924 98.4351 39.3673C98.4755 39.488 98.5068 39.5616 98.4809 39.6909C98.4597 39.7966 98.4655 39.7644 98.3707 39.8358C98.0631 39.8001 97.8128 39.5465 97.535 39.4227C97.3816 39.3544 97.2969 39.3564 97.1414 39.4068C97.0336 39.5644 97.0257 39.568 97.0364 39.7572C97.3035 40.212 97.956 40.446 98.4058 40.7054C98.6176 41.1786 98.7857 41.6767 98.8324 42.1962C98.8808 42.7343 98.812 43.2817 98.4464 43.7042C97.4285 44.8803 93.5945 44.0261 92.2869 43.5579C91.9604 43.4411 90.4188 42.6299 90.3219 42.6448C90.1484 42.6716 90.0751 42.745 89.9717 42.8772C89.9607 42.9732 89.9296 43.0274 89.9898 43.1117C90.471 43.7861 92.5982 44.36 93.3975 44.5319C93.1675 45.0733 92.8446 45.5934 92.5777 46.1191C92.0657 47.1276 91.587 48.1507 91.0611 49.1527C90.8191 49.6066 90.6025 50.1034 90.2653 50.495C88.1988 47.6309 86.9831 43.4842 86.8287 39.9387C86.7926 39.112 86.8596 38.2699 86.898 37.443C86.9305 36.7471 86.9456 36.0461 87.0449 35.3559C87.17 36.1245 87.0949 36.9508 87.1021 37.7271C87.1096 38.5502 87.1711 39.3917 87.2122 40.2153C87.2281 40.534 87.2486 40.9244 87.5019 41.1497C87.6509 41.1594 87.6749 41.1539 87.79 41.0579C88.1176 40.7845 88.0026 35.9313 88.0961 35.2181C88.1211 35.2008 88.1456 35.1829 88.1709 35.166C88.6313 34.8602 88.8853 34.4047 89.3295 34.1055C89.7757 33.805 90.301 33.6196 90.7658 33.3447C91.6215 32.8387 92.3613 32.1327 93.0698 31.4423C93.609 30.917 94.1614 29.7142 94.6933 29.3586C95.0642 29.1106 96.9935 29.5335 97.4986 29.5959C97.7471 29.6266 97.9638 29.6627 98.1738 29.4979C98.2277 29.3478 98.2426 29.2077 98.2408 29.0492C98.2369 28.6756 98.1028 28.2822 97.8188 28.0284C97.5544 27.7925 97.2628 27.7321 96.9181 27.7446C96.8726 27.8749 96.8468 27.9543 96.7419 28.0468C96.58 28.0675 96.4996 28.0693 96.3482 28.0056C96.3462 27.9426 96.3463 27.8717 96.3328 27.8101C96.2965 27.645 95.8577 27.4036 95.7142 27.305C95.7833 27.686 95.8482 28.0675 95.9091 28.4498C95.737 28.1829 95.5899 27.9126 95.4471 27.6298C95.8923 26.381 96.3241 25.2235 96.5917 23.918Z" fill="#FEFEFE"/>
<path d="M95.7922 30.1992C95.8833 30.2195 95.9204 30.2421 95.9923 30.3034C96.0717 30.3708 96.154 30.4563 96.2438 30.5093C96.4316 30.62 96.626 30.5105 96.8105 30.4499L96.828 30.7109L96.8732 30.7247C96.9102 30.5902 96.9527 30.479 97.0174 30.3552C97.3203 30.2805 97.4557 30.6397 97.7346 30.7442C97.8337 30.7293 97.9215 30.717 98.022 30.7178C98.0724 31.037 98.0689 31.5808 97.8599 31.8428C97.562 32.2163 96.728 31.8176 96.3361 31.7759C96.1334 31.7543 95.9655 31.838 95.7647 31.8486C95.2309 31.8315 94.4378 31.965 93.948 31.8072C93.937 31.7331 93.9123 31.6262 93.9165 31.549C93.9248 31.3972 93.9548 31.3793 94.0611 31.2849C94.2948 31.2435 94.5182 31.3441 94.7377 31.4166C94.8345 31.1456 94.8061 30.8402 94.8067 30.5553C94.9551 30.688 95.2704 31.1945 95.4067 31.2339L95.4414 30.9147C95.5995 30.8906 95.4948 31.0497 95.6441 31.1418C95.7958 31.0855 95.8734 31.0507 95.9787 30.9267C96.0269 30.6967 95.8734 30.414 95.7922 30.1992Z" fill="#0275A6"/>
<path d="M25.8164 49.0566C26.7143 49.4632 27.6242 50.1438 28.4243 50.7217C32.1285 53.3982 35.1439 56.6036 37.8984 60.2264C39.0007 61.6762 40.0947 63.1932 40.9516 64.8029C39.9735 65.0254 38.8725 65.3686 37.8739 65.4C34.0625 65.9682 29.9563 65.6467 26.3251 64.306C25.1705 63.8796 24.0693 63.3279 22.9721 62.7747C22.8809 61.976 22.9461 61.1515 22.9751 60.3494C23.1158 56.4706 23.8416 52.4493 25.8164 49.0566Z" fill="#FEFEFE"/>
<path d="M35.1511 26.0955C37.7614 25.31 39.8807 24.2144 41.9993 22.4844C43.937 25.1737 43.8561 28.6441 44.0324 31.7994C44.7308 32.4706 45.445 33.0919 46.1073 33.8053C45.4585 34.1545 44.8433 34.3036 44.1244 34.4549C44.0729 34.8953 44.2063 35.6269 44.0424 36.0122C43.8951 36.3584 43.0741 35.9393 42.7925 36.0228L42.7444 36.1828C42.7977 36.3496 42.8118 36.4464 42.9664 36.5501C43.263 36.7488 43.7132 36.6894 44.0416 36.6425C44.0442 37.1374 44.044 37.6323 44.041 38.1271C43.6335 38.077 43.2545 38.0235 42.8665 37.8796C42.3964 37.7052 41.8114 37.1445 41.3364 37.1443C41.2316 37.1442 41.2326 37.1837 41.1716 37.2559C41.1819 37.3997 41.2278 37.4929 41.311 37.6078C41.8993 38.4216 43.1046 38.6215 44.0212 38.7746C44.0114 40.1247 44.092 41.5061 43.9672 42.8509C42.8464 43.2578 41.7828 43.4753 40.586 43.4751C38.6737 43.4748 36.6354 42.9031 35.0991 41.7373C34.3482 41.1676 33.6893 40.4713 33.0248 39.8059C32.9552 37.8672 32.962 35.9346 32.9685 33.9951C31.797 33.4503 30.9288 32.4866 30.4791 31.2772C30.2227 30.5874 30.0758 29.7368 30.4192 29.0515C30.5312 28.8281 30.6834 28.6727 30.9319 28.6074C31.2552 28.5226 31.6538 28.7341 31.9099 28.9081C32.3423 29.2019 32.8011 29.6803 32.9056 30.2049C32.7027 29.9174 32.4623 29.7391 32.1094 29.6719C31.9423 29.6402 31.7657 29.6567 31.6256 29.7612C31.4678 29.8788 31.4213 30.0934 31.4199 30.2795C31.4152 30.9566 32.0196 32.2444 32.5069 32.7242C32.6054 32.8211 32.7858 32.9576 32.9261 32.9773C32.9683 32.9833 33.0112 32.9727 33.0538 32.9705L33.1452 32.8537C33.0555 32.5315 32.7974 32.1742 32.6377 31.8728C32.3585 31.3455 32.0835 30.7595 31.8991 30.1907C32.1559 30.2746 32.6016 30.4742 32.8537 30.3959L32.9209 30.3226C32.9421 30.3407 32.9667 30.3553 32.9846 30.3766C33.2488 30.6899 33.2477 31.4559 33.2735 31.849C33.4205 31.9023 33.5757 31.9655 33.7286 32.0009C33.8881 32.0379 33.9781 32.0232 34.1153 31.9425C34.7849 30.9198 35.0436 27.3868 35.1511 26.0955Z" fill="#FEFEFE"/>
<path d="M40.7101 28.9766C41.217 28.99 41.6786 29.0572 42.1471 29.2595C43.0014 29.6284 43.4717 30.1944 43.8053 31.0355C41.9416 30.5191 40.8026 30.4846 38.8897 30.7622C38.883 30.735 38.87 30.7087 38.8693 30.6806C38.866 30.5609 38.9308 30.4815 39.018 30.41C39.7567 29.804 41.7118 30.0301 42.6013 30.1277C42.2961 29.9118 41.9648 29.7148 41.6122 29.5856C41.0221 29.3695 40.2971 29.297 39.7165 29.5788C39.5837 29.6432 39.5201 29.6803 39.3669 29.6645L39.3652 29.6126C39.7378 29.2607 40.2355 29.1387 40.7101 28.9766Z" fill="#0275A6"/>
<path d="M41.5764 26.5884C41.8519 26.5636 42.1818 26.596 42.4446 26.6839C42.8219 26.8101 43.2702 27.1304 43.4227 27.511C43.4924 27.6852 43.4719 27.7754 43.4125 27.9464C43.24 28.1016 43.0332 28.1584 42.8027 28.1627C42.499 28.1683 42.1748 28.0113 41.873 27.9615C40.9554 27.81 40.1242 27.8017 39.2089 27.9492C38.5584 28.1111 37.9362 28.3139 37.3047 28.536C37.395 28.4202 37.4865 28.3038 37.587 28.1963C38.6483 27.0625 40.0718 26.6386 41.5764 26.5884Z" fill="#0275A6"/>
<path d="M47.6685 83.4883C49.1723 83.9921 50.792 84.6489 52.0614 85.6023C51.8103 86.1722 51.5545 86.7218 51.1976 87.2345C49.8882 89.1155 47.4337 91.1216 45.3252 92.0316C45.4211 93.1781 45.4724 94.3289 45.5625 95.4761C46.6128 95.5486 47.7448 95.3898 48.7991 95.3339C51.1835 95.2074 53.6975 95.0329 56.074 95.0829C56.2266 96.7034 56.2659 98.3966 56.2157 100.022C53.9394 100.242 51.6097 100.331 49.3237 100.44C48.1655 100.495 46.896 100.437 45.7645 100.686C45.6113 102.03 45.7665 103.404 45.7344 104.754C45.7057 105.968 45.4971 107.088 45.6192 108.314C45.6651 108.776 46.0332 109.108 46.1084 109.565C46.2988 110.719 46.2525 112.702 46.2642 113.908C45.1399 113.92 42.7876 113.935 41.7399 114.144C41.7683 112.044 41.6341 109.685 41.4766 107.585C41.3905 106.699 41.3843 101.296 41.088 100.864C40.2149 100.56 32.1918 101.117 30.5848 101.097C30.5627 99.5106 30.4947 97.9262 30.3809 96.3438C31.7249 96.0939 33.1519 96.1988 34.5134 96.1379C36.6365 96.0428 38.7623 95.8545 40.8867 95.7445C40.9024 95.2863 41.0011 92.9853 40.7873 92.6862C40.594 92.4157 38.9858 92.0672 38.6173 91.9434C38.3663 91.8571 38.1187 91.7619 37.8745 91.6576C37.6304 91.5534 37.3904 91.4405 37.1545 91.3188C36.9185 91.1972 36.6873 91.0673 36.4608 90.9289C36.2343 90.7906 36.0132 90.6442 35.7973 90.4899C34.4181 89.5017 33.3876 88.1589 32.4656 86.7525C33.8426 85.9893 35.0547 84.8671 36.501 84.2447C37.1667 85.2778 37.9366 86.2308 39.0237 86.8475C40.2682 87.5538 41.8188 87.6756 43.1865 87.2945C45.1964 86.7345 46.6667 85.2618 47.6685 83.4883Z" fill="white"/>
<path d="M71.7289 80.8744C71.8636 80.8668 72.0072 80.8522 72.1418 80.8635C72.1959 80.8681 72.3154 80.8974 72.3595 80.9274C72.539 81.0497 73.3934 82.6919 73.8365 83.1665C74.9534 84.3634 76.5757 85.3637 78.255 85.4028C79.7465 85.4376 80.9995 84.9737 82.069 83.9444C82.9438 84.3343 85.1719 85.9205 85.5224 86.7609C85.5757 86.8885 85.583 87.015 85.5275 87.1424C85.3278 87.6008 84.6876 88.015 84.3106 88.3306C82.6664 89.7062 81.159 90.4657 79.0039 90.7075C78.3689 90.7787 77.6583 90.787 77.0553 91.0152C76.8083 91.1085 76.6653 91.3733 76.5723 91.6047C76.4069 92.0158 75.9229 93.4349 75.8854 93.8351C75.869 94.0112 75.8962 94.1283 75.9649 94.2891C76.0954 94.4383 76.2336 94.4894 76.4184 94.5572C77.0203 94.7782 77.6674 94.908 78.2806 95.102C80.8049 95.9006 83.3711 96.6098 85.8689 97.4848C85.3108 99.1668 84.7415 100.905 84.0868 102.55C81.8473 102 79.6511 101.249 77.4354 100.611C76.6316 100.38 75.7759 100.066 74.9526 99.9319C74.7117 99.8928 74.3865 99.847 74.1579 99.9565C73.8407 100.108 71.6726 106.648 71.3747 107.504C70.8177 109.12 70.3125 110.769 69.7215 112.371C68.1769 112.049 66.6926 111.425 65.1837 110.97C65.9792 108.803 66.6216 106.595 67.3408 104.404C67.7676 103.103 69.1388 99.5639 69.1754 98.3987L69.0574 98.3682L69.163 98.3287C68.9916 98.1392 68.7623 98.0205 68.5301 97.9181C67.8192 97.6044 66.9988 97.4083 66.2565 97.1697C64.1408 96.4898 61.9751 95.8894 59.8877 95.1295C60.4506 93.4104 60.9868 91.6831 61.4963 89.9475C63.5702 90.5426 65.6252 91.2212 67.6794 91.8807C68.6048 92.1778 69.5624 92.5641 70.507 92.7796C70.7227 92.8288 70.9344 92.8754 71.1526 92.8055C71.3474 92.7432 71.5133 92.5906 71.6017 92.4081C71.7965 92.0067 72.6483 89.7979 72.5195 89.4708C72.4163 89.2084 71.4125 88.4743 71.1523 88.2144C70.6363 87.6991 70.1441 87.0992 69.7146 86.5076C68.7773 85.2165 68.1821 83.4093 67.6907 81.8932C68.9012 81.2592 70.3807 80.9988 71.7289 80.8744Z" fill="#FC7A00"/>
<path d="M83.9059 7.5393C86.3592 7.465 89.1976 7.33165 91.5815 8.00767C92.8714 8.37356 94.1101 8.94162 95.3867 9.35843C96.9453 9.86732 98.5107 10.3078 100.021 10.956C104.293 12.7896 107.779 16.1497 110.825 19.5854C111.705 20.5928 112.511 21.6562 113.243 22.7758C113.598 23.3082 113.953 24.0398 114.376 24.4951C114.533 24.6643 114.762 24.7529 114.953 24.8793C115.059 25.1954 115.456 25.8732 115.438 26.1273L115.316 26.1415C115.124 26.022 115.062 25.8907 114.957 25.6993C114.885 25.566 114.936 25.6056 114.828 25.5581C115.035 26.3455 115.505 27.1416 115.817 27.9026C116.558 29.714 117.217 31.5884 117.577 33.5148C117.739 34.3783 117.805 35.2687 117.892 36.1427C118.003 37.2454 118.16 38.3752 118.166 39.482C118.175 41.2351 117.955 42.9151 117.678 44.6404C117.132 48.0353 116.389 50.9432 115.244 54.1746C114.949 55.0053 114.494 56.7664 114.067 57.3851C113.675 57.9506 113.115 58.401 112.695 58.9608C111.498 60.5545 110.464 62.2435 109.112 63.7201C107.86 65.088 106.534 66.0062 105.467 67.5645C105.172 67.5758 104.921 67.5924 104.656 67.7315C103.915 68.1197 103.202 68.8412 102.518 69.3412C101.321 70.2169 100.014 70.966 98.6913 71.6353C96.3042 72.8428 93.8539 73.6848 91.2336 74.2256C89.2351 74.6381 87.2958 74.743 85.2632 74.7877C84.9345 74.795 83.3821 74.7481 83.2031 74.8565C81.9918 75.5907 81.179 82.5439 79.9726 83.3798C79.3014 83.845 78.3083 83.9126 77.5217 83.7627C76.5064 83.5692 75.4557 82.9451 74.8837 82.0697C74.7238 81.825 74.6251 81.5728 74.6534 81.2781C74.6927 80.8684 74.9199 80.4631 75.0319 80.0671C75.5924 78.0836 76.2811 76.0808 76.7071 74.0671C75.7215 73.6574 75.5829 73.1442 74.7786 72.7213C73.1841 71.8829 71.5224 71.196 69.9386 70.3267C66.8803 68.648 62.8498 65.6182 60.4826 63.0577C61.476 62.1917 62.1796 61.1586 62.9519 60.1072C63.2958 59.6391 63.6796 59.1965 63.9489 58.6792C64.8802 59.5585 65.6233 60.6548 66.568 61.5159C66.7843 61.713 66.6868 61.5564 66.8887 61.5715C67.0734 61.5852 67.6206 62.0728 67.7838 62.1979C69.025 63.1503 70.2558 64.1215 71.5816 64.9563C73.8613 66.3917 76.5003 67.4593 79.1139 68.0995C85.9405 69.772 92.9715 69.2941 99.075 65.5991C99.7604 65.2376 100.409 64.7824 101.048 64.3457C105.409 61.3639 108.566 57.1179 110.653 52.304C112.548 47.9293 112.766 44.3212 112.657 39.6221C112.634 38.6178 112.709 37.5967 112.644 36.5964C112.533 34.9129 112.015 33.1667 111.394 31.6008C110.66 29.7508 109.755 27.6914 108.751 25.9665C108.084 24.8209 107.273 23.7868 106.457 22.7468C105.531 21.568 104.55 20.3521 103.465 19.3167C101.589 17.5273 99.1208 16.0536 96.7461 15.0311C89.9971 12.125 82.8883 11.539 75.9691 14.2838C75.7768 14.3582 75.5854 14.4346 75.3948 14.5131C75.2041 14.5917 75.0144 14.6722 74.8255 14.7548C74.6367 14.8374 74.4487 14.922 74.2617 15.0086C74.0747 15.0953 73.8886 15.184 73.7035 15.2747C73.5184 15.3654 73.3342 15.458 73.1511 15.5527C72.968 15.6474 72.7859 15.744 72.605 15.8425C72.4239 15.9411 72.244 16.0417 72.0651 16.1441C71.8864 16.2467 71.7087 16.3511 71.5322 16.4574C71.3555 16.5637 71.1801 16.6719 71.0059 16.7821C70.8317 16.8922 70.6588 17.0042 70.487 17.118C70.3151 17.2318 70.1446 17.3475 69.9753 17.4651C69.806 17.5826 69.638 17.702 69.4714 17.8232C69.3047 17.9443 69.1393 18.0673 68.9753 18.192C68.8112 18.3167 68.6485 18.4432 68.4872 18.5715C68.326 18.6997 68.1662 18.8297 68.0077 18.9615C67.8492 19.0932 67.6922 19.2266 67.5366 19.3617C67.381 19.4968 67.2269 19.6336 67.0743 19.772C66.9217 19.9104 66.7706 20.0505 66.6211 20.1922C66.4715 20.334 66.3234 20.4773 66.177 20.6221C66.0305 20.767 65.8857 20.9135 65.7423 21.0615C65.599 21.2095 65.4574 21.3591 65.3174 21.5102C65.1773 21.6613 65.0389 21.8138 64.9022 21.9679C64.7654 22.122 64.6303 22.2776 64.4969 22.4347C64.3636 22.5916 64.232 22.75 64.1021 22.9099C63.9721 23.0697 63.8439 23.231 63.7174 23.3936C63.591 23.5562 63.4663 23.7201 63.3435 23.8855C63.2206 24.0508 63.0995 24.2174 62.9803 24.3854C62.861 24.5533 62.7435 24.7225 62.628 24.893C62.5124 25.0634 62.3986 25.2351 62.2867 25.4081C62.1748 25.581 62.0648 25.7551 61.9567 25.9303C61.8486 26.1057 61.7424 26.2821 61.6382 26.4598C61.5339 26.6373 61.4315 26.816 61.3311 26.9958C60.8945 27.7956 60.5293 28.6562 60.1679 29.4924C57.8112 34.9473 57.2973 41.1471 58.1737 46.9812C58.3437 48.1123 58.4513 49.3263 58.877 50.3929C58.1295 52.2673 56.7791 54.1126 55.4927 55.6709C55.4577 55.6021 55.4238 55.5337 55.3915 55.4636C51.8546 47.7719 51.4648 37.0059 54.4834 29.11C54.5976 28.8112 54.4806 28.6929 54.4829 28.4099C54.4861 28.0183 54.9743 27.2055 55.1478 26.8451C56.8224 23.3665 58.8423 20.207 61.4669 17.3661C67.0432 11.3302 75.7617 7.86911 83.9059 7.5393Z" fill="#FC7A00"/>
<path d="M32.7548 11.9902C34.7948 11.8338 36.954 11.8942 38.9714 12.2311C43.9855 13.0684 49.1805 15.6366 52.9269 19.0441C53.5004 19.5658 54.0207 20.1625 54.5446 20.7345C55.0725 21.3108 55.6376 21.898 56.0923 22.5347C55.876 22.9792 55.5807 23.4101 55.3246 23.8339C54.5655 25.09 53.8001 26.3 53.3096 27.693L53.7642 28.208C53.1934 29.1868 52.7418 29.4413 52.3606 30.6348C52.1263 31.3685 51.9623 32.1302 51.785 32.8793C51.7265 33.1263 51.6706 33.374 51.6175 33.6222C51.5644 33.8705 51.514 34.1193 51.4663 34.3687C51.4187 34.6181 51.3737 34.8679 51.3315 35.1183C51.2894 35.3686 51.2499 35.6194 51.2132 35.8706C51.1765 36.1218 51.1425 36.3734 51.1113 36.6253C51.0801 36.8772 51.0517 37.1295 51.026 37.382C51.0003 37.6346 50.9774 37.8874 50.9573 38.1405C50.9371 38.3935 50.9197 38.6468 50.9051 38.9003C50.8905 39.1537 50.8787 39.4073 50.8696 39.661C50.8607 39.9147 50.8544 40.1684 50.8508 40.4223C50.8473 40.6762 50.8466 40.9301 50.8487 41.1839C50.8508 41.4377 50.8556 41.6915 50.8632 41.9453C50.8708 42.199 50.8812 42.4527 50.8943 42.7062C50.9075 42.9597 50.9235 43.2131 50.9421 43.4663C50.9609 43.7195 50.9824 43.9724 51.0066 44.2251C51.0309 44.4778 51.0579 44.7302 51.0877 44.9823C51.1174 45.2345 51.1499 45.4862 51.1852 45.7376C51.2205 45.989 51.2585 46.24 51.2993 46.4906C51.3401 46.7412 51.3836 46.9913 51.4298 47.2409C51.4761 47.4906 51.5251 47.7397 51.5768 47.9883C51.6285 48.2368 51.6829 48.4847 51.7401 48.7321C51.7972 48.9795 51.8571 49.2262 51.9196 49.4723C51.9821 49.7183 52.0473 49.9636 52.1152 50.2083C52.1831 50.453 52.2537 50.6969 52.327 50.94C52.4002 51.1831 52.476 51.4253 52.5546 51.6668C52.6332 51.9083 52.7144 52.1488 52.7981 52.3885C52.8819 52.6281 52.9683 52.8669 53.0574 53.1047C53.1464 53.3425 53.238 53.5793 53.3323 53.8151C53.4265 54.0509 53.5233 54.2856 53.6227 54.5193C53.722 54.753 53.8238 54.9855 53.9283 55.2169C54.0328 55.4484 54.1398 55.6787 54.2493 55.9078C54.3587 56.137 54.4707 56.3649 54.5852 56.5916C53.9388 57.485 53.1596 58.1739 52.3335 58.8959C49.8857 61.035 47.2207 62.8238 44.1262 63.8918C43.827 62.4178 43.6067 60.9447 43.166 59.5019C41.9678 55.5793 39.2337 52.2363 36.7125 49.0796C37.3668 47.3836 38.3004 45.7978 38.8789 44.0688C40.2927 44.0924 43.344 44.1301 44.4771 43.3598C44.7608 42.9214 44.6824 36.167 44.7266 34.9767C45.276 34.899 46.0061 34.7085 46.4909 34.4305C46.6579 34.3348 46.8204 34.1991 46.8563 33.9994C46.9939 33.2339 45.0788 32.0529 44.6225 31.4927C44.6094 31.4766 44.5968 31.4599 44.5841 31.4436C44.5831 27.9281 44.3917 24.8558 42.4265 21.8102C42.6998 21.3927 42.972 20.9798 43.166 20.5184C43.1919 20.4554 43.2162 20.3917 43.239 20.3274C43.2617 20.2632 43.2829 20.1984 43.3024 20.1331C43.3219 20.0678 43.3398 20.0021 43.3561 19.9359C43.3723 19.8697 43.3869 19.8031 43.3999 19.7363C43.4129 19.6693 43.4241 19.6021 43.4337 19.5346C43.4433 19.4671 43.4512 19.3995 43.4574 19.3316C43.4636 19.2637 43.4682 19.1957 43.471 19.1277C43.4739 19.0595 43.475 18.9914 43.4744 18.9232C43.4739 18.855 43.4717 18.787 43.4678 18.719C43.4638 18.6509 43.4582 18.583 43.4509 18.5153C43.4436 18.4475 43.4346 18.3799 43.4239 18.3126C43.4132 18.2453 43.4009 18.1783 43.3868 18.1116C43.3728 18.0448 43.3571 17.9785 43.3398 17.9127C43.3225 17.8467 43.3036 17.7812 43.283 17.7162C43.2624 17.6513 43.2402 17.5868 43.2165 17.5229C43.1927 17.4591 43.1674 17.3958 43.1404 17.3332C42.9432 16.8676 42.6979 16.3907 42.2069 16.1906C41.9975 16.2227 41.9885 16.2673 41.8494 16.4179C41.7461 16.5941 41.6347 16.7651 41.5153 16.9308C39.7243 19.3864 35.7917 19.0108 33.1118 19.0818C31.8377 19.1155 30.5401 19.2124 29.2832 19.4241C26.7894 19.8441 23.7482 20.4214 22.2052 22.6193C20.2236 25.4419 20.1357 30.2646 20.724 33.5549C21.5108 37.9567 24.331 42.1601 27.998 44.708C27.0297 46.1412 25.949 47.4667 25.084 48.9729C23.2558 52.1564 22.43 56.2185 22.2787 59.8608C22.243 60.7192 22.2793 61.5895 22.2941 62.4485C21.9653 62.2679 20.071 61.2983 20.0484 61.0033C20.0344 60.8208 20.1512 60.8471 20.0419 60.6479C19.4175 59.5089 19.6401 59.613 18.5926 58.7824C17.4684 57.8909 16.479 56.8251 15.5409 55.7459C14.9249 55.0372 14.3055 54.3361 13.7628 53.5685C11.0843 49.7807 9.63037 45.1635 9.11737 40.5908C8.31753 33.4616 10.9437 26.5982 15.3641 21.1009C18.193 17.5829 22.7444 14.5331 27.0578 13.1327C28.9323 12.5241 30.8005 12.2061 32.7548 11.9902Z" fill="#FEFEFE"/>
<path d="M32.6897 5.3739C33.7852 5.22033 35.2005 5.34666 36.3114 5.40928C42.0737 5.73406 47.4891 7.26243 52.4792 10.1926C54.7619 11.533 56.8834 13.4219 58.7139 15.3243C59.0723 15.6967 59.7336 16.2908 59.8262 16.8116C59.8636 17.0223 59.7174 17.2433 59.6136 17.4169C59.2327 18.0534 58.6784 18.6297 58.2224 19.2161C57.7459 19.8287 57.3165 20.4815 56.862 21.1109C55.4432 19.575 53.8518 18.1255 52.2578 16.7734C51.7738 16.3629 51.2045 16.0493 50.7434 15.6184C49.9166 14.8458 49.7987 14.1835 48.6944 13.3697C49.1265 13.9544 49.5398 14.5548 49.9599 15.1482C49.8868 15.0946 49.8129 15.0422 49.738 14.9912C48.4226 14.0915 46.859 13.3892 45.3888 12.7855C40.261 10.6797 35.1662 9.87426 29.6612 10.9078C22.7557 12.2043 16.2542 16.6836 12.3549 22.48C11.7703 23.349 11.272 24.2902 10.7881 25.2176C7.80674 30.9304 6.63688 37.4557 7.92414 43.8047C8.28705 45.5946 8.85297 48.034 9.48223 49.7218C11.3349 54.6912 15.0426 59.081 19.4467 61.9884C25.7496 66.1494 33.2095 67.47 40.5948 65.9425C40.82 65.8983 41.0447 65.8512 41.2688 65.8013C41.4929 65.7514 41.7164 65.6988 41.9391 65.6435C42.1619 65.588 42.384 65.5298 42.6053 65.469C42.8267 65.4081 43.0473 65.3445 43.267 65.2782C43.4868 65.2119 43.7057 65.1429 43.9237 65.0711C44.1418 64.9994 44.359 64.9249 44.5751 64.8478C44.7914 64.7708 45.0066 64.691 45.2208 64.6085C45.4351 64.5261 45.6483 64.441 45.8604 64.3534C46.0726 64.2657 46.2836 64.1753 46.4935 64.0824C46.7033 63.9895 46.912 63.894 47.1195 63.796C47.327 63.6979 47.5333 63.5972 47.7384 63.4941C47.9434 63.3909 48.1471 63.2852 48.3495 63.177C48.5519 63.0688 48.7529 62.9581 48.9526 62.8449C49.1523 62.7318 49.3505 62.6162 49.5473 62.4981C49.744 62.38 49.9393 62.2596 50.1332 62.1366C50.327 62.0137 50.5192 61.8884 50.7099 61.7608C50.9006 61.6332 51.0897 61.5032 51.2771 61.3708C51.4646 61.2385 51.6504 61.1039 51.8346 60.967C52.0187 60.8301 52.2011 60.6909 52.3819 60.5494C52.5625 60.408 52.7414 60.2644 52.9185 60.1185C53.0957 59.9726 53.271 59.8246 53.4444 59.6744C53.6179 59.5242 53.7894 59.372 53.959 59.2175C54.1287 59.0631 54.2964 58.9066 54.4622 58.748C54.6281 58.5895 54.7919 58.4288 54.9537 58.2662C55.1155 58.1035 55.2753 57.939 55.433 57.7724C55.5908 57.6059 55.7464 57.4374 55.9 57.267C56.0535 57.0965 56.2049 56.9242 56.3542 56.7501C56.5035 56.5759 56.6506 56.3999 56.7955 56.2221C56.9404 56.0443 57.0831 55.8648 57.2235 55.6834C57.364 55.5021 57.5023 55.3191 57.6382 55.1344C57.774 54.9496 57.9076 54.7633 58.039 54.5752C58.1703 54.3872 58.2992 54.1975 58.4258 54.0063C59.7458 51.9918 60.9051 49.9523 61.6939 47.668C63.4288 42.644 63.1435 36.403 62.0568 31.2589C61.9497 30.6162 61.774 29.9856 61.6134 29.3547C62.1872 27.9079 63.9288 25.2144 64.9741 24.0177C68.2763 29.3055 69.4986 38.5691 68.3339 44.623C67.7961 47.4185 66.6849 50.2141 65.3771 52.7339C64.6414 54.1517 63.6422 55.3339 62.7746 56.6571C62.7234 56.7352 62.7089 56.7713 62.7109 56.8632C62.8817 56.9242 63.0718 56.9883 63.1984 57.1245C63.3008 57.2346 63.4055 57.3708 63.405 57.5258C63.2119 57.5297 62.8323 57.5149 62.6858 57.6566C62.3547 57.9771 61.92 59.1365 61.5994 59.6125C61.3012 60.0549 60.9833 60.5325 60.6194 60.9235C60.2816 61.2866 59.7809 61.4929 59.4132 61.8387C58.6676 62.5398 57.9856 63.3115 57.245 64.0191C56.499 64.732 55.694 65.3849 54.9311 66.0807C54.2883 66.6669 53.6228 67.3734 52.876 67.8223C52.3541 68.1359 51.7621 68.3333 51.2163 68.6024C49.5075 69.4452 47.7507 70.2826 46.0779 71.1927C45.6112 71.4467 45.2704 71.7204 45.0701 72.2261C44.5923 73.4324 44.915 77.8548 44.9696 79.4019C44.9978 80.1999 44.9863 81.0015 44.988 81.8C44.9897 82.5125 45.0836 83.3674 44.865 84.0497C44.6462 84.7332 43.9455 85.259 43.3166 85.5597C42.443 85.9776 41.4867 86.0552 40.5684 85.7195C39.7147 85.4073 38.7086 84.6584 38.3512 83.7922C37.8433 82.5608 38.2146 79.4112 38.2596 77.9973C38.2945 76.9044 38.3044 75.8282 38.247 74.7355C38.2157 74.1411 38.2381 73.3579 37.9658 72.816C37.8625 72.6104 37.6724 72.427 37.443 72.3733C37.0677 72.2855 36.7614 72.6735 36.4722 72.8512C36.0396 72.7357 35.8814 72.0238 35.3281 71.9243C34.432 71.7633 32.9207 71.8893 31.9631 71.8709C30.2032 71.8372 28.3976 71.5653 26.6863 71.1535C24.6879 70.6725 22.8027 69.8624 20.955 68.9758C15.1835 66.2066 10.1813 62.3871 6.80092 56.8631C4.87664 53.7186 4.12707 51.4661 3.13937 47.9328C2.69103 46.3289 2.24591 44.6275 2.11162 42.9662C2.01753 41.8021 2.19022 40.672 2.18378 39.5128C2.17705 38.3001 2.03513 37.086 2.19903 35.8775C2.40992 34.3226 2.88129 32.7312 3.27903 31.2138C3.3796 30.83 3.57325 30.4323 3.63742 30.0483C3.6813 29.7858 3.60576 29.6309 3.46649 29.4123C3.4547 29.3939 3.44246 29.3756 3.43044 29.3573C3.48959 28.7193 4.00172 28.0608 4.23093 27.4586C4.8507 25.8307 5.42502 24.1207 6.21147 22.5628C6.81314 21.371 7.62344 20.3611 8.40446 19.2883C9.1061 18.3244 9.78319 17.3417 10.5692 16.443C11.3965 15.497 12.3164 14.5301 13.3278 13.7823C15.7807 11.9691 18.5313 10.6968 21.1957 9.25145C23.0075 8.26848 24.8553 7.06224 26.8087 6.39971C28.6676 5.76921 30.7393 5.50623 32.6897 5.3739Z" fill="#FEFEFE"/>
<path d="M83.7638 13.8843C84.7975 13.6856 87.9103 13.9231 88.9941 14.0817C93.4567 14.7345 98.5779 16.832 101.999 19.7557C103.654 21.17 105.45 23.3063 106.74 25.0586C108.294 27.1681 110.803 32.6043 111.23 35.2789C111.487 36.8911 111.42 38.5486 111.469 40.1761C111.518 41.8317 111.617 43.4741 111.367 45.1202C110.501 50.8228 107.067 56.7877 102.837 60.6809C101.291 62.1038 99.584 63.2487 97.8979 64.4914C97.6686 63.3707 97.5854 62.2449 97.2977 61.1261C96.4613 57.8732 94.4841 54.9532 92.2376 52.4951C91.7512 51.963 91.2191 51.4786 90.7254 50.9539C92.0644 49.0524 92.8976 46.834 93.9669 44.7853C94.6814 44.4716 96.7861 45.0905 97.9492 44.7641C98.4403 44.6263 98.8733 44.3577 99.1117 43.8942C99.6508 42.8457 99.3406 41.4308 99.0031 40.3752L99.1961 39.6818C99.1271 39.4193 99.035 39.1647 98.9464 38.9083C99.1439 38.8336 99.377 38.7574 99.5127 38.5866C99.9797 37.9989 98.8023 37.4517 98.7759 36.8651C98.7436 36.1474 101.163 36.002 101.601 35.4296C101.692 35.3113 101.74 35.2071 101.709 35.0565C101.604 34.5528 99.7735 33.4906 99.2763 33.2464C99.2941 33.2019 99.3115 33.1573 99.3264 33.1118C99.9726 31.1392 99.1558 27.269 98.2858 25.409C97.8893 24.5613 97.358 23.8101 96.8913 23.0034C96.6629 22.6087 96.4794 22.1817 96.2704 21.7755C95.628 21.4403 95.0491 20.995 94.4009 20.6623C93.5106 20.2052 91.1734 19.5339 90.1853 19.5404C89.1806 19.5468 88.0793 19.7813 87.0912 19.9695C86.2528 20.1293 85.4163 20.3893 84.6046 20.6517C80.7121 21.9104 78.0192 24.0008 75.7254 27.3506C74.8737 28.5786 74.1668 30.0027 73.6558 31.405C73.5888 31.5921 73.5238 31.7799 73.4609 31.9684C73.398 32.1568 73.3371 32.3459 73.2781 32.5357C73.2193 32.7254 73.1624 32.9158 73.1076 33.1068C73.0528 33.2978 73 33.4894 72.9492 33.6815C72.8985 33.8736 72.8498 34.0662 72.8032 34.2593C72.7566 34.4524 72.7121 34.6461 72.6696 34.8402C72.6271 35.0343 72.5867 35.2288 72.5485 35.4238C72.5102 35.6187 72.474 35.814 72.4399 36.0098C72.4057 36.2055 72.3737 36.4016 72.3438 36.598C72.3139 36.7944 72.286 36.9911 72.2603 37.1881C72.2346 37.3851 72.211 37.5823 72.1895 37.7799C72.168 37.9774 72.1486 38.1751 72.1314 38.373C72.1141 38.5709 72.0989 38.769 72.0859 38.9673C72.0729 39.1655 72.062 39.3638 72.0532 39.5623C72.0444 39.7608 72.0378 39.9594 72.0332 40.1579C72.0287 40.3566 72.0263 40.5552 72.026 40.7539C72.0257 40.9526 72.0276 41.1512 72.0316 41.3498C72.0355 41.5484 72.0416 41.747 72.0497 41.9456C72.058 42.144 72.0683 42.3424 72.0808 42.5407C72.0933 42.739 72.1078 42.9371 72.1245 43.1352C72.1413 43.3331 72.1601 43.5309 72.181 43.7284C72.202 43.926 72.225 44.1233 72.2501 44.3203C72.2753 44.5174 72.3025 44.7142 72.3319 44.9107C72.3612 45.1073 72.3927 45.3034 72.4263 45.4993C72.4598 45.6951 72.4955 45.8905 72.5332 46.0855C72.571 46.2806 72.6108 46.4752 72.6527 46.6694C72.6947 46.8637 72.7387 47.0574 72.7847 47.2507C72.8308 47.444 72.8788 47.6367 72.929 47.8289C72.9792 48.0212 73.0314 48.2129 73.0857 48.4041C73.1399 48.5952 73.1963 48.7857 73.2547 48.9756C73.3131 49.1656 73.3734 49.3549 73.4359 49.5436C73.4983 49.7322 73.5627 49.9201 73.6291 50.1074C74.2772 51.9677 75.1936 53.7583 76.0269 55.5416C76.3377 55.1314 76.6851 54.7515 77.0452 54.3844C79.2412 52.1453 82.2353 50.0524 85.4961 50.0311C87.271 50.0196 88.3695 50.4111 89.6358 51.6661C94.075 56.0661 95.7047 59.2989 95.741 65.6314C94.5845 65.9383 93.4728 66.388 92.3335 66.7512C91.554 66.9983 90.764 67.2056 89.9635 67.3729C89.1629 67.5401 88.3559 67.6665 87.5426 67.7521C82.7088 68.269 76.472 66.4512 72.3601 63.8964C71.1107 63.1202 70.0017 62.1142 68.8608 61.1943C68.5214 60.9207 68.1326 60.7168 67.7889 60.4395L67.7848 60.3859C68.0601 60.4358 68.3376 60.6348 68.5808 60.7713C67.4622 59.4199 66.1804 58.2379 65.2935 56.7077C66.8702 54.9916 68.5291 51.1785 69.1471 48.9253C70.0968 45.4629 70.3393 42.3906 70.3559 38.8244C70.3589 38.1906 70.4539 37.5326 70.4118 36.9023C70.3542 36.0397 70.0964 35.1194 69.9241 34.2663C69.0305 29.8403 68.0014 26.9739 65.7529 23.0236C66.4109 22.2904 67.0575 21.5274 67.7786 20.8547C67.9149 20.7296 68.0524 20.606 68.1912 20.4837C68.33 20.3614 68.47 20.2407 68.6114 20.1214C68.7526 20.002 68.8952 19.8841 69.039 19.7678C69.1828 19.6514 69.3277 19.5365 69.4738 19.4231C69.62 19.3098 69.7673 19.1979 69.9158 19.0876C70.0642 18.9772 70.2138 18.8684 70.3646 18.7612C70.5153 18.6539 70.6671 18.5483 70.8201 18.4442C70.973 18.3401 71.1269 18.2376 71.282 18.1368C71.4371 18.0358 71.5932 17.9365 71.7503 17.8388C71.9074 17.7411 72.0655 17.6451 72.2246 17.5507C72.3837 17.4563 72.5438 17.3636 72.7048 17.2725C72.8659 17.1814 73.0278 17.092 73.1907 17.0043C73.3536 16.9165 73.5174 16.8304 73.6821 16.7461C73.8468 16.6618 74.0123 16.5792 74.1787 16.4982C74.3451 16.4174 74.5123 16.3382 74.6804 16.2607C74.8484 16.1833 75.0172 16.1075 75.1868 16.0335C75.3564 15.9596 75.5268 15.8874 75.6979 15.817C75.869 15.7466 76.0409 15.6779 76.2134 15.611C76.386 15.5441 76.5592 15.479 76.733 15.4158C76.907 15.3525 77.0815 15.291 77.2566 15.2313C77.4318 15.1717 77.6076 15.1138 77.784 15.0578C77.9604 15.0017 78.1373 14.9475 78.3148 14.8951C78.4923 14.8428 78.6703 14.7923 78.8488 14.7436C79.0274 14.6948 79.2064 14.648 79.3858 14.603C79.5653 14.558 79.7453 14.515 79.9258 14.4737C80.1062 14.4324 80.287 14.393 80.4682 14.3555C80.6495 14.318 80.8311 14.2823 81.013 14.2486C81.195 14.2149 81.3773 14.183 81.5599 14.153C81.7426 14.123 81.9255 14.0949 82.1087 14.0687C82.2919 14.0426 82.4754 14.0183 82.6591 13.9958C82.8429 13.9735 83.0268 13.953 83.2109 13.9344C83.3951 13.9158 83.5794 13.8991 83.7638 13.8843Z" fill="#FEFEFE"/>
</svg>
