<svg width="32" height="32" viewBox="0 0 32 32" fill="none" xmlns="http://www.w3.org/2000/svg">
<path fill-rule="evenodd" clip-rule="evenodd" d="M8.00033 5.33203H24.0003C25.4148 5.33203 26.7714 5.89393 27.7716 6.89413C28.7718 7.89432 29.3337 9.25088 29.3337 10.6654V23.9987C29.3337 25.4132 28.7718 26.7697 27.7716 27.7699C26.7714 28.7701 25.4148 29.332 24.0003 29.332H8.00033C6.58584 29.332 5.22928 28.7701 4.22909 27.7699C3.2289 26.7697 2.66699 25.4132 2.66699 23.9987V10.6654C2.66699 9.25088 3.2289 7.89432 4.22909 6.89413C5.22928 5.89393 6.58584 5.33203 8.00033 5.33203ZM8.00033 7.9987C7.29308 7.9987 6.6148 8.27965 6.11471 8.77975C5.61461 9.27984 5.33366 9.95812 5.33366 10.6654V23.9987C5.33366 24.7059 5.61461 25.3842 6.11471 25.8843C6.6148 26.3844 7.29308 26.6654 8.00033 26.6654H24.0003C24.7076 26.6654 25.3858 26.3844 25.8859 25.8843C26.386 25.3842 26.667 24.7059 26.667 23.9987V10.6654C26.667 9.95812 26.386 9.27984 25.8859 8.77975C25.3858 8.27965 24.7076 7.9987 24.0003 7.9987H8.00033Z" fill="currentColor"/>
<path fill-rule="evenodd" clip-rule="evenodd" d="M4.00049 13.3327C4.00049 12.9791 4.14096 12.6399 4.39101 12.3899C4.64106 12.1398 4.9802 11.9993 5.33382 11.9993H26.6672C27.0208 11.9993 27.3599 12.1398 27.61 12.3899C27.86 12.6399 28.0005 12.9791 28.0005 13.3327C28.0005 13.6863 27.86 14.0254 27.61 14.2755C27.3599 14.5255 27.0208 14.666 26.6672 14.666H5.33382C4.9802 14.666 4.64106 14.5255 4.39101 14.2755C4.14096 14.0254 4.00049 13.6863 4.00049 13.3327ZM10.6672 2.66602C11.0208 2.66602 11.3599 2.80649 11.61 3.05654C11.86 3.30659 12.0005 3.64573 12.0005 3.99935V9.33268C12.0005 9.6863 11.86 10.0254 11.61 10.2755C11.3599 10.5255 11.0208 10.666 10.6672 10.666C10.3135 10.666 9.97439 10.5255 9.72435 10.2755C9.4743 10.0254 9.33382 9.6863 9.33382 9.33268V3.99935C9.33382 3.64573 9.4743 3.30659 9.72435 3.05654C9.97439 2.80649 10.3135 2.66602 10.6672 2.66602ZM21.3338 2.66602C21.6874 2.66602 22.0266 2.80649 22.2766 3.05654C22.5267 3.30659 22.6672 3.64573 22.6672 3.99935V9.33268C22.6672 9.6863 22.5267 10.0254 22.2766 10.2755C22.0266 10.5255 21.6874 10.666 21.3338 10.666C20.9802 10.666 20.6411 10.5255 20.391 10.2755C20.141 10.0254 20.0005 9.6863 20.0005 9.33268V3.99935C20.0005 3.64573 20.141 3.30659 20.391 3.05654C20.6411 2.80649 20.9802 2.66602 21.3338 2.66602Z" fill="currentColor"/>
<path d="M10.6667 17.3333C10.6667 17.687 10.5262 18.0261 10.2761 18.2761C10.0261 18.5262 9.68696 18.6667 9.33333 18.6667C8.97971 18.6667 8.64057 18.5262 8.39052 18.2761C8.14048 18.0261 8 17.687 8 17.3333C8 16.9797 8.14048 16.6406 8.39052 16.3905C8.64057 16.1405 8.97971 16 9.33333 16C9.68696 16 10.0261 16.1405 10.2761 16.3905C10.5262 16.6406 10.6667 16.9797 10.6667 17.3333ZM10.6667 22.6667C10.6667 23.0203 10.5262 23.3594 10.2761 23.6095C10.0261 23.8595 9.68696 24 9.33333 24C8.97971 24 8.64057 23.8595 8.39052 23.6095C8.14048 23.3594 8 23.0203 8 22.6667C8 22.313 8.14048 21.9739 8.39052 21.7239C8.64057 21.4738 8.97971 21.3333 9.33333 21.3333C9.68696 21.3333 10.0261 21.4738 10.2761 21.7239C10.5262 21.9739 10.6667 22.313 10.6667 22.6667ZM17.3333 17.3333C17.3333 17.687 17.1929 18.0261 16.9428 18.2761C16.6928 18.5262 16.3536 18.6667 16 18.6667C15.6464 18.6667 15.3072 18.5262 15.0572 18.2761C14.8071 18.0261 14.6667 17.687 14.6667 17.3333C14.6667 16.9797 14.8071 16.6406 15.0572 16.3905C15.3072 16.1405 15.6464 16 16 16C16.3536 16 16.6928 16.1405 16.9428 16.3905C17.1929 16.6406 17.3333 16.9797 17.3333 17.3333ZM17.3333 22.6667C17.3333 23.0203 17.1929 23.3594 16.9428 23.6095C16.6928 23.8595 16.3536 24 16 24C15.6464 24 15.3072 23.8595 15.0572 23.6095C14.8071 23.3594 14.6667 23.0203 14.6667 22.6667C14.6667 22.313 14.8071 21.9739 15.0572 21.7239C15.3072 21.4738 15.6464 21.3333 16 21.3333C16.3536 21.3333 16.6928 21.4738 16.9428 21.7239C17.1929 21.9739 17.3333 22.313 17.3333 22.6667ZM24 17.3333C24 17.687 23.8595 18.0261 23.6095 18.2761C23.3594 18.5262 23.0203 18.6667 22.6667 18.6667C22.313 18.6667 21.9739 18.5262 21.7239 18.2761C21.4738 18.0261 21.3333 17.687 21.3333 17.3333C21.3333 16.9797 21.4738 16.6406 21.7239 16.3905C21.9739 16.1405 22.313 16 22.6667 16C23.0203 16 23.3594 16.1405 23.6095 16.3905C23.8595 16.6406 24 16.9797 24 17.3333ZM24 22.6667C24 23.0203 23.8595 23.3594 23.6095 23.6095C23.3594 23.8595 23.0203 24 22.6667 24C22.313 24 21.9739 23.8595 21.7239 23.6095C21.4738 23.3594 21.3333 23.0203 21.3333 22.6667C21.3333 22.313 21.4738 21.9739 21.7239 21.7239C21.9739 21.4738 22.313 21.3333 22.6667 21.3333C23.0203 21.3333 23.3594 21.4738 23.6095 21.7239C23.8595 21.9739 24 22.313 24 22.6667Z" fill="currentColor"/>
</svg>
