<svg width="32" height="32" viewBox="0 0 32 32" fill="none" xmlns="http://www.w3.org/2000/svg">
<path d="M24.5 11C24.5 10.3078 24.2947 9.63108 23.9101 9.0555C23.5256 8.47993 22.9789 8.03133 22.3394 7.76642C21.6999 7.50151 20.9961 7.4322 20.3172 7.56725C19.6383 7.7023 19.0146 8.03564 18.5251 8.52513C18.0356 9.01461 17.7023 9.63825 17.5673 10.3172C17.4322 10.9961 17.5015 11.6999 17.7664 12.3394C18.0313 12.9789 18.4799 13.5256 19.0555 13.9101C19.6311 14.2947 20.3078 14.5 21 14.5C21.9283 14.5 22.8185 14.1313 23.4749 13.4749C24.1313 12.8185 24.5 11.9283 24.5 11ZM21 13.5C20.5055 13.5 20.0222 13.3534 19.6111 13.0787C19.2 12.804 18.8795 12.4135 18.6903 11.9567C18.5011 11.4999 18.4516 10.9972 18.548 10.5123C18.6445 10.0273 18.8826 9.58186 19.2322 9.23223C19.5819 8.8826 20.0273 8.6445 20.5123 8.54804C20.9972 8.45157 21.4999 8.50108 21.9567 8.6903C22.4135 8.87952 22.804 9.19995 23.0787 9.61107C23.3534 10.0222 23.5 10.5055 23.5 11C23.5 11.663 23.2366 12.2989 22.7678 12.7678C22.2989 13.2366 21.663 13.5 21 13.5ZM20.3563 26.5C20.6437 26.5003 20.9252 26.4179 21.1672 26.2628C21.4092 26.1077 21.6015 25.8863 21.7213 25.625L25.7213 16.8263C26.9252 15.8503 27.7973 14.5253 28.2175 13.0335C28.6377 11.5417 28.5855 9.95632 28.0679 8.49542C27.5503 7.03453 26.5929 5.76986 25.3272 4.87532C24.0616 3.98078 22.5499 3.50032 21 3.5C20.9724 3.50026 20.9448 3.50235 20.9175 3.50625L3.75 6.3675C3.40031 6.42661 3.08288 6.60771 2.85404 6.87865C2.6252 7.14959 2.49977 7.49285 2.5 7.8475V14.1525C2.49977 14.5071 2.6252 14.8504 2.85404 15.1214C3.08288 15.3923 3.40031 15.5734 3.75 15.6325L16.5 17.7575V25C16.5 25.3978 16.658 25.7794 16.9393 26.0607C17.2206 26.342 17.6022 26.5 18 26.5H18.5V27C18.5 28.1935 18.9741 29.3381 19.818 30.182C20.6619 31.0259 21.8065 31.5 23 31.5H25C25.1326 31.5 25.2598 31.4473 25.3536 31.3536C25.4473 31.2598 25.5 31.1326 25.5 31C25.5 30.8674 25.4473 30.7402 25.3536 30.6464C25.2598 30.5527 25.1326 30.5 25 30.5H23C22.0717 30.5 21.1815 30.1313 20.5251 29.4749C19.8687 28.8185 19.5 27.9283 19.5 27V26.5H20.3563ZM3.5 14.1525V7.8475C3.49836 7.72802 3.53957 7.61191 3.61616 7.52018C3.69274 7.42846 3.79965 7.3672 3.9175 7.3475L21.0413 4.5C22.7652 4.5 24.4185 5.18482 25.6374 6.40381C26.8564 7.62279 27.5413 9.27609 27.5413 11C27.5413 12.7239 26.8564 14.3772 25.6374 15.5962C24.4185 16.8152 22.7652 17.5 21.0413 17.5L3.91625 14.6462C3.79969 14.6264 3.69392 14.566 3.61772 14.4756C3.54152 14.3852 3.49981 14.2707 3.5 14.1525ZM17.5 25V17.9237L20.9175 18.5C20.9448 18.5039 20.9724 18.506 21 18.5063C22.1003 18.5071 23.1872 18.2642 24.1825 17.795L20.8075 25.2125C20.7679 25.3 20.7039 25.3742 20.6232 25.4263C20.5425 25.4784 20.4485 25.5062 20.3525 25.5063H18C17.9338 25.5063 17.8683 25.4931 17.8072 25.4676C17.7461 25.4421 17.6907 25.4047 17.6442 25.3576C17.5977 25.3105 17.561 25.2546 17.5363 25.1933C17.5115 25.1319 17.4992 25.0662 17.5 25Z" fill="currentColor"/>
</svg>
