<svg width="120" height="120" viewBox="0 0 120 120" fill="none" xmlns="http://www.w3.org/2000/svg">
<path d="M112.64 9.00008C112.804 8.9982 112.992 9.03057 113.134 9.11631C113.354 9.24854 113.497 9.49351 113.536 9.74123C113.578 10.0057 113.494 10.3153 113.334 10.5301C112.874 11.1494 111.932 11.469 111.341 11.9786C110.035 13.1043 108.806 14.3436 107.52 15.4967C106.551 16.3652 105.386 17.2089 104.532 18.1806C104.124 18.6456 103.657 19.4574 102.98 19.5298C102.706 19.5591 102.448 19.4379 102.25 19.2552C101.547 18.6069 102.129 17.6892 102.083 16.9112C102.032 16.8289 102.022 16.7649 101.921 16.7373C101.097 16.5106 95.873 19.5653 94.7935 20.1715C92.6431 21.3791 90.4996 22.5643 88.5284 24.0513C86.4112 25.6486 84.4933 27.5764 82.6109 29.435C79.9964 32.0163 77.4255 34.6502 74.7738 37.1928C72.4398 39.4308 69.9653 41.5084 67.5826 43.6935L62.6392 48.1913C61.376 49.3491 60.1335 50.539 58.8323 51.6544C56.37 53.7365 53.828 55.7181 51.2065 57.5994C49.8997 58.5444 48.6137 59.4999 47.2633 60.3854C44.2971 62.3303 41.1898 64.008 38.0363 65.6293C35.1323 67.1225 32.2301 68.6111 29.0946 69.5734C27.65 70.0168 26.169 70.3323 24.7072 70.7137C22.692 71.2395 20.7209 71.8265 18.7438 72.4791C17.731 72.8134 16.6691 73.1176 15.7057 73.574L15.6329 73.6094C15.3706 73.8034 15.0989 73.9544 14.8117 74.1072C14.4194 74.0316 14.0915 73.8952 13.7505 73.6891C13.6783 73.5764 13.6095 73.4626 13.554 73.3404C13.4208 73.0474 13.364 72.7528 13.4953 72.4471C13.7053 71.9581 14.2483 71.7532 14.7118 71.5783L15.3103 71.8598C16.3593 71.4103 17.4882 71.1101 18.5739 70.7565C20.3995 70.162 22.2246 69.5441 24.0869 69.0684C26.8463 68.3636 29.7536 67.7414 32.3346 66.5148C36.4107 64.5779 40.7306 61.5641 44.4193 58.9421C46.2693 57.6381 48.0934 56.2992 49.8914 54.9255C51.6894 53.5518 53.46 52.1443 55.2034 50.7029C56.9467 49.2615 58.6613 47.7874 60.3474 46.2804C62.0335 44.7734 63.6896 43.2348 65.3158 41.6646C67.8672 39.2308 70.402 36.7529 72.8998 34.2654C73.7645 33.4041 74.5895 32.5037 75.4648 31.6527C77.3643 29.8059 79.3455 28.0324 81.2753 26.2153C83.0009 24.5904 84.6816 22.9064 86.4758 21.3556C87.6336 20.3547 88.9443 19.4343 90.2679 18.6604C91.7466 17.7959 98.1994 14.8638 98.7967 13.9754C98.8501 13.4665 98.1329 13.3264 97.9466 12.8678C97.855 12.6425 97.9055 12.4051 98.0003 12.1905C98.1692 11.8077 98.3935 11.6927 98.7859 11.5876C99.8832 11.2938 101.182 11.3086 102.319 11.1617C103.5 11.0088 104.68 10.796 105.856 10.6019C108.141 10.2247 110.478 9.84571 112.64 9.00008Z" fill="#0275A6"/>
<path d="M110.149 10.7866C110.391 10.7527 110.61 10.7163 110.842 10.8093C110.892 10.8896 110.941 10.9184 110.914 11.0175C110.825 11.3343 110.417 11.704 110.198 11.9499C108.275 14.1064 105.975 16.2274 103.586 17.8644C103.454 17.7212 103.339 17.5591 103.22 17.4055C103.117 16.8786 103.262 16.0569 102.963 15.6069C102.869 15.4643 102.774 15.3963 102.603 15.3693C102.082 15.2874 101.157 16.0304 100.679 16.2696C98.4279 17.3961 96.2303 18.5655 94.0278 19.7843C92.0051 20.9034 89.9283 22.0421 88.1235 23.4933C85.9731 25.2225 83.9966 27.2003 82.0367 29.1348C79.8595 31.2836 77.6882 33.4502 75.4848 35.5718C72.3922 38.5495 69.1823 41.3537 65.9947 44.2258C63.7816 46.22 61.6323 48.2947 59.3693 50.2331C57.1164 52.1286 54.8096 53.9572 52.4489 55.7189C50.0882 57.4806 47.6776 59.1723 45.2171 60.7942C44.7991 61.0336 44.4 61.2849 44.0047 61.5596C43.8409 61.3888 43.7186 61.247 43.6138 61.0346C43.616 60.8051 43.7113 60.7431 43.8877 60.6027C46.1274 58.8204 48.5352 57.2517 50.7814 55.4767C51.6492 54.7908 52.4671 54.0414 53.3187 53.3356C57.1642 50.147 60.8958 46.8322 64.5134 43.3913C70.03 38.121 75.3185 32.6162 80.8578 27.3675C82.9625 25.3731 85.0129 23.3124 87.2751 21.4895C87.7812 21.0848 88.3039 20.7022 88.8431 20.3419C89.3823 19.9817 89.936 19.6449 90.5044 19.3317C92.5337 18.1941 94.6426 17.1517 96.7351 16.1337C97.6713 15.6782 98.6513 15.2979 99.5601 14.7893C99.8612 14.6207 100.221 14.4257 100.41 14.1298C100.875 13.4039 99.8026 13.1139 99.7295 12.5498C99.7193 12.4714 99.7737 12.3999 99.829 12.3489C99.9617 12.2264 100.2 12.1931 100.369 12.1615C101.701 11.9124 103.087 11.8454 104.431 11.6438C106.339 11.3576 108.223 10.9456 110.149 10.7866Z" fill="#FC7A00"/>
<path d="M0.664897 18.6063C0.748026 18.5848 0.832167 18.5684 0.917321 18.5573C1.44959 18.4864 2.12343 18.6449 2.67198 18.6505C3.39571 18.6578 4.16329 18.5285 4.87931 18.6196C5.17239 18.657 5.57592 18.7307 5.80299 18.9327C5.93623 19.0512 5.72891 24.1464 5.72891 24.7378C5.72888 27.9218 5.58942 31.1076 5.54715 34.2911C5.48137 39.2465 5.49425 44.2173 5.53151 49.1732C5.79533 68.0713 6.40901 86.9582 7.37254 105.834C10.8213 107.613 20.5556 105.962 24.6197 105.512C24.6272 103.579 24.5438 89.4463 24.1664 88.6921C24.0715 88.6954 23.9586 88.6909 23.8666 88.7122C23.4883 88.8005 23.5994 89.4263 23.6086 89.7441C23.7098 93.2776 23.9432 96.8131 23.9725 100.347C23.9813 101.401 24.0565 102.493 23.9752 103.543C23.9523 103.84 23.9146 104.284 23.7274 104.519C23.6282 104.643 23.2887 104.684 23.1319 104.708C22.3541 104.826 21.5528 104.858 20.7681 104.925C19.2178 105.058 17.6821 105.189 16.1251 105.216C15.6259 105.224 15.1068 105.294 14.6104 105.254C14.388 105.236 14.1712 105.174 13.9938 105.036C13.7548 104.849 13.7665 104.632 13.7355 104.349C13.4845 104.435 13.2522 104.549 12.9852 104.474C12.7843 104.337 12.7003 104.178 12.6593 103.942C12.5943 103.568 12.6424 103.148 12.64 102.767L12.6223 99.8989C12.6071 98.4886 12.3613 89.1384 11.9402 88.4904C11.8883 88.4107 11.8323 88.4255 11.7462 88.4097C11.5752 88.4707 11.4416 88.514 11.3085 88.644C11.1545 89.7847 11.3732 91.8116 11.415 93.0495L11.671 99.7499C11.7156 101.134 11.708 102.528 11.7835 103.91C11.8106 104.408 11.9452 104.889 11.9739 105.381C11.991 105.673 11.9305 106.011 11.7173 106.228C11.7008 106.245 11.6834 106.261 11.6652 106.276C11.6468 106.291 11.6278 106.305 11.6081 106.318C11.5883 106.331 11.568 106.343 11.547 106.354C11.5259 106.365 11.5044 106.375 11.4824 106.384C11.4603 106.393 11.4379 106.4 11.415 106.407C11.3922 106.413 11.369 106.418 11.3456 106.422C11.3222 106.426 11.2987 106.429 11.275 106.431C11.2513 106.432 11.2276 106.433 11.2038 106.432C10.9823 106.422 10.8074 106.3 10.6829 106.127C10.5408 105.929 10.5093 105.56 10.4919 105.324C10.4355 104.562 10.5018 103.761 10.5045 102.994C10.5122 101.572 10.488 100.15 10.4321 98.7288C10.3327 96.0042 10.2916 93.2704 10.1547 90.548C10.1155 89.7666 9.76797 87.8922 9.88428 87.2797C10.6694 86.3882 11.7212 87.4644 12.6759 86.8984C12.7055 86.82 12.7299 86.7466 12.7486 86.6646C12.7543 86.6401 12.7592 86.6154 12.7645 86.5908C12.8288 86.5472 12.8382 86.535 12.9243 86.5098C13.3659 86.3808 15.3028 86.4862 15.9265 86.4753C17.4104 86.4438 18.8936 86.3925 20.3761 86.3213C21.0518 86.2918 25.4392 85.9866 25.7565 86.1777C25.977 86.3106 26.1365 86.5503 26.1803 86.8013C26.2758 87.3488 25.927 87.8415 25.6311 88.2651C25.601 90.6465 25.7911 93.0558 25.8708 95.4376C25.9826 98.78 26.0181 102.137 26.2347 105.475C27.7881 105.343 29.3056 105.177 30.8685 105.175C30.5915 103.976 30.734 102.577 30.7373 101.342L30.732 96.41C30.7451 93.1457 30.7331 89.8816 30.696 86.6175C30.6575 84.4784 30.542 82.3422 30.4781 80.2039C30.4263 78.4675 30.4816 76.7231 30.3717 74.9898C30.3489 74.6306 30.1594 74.3369 29.993 74.0236C30.0123 73.7317 30.0245 73.3965 30.1167 73.1166C30.1913 72.8898 30.3213 72.6739 30.5539 72.581C30.8878 72.4478 31.3454 72.7032 31.6406 72.8563C31.7409 72.9083 31.8296 72.9658 31.9472 72.9708C32.1562 72.9798 32.3799 72.9285 32.5896 72.9162C33.1059 72.886 33.6301 72.8962 34.1473 72.8852C36.2661 72.8398 38.3924 72.8036 40.5065 72.6501C41.5454 72.5746 44.9892 72.1317 45.7322 72.3924C45.9975 72.4855 46.1432 72.6442 46.2563 72.8966C46.4019 73.222 46.4479 73.649 46.3054 73.9824C46.2643 74.0787 46.2167 74.1669 46.1811 74.2663C45.9858 74.811 46.1007 76.0627 46.098 76.6693C46.0759 81.397 46.2854 86.12 46.3858 90.8456L46.6009 101.196C46.6255 102.05 46.5933 102.908 46.637 103.759C46.6532 104.075 46.6847 104.415 46.8295 104.699C47.1893 104.819 53.8932 104.477 54.8924 104.486C55.2631 102.508 55.0288 99.1226 55.0003 96.9969L54.9402 85.6022L54.9862 67.1171C55.0047 65.1681 55.0883 63.2145 55.1307 61.2651C55.1474 60.5045 55.2038 59.7202 55.1716 58.9607C55.1561 58.5935 54.9219 58.218 54.8012 57.8707C54.8655 57.5075 54.9416 57.1788 55.1975 56.8966C55.3441 56.7351 55.5247 56.6324 55.7473 56.6321C56.1161 56.6316 56.3021 56.8743 56.5309 57.1189L68.4159 57.0441C68.6609 56.7746 69.0012 56.5794 69.3728 56.5525C69.4106 56.5496 69.4484 56.5486 69.4862 56.5495C69.5241 56.5504 69.5618 56.5532 69.5993 56.558C69.637 56.5627 69.6742 56.5692 69.7111 56.5777C69.748 56.5862 69.7844 56.5965 69.8203 56.6086C69.8561 56.6208 69.8913 56.6347 69.9256 56.6504C69.9601 56.666 69.9936 56.6834 70.0263 56.7025C70.0589 56.7216 70.0904 56.7422 70.1209 56.7645C70.1515 56.7867 70.1808 56.8105 70.2089 56.8357C70.2446 56.8675 70.2785 56.901 70.3106 56.9362C70.3427 56.9715 70.3728 57.0084 70.4009 57.0468C70.4291 57.0853 70.4551 57.1251 70.479 57.1663C70.5028 57.2075 70.5244 57.2499 70.5437 57.2933C70.563 57.3368 70.58 57.3811 70.5946 57.4264C70.6093 57.4717 70.6214 57.5176 70.6311 57.5641C70.6407 57.6107 70.6479 57.6576 70.6526 57.7048C70.6572 57.7522 70.6593 57.7996 70.6589 57.8471C70.6571 58.2695 70.5033 58.4472 70.2051 58.7311C70.2027 58.7473 70.2002 58.7636 70.1981 58.78C70.1943 58.8072 70.1914 58.8344 70.1875 58.8616C70.107 59.4345 70.1445 60.0042 70.1425 60.5803L70.1575 63.7395C70.1731 67.2001 70.1779 70.6536 70.2433 74.1139L70.3752 87.0035C70.4677 92.639 70.6114 98.2732 70.8062 103.906C71.5032 103.81 72.2097 103.791 72.9109 103.737C73.9744 103.655 75.0371 103.551 76.0994 103.454C76.3573 102.185 76.3215 99.9858 76.3341 98.6219L76.3455 90.2177C76.4284 78.871 76.3489 67.5255 76.107 56.181C76.062 53.0028 76.0564 49.8246 76.0905 46.6463C76.1174 44.862 76.2935 43.02 76.1338 41.2398C76.0916 40.7691 75.8909 40.3781 75.8291 39.9152L75.8184 39.8287C75.8818 39.6749 75.951 39.5091 76.0412 39.3689C76.1558 39.1907 76.3504 39.0196 76.5712 39.0061C76.9911 38.9804 77.3224 39.3379 77.6072 39.5937C79.5152 39.6739 81.4482 39.5739 83.3571 39.5202C85.0305 39.4733 86.6992 39.4709 88.3725 39.3928C88.9102 39.3676 89.4597 39.3651 89.9942 39.307C90.4419 39.2583 90.918 39.1354 91.3647 39.1379C91.59 39.1392 91.8374 39.2634 92.0158 39.3944C92.2202 39.5442 92.358 39.7531 92.3916 40.0053C92.4582 40.504 92.1782 40.8903 91.8796 41.2565C92.0305 43.5565 91.846 46.1826 91.838 48.5329L91.79 64.5719C91.7847 67.1755 91.907 69.763 91.9694 72.3642L92.3338 90.5673L92.3663 99.3018C92.3682 100.153 92.2024 101.813 92.4098 102.536C92.457 102.701 92.5592 102.873 92.7297 102.934C93.0869 103.062 95.8558 102.851 96.2184 102.675C96.3315 102.177 96.2137 100.06 96.2099 99.3633L96.0781 87.5956C96.0605 78.6553 95.9738 69.7156 95.8182 60.7766L94.8709 22.9366C95.0614 22.6965 95.2337 22.5042 95.5423 22.4236C95.7178 22.3778 95.8838 22.4048 96.0339 22.5067C96.2774 22.6724 96.3032 22.9353 96.3632 23.2014C98.0638 23.2293 99.7634 23.0416 101.462 22.9552C103.412 22.8561 105.36 22.8442 107.31 22.7655C107.798 22.7457 109.701 22.489 110.019 22.6911C110.574 23.0442 110.357 24.516 110.373 25.089L111.752 85.0134C111.791 86.9415 111.901 101.777 112.11 102.168C112.758 102.5 116.601 101.995 117.436 101.888C117.949 101.823 118.617 101.629 119.125 101.688C119.493 101.73 119.699 102.023 119.897 102.298L119.951 102.374C119.993 103.234 119.911 104.107 119.921 104.97C119.937 106.265 120.072 107.65 119.948 108.936C119.93 109.128 119.898 109.289 119.761 109.439C119.57 109.648 119.278 109.823 118.988 109.836C118.393 109.862 117.663 109.608 117.053 109.543C115.225 109.347 113.373 109.225 111.538 109.114C104.401 108.645 97.257 108.479 90.1059 108.617C82.1277 108.768 74.1569 109.258 66.1799 109.467C63.6388 109.533 61.0944 109.464 58.5527 109.49L39.9079 109.78C33.5214 109.926 27.1355 110.333 20.7516 110.575C18.388 110.668 16.0237 110.735 13.6586 110.776C11.0262 110.797 8.38733 110.745 5.75541 110.807C5.0432 110.824 4.34672 110.979 3.63786 110.999C3.28355 111.009 2.83508 110.982 2.57067 110.713C2.34919 110.487 2.28666 110.191 2.27073 109.888C2.19369 108.425 2.34543 106.912 2.33771 105.441C2.32421 102.867 2.18351 100.275 2.11442 97.6997L1.29625 56.231C1.28878 55.7981 1.24198 55.1118 1.56559 54.7787L1.68799 54.7854C1.91928 55.0223 1.97788 55.3405 2.00443 55.6602C2.10437 56.864 2.04172 58.1332 2.0706 59.3469L2.2467 69.3182L2.8864 93.8474L3.0745 102.958C3.13019 105.001 3.12496 107.064 3.42555 109.09C3.44614 109.229 3.46454 109.333 3.58156 109.416C3.96665 109.69 4.75821 109.696 5.22185 109.724C7.50233 109.863 9.83879 109.753 12.1249 109.743C15.5292 109.728 18.8931 109.583 22.2918 109.441L37.4966 108.791C46.467 108.44 55.4402 108.472 64.4125 108.244L83.1121 107.597C85.0068 107.53 86.8974 107.406 88.7937 107.368C95.3581 107.183 101.921 107.234 108.481 107.52C109.947 107.577 111.427 107.628 112.89 107.74C114.108 107.833 116.663 108.167 117.756 108.003C118.057 107.958 118.424 107.934 118.616 107.673C118.79 106.891 118.785 104.41 118.553 103.645C118.29 103.482 118.022 103.462 117.717 103.467C117.048 103.478 116.351 103.592 115.678 103.639L110.286 104.005C107.803 104.136 105.319 104.234 102.834 104.297C100.942 104.363 99.047 104.476 97.1552 104.516C94.4815 104.573 91.7968 104.579 89.1254 104.692C87.0238 104.781 84.9226 104.98 82.8219 105.054C80.6426 105.13 78.4551 105.068 76.2779 105.192C71.8799 105.444 67.4963 105.974 63.0882 106.101C59.8721 106.193 56.6334 106.095 53.4148 106.105C48.5779 106.12 43.7435 106.302 38.9086 106.401C36.7637 106.446 34.6107 106.353 32.4676 106.43C29.1475 106.55 25.9194 107.174 22.6174 107.406C21.4743 107.487 20.3432 107.445 19.1993 107.467C16.1445 107.525 13.1041 107.52 10.0496 107.481C9.41664 107.473 8.77181 107.449 8.13971 107.484C7.75408 107.505 7.37496 107.59 6.98708 107.579C6.79389 107.574 6.59433 107.534 6.42257 107.444C5.6536 107.038 5.77665 105.794 5.74308 105.061C5.20991 93.9575 4.85358 82.8488 4.6741 71.7346C4.49462 60.6203 4.49209 49.5061 4.6665 38.3919L4.74903 31.0236C4.80273 28.6835 4.83832 26.3432 4.85577 24.0026C4.85615 22.7138 5.02328 20.9673 4.60114 19.7444L4.57498 19.6705C3.57774 19.3287 2.21197 19.4339 1.21168 19.7339C1.11825 19.9848 1.04004 20.2404 0.977028 20.5006C0.914019 20.7608 0.866662 21.0237 0.834957 21.2894C0.580743 23.4787 0.690037 26.2388 0.696943 28.4831C0.704101 30.8115 0.783415 33.1355 0.841812 35.4629C0.905311 37.9937 0.942587 40.5311 1.12614 43.057C1.18561 43.8752 1.23414 44.7082 1.34497 45.5213C1.49333 46.6098 1.71539 47.6922 1.75252 48.7925C1.76512 49.1659 1.76872 49.6972 1.51787 49.9957C1.44514 50.0824 1.46396 50.0557 1.34132 50.0577C1.26232 49.9862 1.25852 49.9947 1.21243 49.9222C0.683736 49.0896 0.774935 46.437 0.71049 45.3834C0.36039 40.2291 0.164261 35.0691 0.122104 29.9034C0.108079 27.6748 0.149425 25.4379 0.170382 23.2087C0.17512 22.7045 0.228463 22.1967 0.223359 21.694C0.215811 20.9511 -0.118197 20.1616 0.0447303 19.4265C0.13177 19.0338 0.324928 18.8104 0.664897 18.6063Z" fill="#0275A6"/>
<path d="M79.8036 40.8047C80.3387 40.8411 80.8789 40.8351 81.4151 40.8423C81.0397 40.9485 80.5057 41.0573 80.2323 41.3452C80.085 41.5003 80.0413 41.567 80.0506 41.7756L79.8662 42.1558C79.8869 42.2864 79.9043 42.3389 79.8584 42.4662C79.644 42.3725 79.6734 41.7919 79.5496 41.5752C79.3999 41.507 79.2756 41.4476 79.144 41.347L79.1536 41.23C79.326 41.0263 79.5697 40.926 79.8036 40.8047Z" fill="#FC7A00"/>
<path d="M97.9506 28.9297C97.9595 28.9452 97.97 28.9598 97.9774 28.9761C98.1768 29.4107 98.0961 29.8953 97.9149 30.3101L97.8771 30.3951L98.0341 30.5237C98.1213 30.7288 98.1313 30.9354 98.1376 31.1554C98.1464 31.4701 98.166 31.9418 97.941 32.1764C97.8001 32.0655 97.6682 31.952 97.4911 31.9048C97.4545 31.895 97.4173 31.8869 97.3804 31.878C97.3371 31.7929 97.3381 31.6717 97.3272 31.5788C97.385 31.3532 97.5788 31.2141 97.7452 31.0624C97.7475 30.7487 97.7936 30.1394 97.6138 29.8972L97.3505 29.8636L97.3426 29.7681L97.4943 29.657L97.4835 29.5542C97.3795 29.468 97.3374 29.4402 97.2832 29.3135L97.3962 29.2101C97.6198 29.1744 97.7338 29.123 97.9041 28.9723C97.9198 28.9584 97.9351 28.9439 97.9506 28.9297Z" fill="#FC7A00"/>
<path d="M31.8957 73.9791C32.0209 73.9788 32.1286 73.9725 32.2494 74.0098C32.4659 74.0767 32.4838 76.0502 32.4876 76.4129C32.5287 80.3359 32.7589 84.2581 32.759 88.1783L32.745 98.8812C32.7503 99.9135 32.6545 100.946 32.6902 101.979C32.706 102.437 32.7367 102.982 32.9547 103.394C33.0562 103.586 33.2045 103.749 33.4212 103.801C33.5786 103.84 33.4961 103.804 33.6351 103.89C33.5485 103.993 33.5921 103.935 33.5082 104.068C33.6682 104.187 33.755 104.19 33.9574 104.197C34.398 104.214 34.8554 104.163 35.2977 104.153C36.6027 104.125 37.9005 104.081 39.2045 104.024C40.0425 103.988 40.8841 104.022 41.7211 103.979C42.4512 103.941 43.1415 103.815 43.8804 103.826C43.9416 103.721 44.0022 103.617 44.0622 103.512C44.2821 103.135 44.4162 102.805 44.449 102.366C44.6443 99.7468 44.3175 97.0685 44.3053 94.4441C44.3 93.3118 44.439 92.2237 44.4999 91.1002C44.575 89.7142 44.5427 88.2683 44.4822 86.8812C44.3906 84.7816 44.2141 82.6858 44.1308 80.5862C44.0754 79.195 44.0896 77.8003 44.0854 76.4081C44.0839 75.8838 43.968 75.0177 44.1411 74.5334C44.2613 74.4573 44.3187 74.452 44.4602 74.458C44.6663 74.6489 44.6609 75.0172 44.6983 75.2887C44.7394 76.554 44.883 77.8158 44.9195 79.084C44.9889 81.4881 44.9475 83.9043 44.979 86.3101L45.1584 94.8409C45.2007 96.9221 45.2154 99.0034 45.2025 101.085C45.2013 102.24 45.234 103.405 45.1581 104.558C43.8552 105.003 41.0914 104.868 39.6187 104.885C37.1261 104.916 34.6188 104.961 32.1273 104.871C31.9829 103.551 32.0546 102.187 32.0461 100.86C32.0319 98.6362 32.0035 96.3986 31.9316 94.1757L31.5779 81.4421C31.5249 80.0154 31.4842 78.5884 31.4556 77.161C31.4362 76.2945 31.379 75.4145 31.4649 74.551C31.5963 74.3478 31.74 74.1644 31.8957 73.9791Z" fill="#FC7A00"/>
<path d="M68.3004 58.375C68.6325 58.4585 68.7661 59.0145 68.9802 59.2809C68.9394 60.8174 68.9955 62.346 69.0028 63.8815L69.0882 75.0623C69.1473 81.1378 69.1724 87.2135 69.1637 93.2893L69.2045 100.053C69.2078 101.295 69.4176 103.278 69.0544 104.409C68.2235 104.816 61.3616 105.041 59.9705 105.043C58.9577 105.044 57.4125 105.095 56.4758 104.76C56.2949 104.695 56.2408 104.656 56.1623 104.484C56.2181 104.168 56.6538 103.952 56.8251 103.674C56.9604 103.454 56.957 102.918 56.8771 102.673C56.7852 102.391 56.5935 102.293 56.3371 102.177L56.2629 102.144C56.1168 100.124 56.141 98.1185 56.1327 96.096C56.1199 93.1636 56.0924 90.2313 56.0501 87.2991C55.9086 81.6697 55.8233 76.0395 55.7943 70.4085L55.7706 64.2307C55.7686 62.8763 55.7386 61.5171 55.7976 60.1639L55.8524 58.6316C56.2833 58.6038 56.9093 58.4025 57.3133 58.5781C57.3681 59.3725 57.2062 60.219 57.1954 61.021C57.1663 63.177 57.2024 65.3365 57.2057 67.4928L57.0869 92.8526C57.0704 95.2637 57.1128 97.6664 57.1344 100.076C57.1442 101.163 57.0248 102.737 57.2487 103.745C57.3351 103.819 57.3617 103.857 57.4761 103.888C57.948 104.013 58.7745 103.864 59.2828 103.858C61.0056 103.836 62.7202 103.82 64.4427 103.775C65.2447 103.754 66.0627 103.763 66.8607 103.688C67.2704 103.649 67.7187 103.598 68.0784 103.39C68.1059 103.296 68.1166 103.224 68.1074 103.126C68.0306 102.311 68.1161 101.62 68.1572 100.812C68.2229 99.5182 68.3034 98.2166 68.3172 96.9212C68.3285 95.8728 68.3637 94.7873 68.2914 93.7426C68.2191 92.6991 68.0363 91.6778 68.0367 90.626C68.0375 87.7977 68.3544 84.9694 68.3892 82.1372C68.4173 79.8432 68.2568 77.5355 68.2092 75.2404C68.1676 72.7715 68.143 70.3024 68.1354 67.8331C68.1047 64.8988 68.0449 61.9557 68.0939 59.0215C68.0975 58.8121 68.0952 58.6493 68.2234 58.4739C68.2481 58.4401 68.2747 58.408 68.3004 58.375Z" fill="#FC7A00"/>
<path d="M77.1059 40.3457C77.2947 40.3622 77.4191 40.3837 77.5903 40.4754C77.695 40.6164 77.6986 40.742 77.7085 40.9111C77.7724 41.9952 77.675 43.1416 77.6561 44.2294C77.6113 46.5055 77.5949 48.7817 77.6068 51.0582L78.2312 81.2613L78.3661 90.2411C78.3867 92.8728 78.4416 95.4889 78.5744 98.1178C78.6286 99.1918 78.6574 100.275 78.7687 101.345C79.0894 101.501 80.2707 101.793 80.4404 101.99C80.5523 102.119 80.498 102.369 80.6642 102.502C80.8397 102.642 81.0749 102.648 81.2917 102.658C82.0797 102.696 82.9107 102.574 83.7015 102.542C85.7927 102.457 87.943 102.432 90.0153 102.136C90.2966 101.055 90.0342 99.7351 90.0118 98.6145C89.9992 97.4207 90.0002 96.2268 90.0149 95.033C90.0653 91.5716 90.2406 88.1258 90.2157 84.662C90.1914 81.2777 89.8502 77.8986 89.7804 74.5143C89.65 68.192 89.8732 61.8741 89.7639 55.5494L89.5903 45.5434C89.5766 44.4843 89.4351 42.496 89.5784 41.5542C89.5942 41.4509 89.6146 41.3203 89.6792 41.2345C89.773 41.1096 89.9018 41.0539 90.0566 41.0487C90.2126 41.0436 90.4061 41.1503 90.514 41.2607C90.6512 41.4011 90.6257 41.6995 90.6322 41.8856L90.7815 86.7256C90.8023 90.8924 91.216 95.0481 91.1835 99.2162C91.1738 100.447 91.214 101.742 91.0263 102.958C89.4804 103.262 78.7734 103.732 77.7819 103.195C77.6447 103.121 77.6424 103.063 77.6117 102.916C77.3641 101.73 77.4988 100.343 77.5117 99.1311C77.532 97.3247 77.5333 95.5184 77.5156 93.712L76.9476 60.9234L76.778 48.8512C76.7534 46.864 76.7265 44.8814 76.7983 42.8946C76.8225 42.2266 76.8052 41.5118 76.8927 40.8518C76.9183 40.6593 77.0034 40.5079 77.1059 40.3457Z" fill="#FC7A00"/>
<path d="M96.1464 24.209C96.3135 24.2457 96.4545 24.2741 96.5766 24.4068C96.6779 24.5172 96.729 24.6688 96.7469 24.815C96.8105 25.3358 96.7667 25.9045 96.7785 26.4306L96.8697 29.4733C96.9847 33.8558 96.9515 38.2386 97.0793 42.6203C97.2033 46.8694 97.2932 51.1177 97.5441 55.3614L97.9145 61.7379C98.124 64.9737 98.3677 68.2008 98.405 71.446C98.4524 75.5779 98.2673 79.7116 98.2244 83.8435C98.1841 87.7293 98.2864 91.6101 98.3034 95.4944C98.312 97.4422 98.1736 99.4207 98.2457 101.363C98.3749 101.525 98.467 101.638 98.6909 101.662C99.0617 101.703 99.2464 101.575 99.5286 101.35C100.237 102.031 101.433 102.335 102.374 102.541C103.751 102.844 105.182 102.249 106.527 102.077C107.447 101.959 109.164 102.102 109.898 101.599C110.098 101.462 110.189 101.335 110.189 101.087C110.19 100.597 109.944 100.101 109.934 99.5963C109.883 96.8685 109.877 94.1407 109.913 91.4128C109.972 85.3957 109.955 79.3788 109.864 73.3621C109.783 69.9844 109.569 66.6126 109.415 63.2382C109.286 60.4076 109.227 57.5693 109.133 54.7371C109.045 52.0654 109.109 49.3897 109.015 46.7173C108.935 44.4383 108.664 42.1785 108.563 39.905C108.495 38.3657 108.526 36.8109 108.508 35.2695C108.485 33.4158 108.419 31.5625 108.379 29.709C108.351 28.4659 108.121 25.894 108.364 24.8555C108.422 24.6073 108.525 24.5273 108.732 24.4046C108.942 24.4411 109.156 24.4828 109.296 24.6593C109.411 24.8042 109.423 25.0669 109.434 25.2448C109.507 26.3781 109.47 27.5384 109.497 28.676L109.715 37.2525C110.164 48.3667 110.437 59.4852 110.535 70.608C110.65 78.3403 110.958 86.0748 110.955 93.8077C110.955 95.9184 111.029 98.0531 110.947 100.161C110.916 100.932 110.756 101.67 110.597 102.423C109.357 102.553 108.127 102.73 106.882 102.801C105.568 102.876 104.256 102.844 102.942 102.891C101.318 102.948 99.5321 103.101 97.927 102.837C97.8945 102.68 97.8668 102.523 97.8437 102.364C97.6684 101.197 97.6776 100.004 97.6323 98.8276C97.5838 97.5672 97.5204 96.3104 97.4875 95.049C97.3437 89.5465 97.3901 84.0408 97.2502 78.5388L97.0353 70.8482C96.9776 67.965 96.9714 65.0808 96.8719 62.1986L96.4238 52.0523C96.2026 45.1895 96.0232 38.3256 95.8856 31.4606C95.8642 29.9301 95.8725 28.3997 95.9104 26.8695C95.9222 26.1402 95.8725 25.3492 95.9712 24.6284C95.9947 24.4568 96.0441 24.3475 96.1464 24.209Z" fill="#FC7A00"/>
</svg>
