<svg width="32" height="37" viewBox="0 0 32 37" fill="none" xmlns="http://www.w3.org/2000/svg">
<g clip-path="url(#clip0_2429_2284)">
<path d="M30.5833 7.84598C30.9722 8.2314 31.3056 8.75446 31.5833 9.41518C31.8611 10.0759 32 10.6815 32 11.2321V35.0179C32 35.5685 31.8056 36.0365 31.4167 36.4219C31.0278 36.8073 30.5556 37 30 37H2C1.44444 37 0.972222 36.8073 0.583333 36.4219C0.194444 36.0365 0 35.5685 0 35.0179V1.98214C0 1.43155 0.194444 0.963542 0.583333 0.578125C0.972222 0.192708 1.44444 0 2 0H20.6667C21.2222 0 21.8333 0.137649 22.5 0.412946C23.1667 0.688244 23.6944 1.0186 24.0833 1.40402L30.5833 7.84598ZM21.3333 2.80804V10.5714H29.1667C29.0278 10.1722 28.875 9.89007 28.7083 9.72489L22.1875 3.26228C22.0208 3.0971 21.7361 2.94568 21.3333 2.80804ZM29.3333 34.3571V13.2143H20.6667C20.1111 13.2143 19.6389 13.0216 19.25 12.6362C18.8611 12.2507 18.6667 11.7827 18.6667 11.2321V2.64286H2.66667V34.3571H29.3333ZM18.625 22.1133C19.0833 22.4712 19.6667 22.8566 20.375 23.2695C21.1944 23.1732 22.0069 23.125 22.8125 23.125C24.8542 23.125 26.0833 23.4622 26.5 24.1367C26.7222 24.4395 26.7361 24.7974 26.5417 25.2104C26.5417 25.2241 26.5347 25.2379 26.5208 25.2517L26.4792 25.293V25.3136C26.3958 25.8367 25.9028 26.0982 25 26.0982C24.3333 26.0982 23.5347 25.9606 22.6042 25.6853C21.6736 25.41 20.7708 25.0452 19.8958 24.591C16.8264 24.9213 14.1042 25.4926 11.7292 26.3047C9.60417 29.9111 7.92361 31.7143 6.6875 31.7143C6.47917 31.7143 6.28472 31.6661 6.10417 31.5698L5.60417 31.322C5.59028 31.3082 5.54861 31.2738 5.47917 31.2188C5.34028 31.0811 5.29861 30.8333 5.35417 30.4754C5.47917 29.9249 5.86806 29.2951 6.52083 28.5862C7.17361 27.8773 8.09028 27.2132 9.27083 26.5938C9.46528 26.4699 9.625 26.5112 9.75 26.7176C9.77778 26.7452 9.79167 26.7727 9.79167 26.8002C10.5139 25.6302 11.2569 24.2744 12.0208 22.7327C12.9653 20.8607 13.6875 19.0575 14.1875 17.3231C13.8542 16.1944 13.6424 15.0966 13.5521 14.0299C13.4618 12.9631 13.5069 12.0856 13.6875 11.3973C13.8403 10.8467 14.1319 10.5714 14.5625 10.5714H15.0208C15.3403 10.5714 15.5833 10.6747 15.75 10.8811C16 11.1702 16.0625 11.6382 15.9375 12.2852C15.9097 12.3677 15.8819 12.4228 15.8542 12.4503C15.8681 12.4916 15.875 12.5467 15.875 12.6155V13.2349C15.8472 14.928 15.75 16.2494 15.5833 17.1992C16.3472 19.4567 17.3611 21.0947 18.625 22.1133ZM6.625 30.5993C7.34722 30.269 8.29861 29.1815 9.47917 27.3371C8.77083 27.8876 8.16319 28.4658 7.65625 29.0714C7.14931 29.6771 6.80556 30.1864 6.625 30.5993ZM14.9167 11.6038C14.7083 12.1819 14.6944 13.0904 14.875 14.3292C14.8889 14.2329 14.9375 13.9301 15.0208 13.4208C15.0208 13.3795 15.0694 13.0835 15.1667 12.5329C15.1806 12.4779 15.2083 12.4228 15.25 12.3677C15.2361 12.354 15.2292 12.3402 15.2292 12.3265C15.2153 12.2989 15.2083 12.2783 15.2083 12.2645C15.1944 11.9617 15.1042 11.7139 14.9375 11.5212C14.9375 11.535 14.9306 11.5487 14.9167 11.5625V11.6038ZM12.3333 25.2517C14.2083 24.5084 16.1806 23.9509 18.25 23.5792C18.2222 23.5655 18.1319 23.5001 17.9792 23.3831C17.8264 23.2661 17.7153 23.1732 17.6458 23.1044C16.5903 22.1821 15.7083 20.9708 15 19.4704C14.625 20.6542 14.0486 22.01 13.2708 23.5379C12.8542 24.3088 12.5417 24.88 12.3333 25.2517ZM25.7917 24.9213C25.4583 24.591 24.4861 24.4258 22.875 24.4258C23.9306 24.8112 24.7917 25.0039 25.4583 25.0039C25.6528 25.0039 25.7778 24.997 25.8333 24.9833C25.8333 24.9695 25.8194 24.9488 25.7917 24.9213Z" fill="#FE8A8A"/>
</g>
<defs>
<clipPath id="clip0_2429_2284">
<rect width="32" height="37" fill="white"/>
</clipPath>
</defs>
</svg>
