<svg width="44" height="44" viewBox="0 0 44 44" fill="none" xmlns="http://www.w3.org/2000/svg">
<path d="M16.4997 9.16725C16.0134 9.16725 15.5471 9.36041 15.2033 9.70422C14.8595 10.048 14.6663 10.5144 14.6663 11.0006C14.6663 11.4868 14.8595 11.9531 15.2033 12.2969C15.5471 12.6408 16.0134 12.8339 16.4997 12.8339C16.9859 12.8339 17.4522 12.6408 17.796 12.2969C18.1399 11.9531 18.333 11.4868 18.333 11.0006C18.333 10.5144 18.1399 10.048 17.796 9.70422C17.4522 9.36041 16.9859 9.16725 16.4997 9.16725ZM11.3113 9.16725C11.6901 8.09378 12.3925 7.16421 13.3218 6.5067C14.251 5.84919 15.3613 5.49609 16.4997 5.49609C17.638 5.49609 18.7483 5.84919 19.6776 6.5067C20.6068 7.16421 21.3092 8.09378 21.688 9.16725H34.833C35.3192 9.16725 35.7856 9.36041 36.1294 9.70422C36.4732 10.048 36.6663 10.5144 36.6663 11.0006C36.6663 11.4868 36.4732 11.9531 36.1294 12.2969C35.7856 12.6408 35.3192 12.8339 34.833 12.8339H21.688C21.3092 13.9074 20.6068 14.837 19.6776 15.4945C18.7483 16.152 17.638 16.5051 16.4997 16.5051C15.3613 16.5051 14.251 16.152 13.3218 15.4945C12.3925 14.837 11.6901 13.9074 11.3113 12.8339H9.16634C8.68011 12.8339 8.2138 12.6408 7.86998 12.2969C7.52616 11.9531 7.33301 11.4868 7.33301 11.0006C7.33301 10.5144 7.52616 10.048 7.86998 9.70422C8.2138 9.36041 8.68011 9.16725 9.16634 9.16725H11.3113ZM27.4997 20.1673C27.0134 20.1673 26.5471 20.3604 26.2033 20.7042C25.8595 21.048 25.6663 21.5144 25.6663 22.0006C25.6663 22.4868 25.8595 22.9531 26.2033 23.2969C26.5471 23.6408 27.0134 23.8339 27.4997 23.8339C27.9859 23.8339 28.4522 23.6408 28.796 23.2969C29.1399 22.9531 29.333 22.4868 29.333 22.0006C29.333 21.5144 29.1399 21.048 28.796 20.7042C28.4522 20.3604 27.9859 20.1673 27.4997 20.1673ZM22.3113 20.1673C22.6901 19.0938 23.3925 18.1642 24.3218 17.5067C25.251 16.8492 26.3613 16.4961 27.4997 16.4961C28.638 16.4961 29.7483 16.8492 30.6776 17.5067C31.6068 18.1642 32.3092 19.0938 32.688 20.1673H34.833C35.3192 20.1673 35.7856 20.3604 36.1294 20.7042C36.4732 21.048 36.6663 21.5144 36.6663 22.0006C36.6663 22.4868 36.4732 22.9531 36.1294 23.2969C35.7856 23.6408 35.3192 23.8339 34.833 23.8339H32.688C32.3092 24.9074 31.6068 25.837 30.6776 26.4945C29.7483 27.152 28.638 27.5051 27.4997 27.5051C26.3613 27.5051 25.251 27.152 24.3218 26.4945C23.3925 25.837 22.6901 24.9074 22.3113 23.8339H9.16634C8.68011 23.8339 8.2138 23.6408 7.86998 23.2969C7.52616 22.9531 7.33301 22.4868 7.33301 22.0006C7.33301 21.5144 7.52616 21.048 7.86998 20.7042C8.2138 20.3604 8.68011 20.1673 9.16634 20.1673H22.3113ZM16.4997 31.1673C16.0134 31.1673 15.5471 31.3604 15.2033 31.7042C14.8595 32.048 14.6663 32.5144 14.6663 33.0006C14.6663 33.4868 14.8595 33.9531 15.2033 34.297C15.5471 34.6408 16.0134 34.8339 16.4997 34.8339C16.9859 34.8339 17.4522 34.6408 17.796 34.297C18.1399 33.9531 18.333 33.4868 18.333 33.0006C18.333 32.5144 18.1399 32.048 17.796 31.7042C17.4522 31.3604 16.9859 31.1673 16.4997 31.1673ZM11.3113 31.1673C11.6901 30.0938 12.3925 29.1642 13.3218 28.5067C14.251 27.8492 15.3613 27.4961 16.4997 27.4961C17.638 27.4961 18.7483 27.8492 19.6776 28.5067C20.6068 29.1642 21.3092 30.0938 21.688 31.1673H34.833C35.3192 31.1673 35.7856 31.3604 36.1294 31.7042C36.4732 32.048 36.6663 32.5144 36.6663 33.0006C36.6663 33.4868 36.4732 33.9531 36.1294 34.297C35.7856 34.6408 35.3192 34.8339 34.833 34.8339H21.688C21.3092 35.9074 20.6068 36.837 19.6776 37.4945C18.7483 38.152 17.638 38.5051 16.4997 38.5051C15.3613 38.5051 14.251 38.152 13.3218 37.4945C12.3925 36.837 11.6901 35.9074 11.3113 34.8339H9.16634C8.68011 34.8339 8.2138 34.6408 7.86998 34.297C7.52616 33.9531 7.33301 33.4868 7.33301 33.0006C7.33301 32.5144 7.52616 32.048 7.86998 31.7042C8.2138 31.3604 8.68011 31.1673 9.16634 31.1673H11.3113Z" fill="#0A2249"/>
</svg>
