<svg width="120" height="120" viewBox="0 0 120 120" fill="none" xmlns="http://www.w3.org/2000/svg">
<path d="M35.036 31.4473L35.2007 31.4854L35.2526 31.5957C35.1718 32.0982 34.4009 32.8757 34.0347 33.2173C33.8813 33.1466 33.8721 33.1608 33.8076 33.0011C33.9253 32.4771 34.6743 31.8355 35.036 31.4473Z" fill="#0275A6"/>
<path d="M95.1298 29.3105L95.3374 29.3804L95.3905 29.508C95.2462 30.0942 94.3663 30.8363 93.9818 31.3123L93.8257 31.2739C93.7677 31.2182 93.7127 31.2025 93.7217 31.1101C93.7566 30.7504 94.8428 29.6403 95.1298 29.3105Z" fill="#0275A6"/>
<path d="M28.3915 32.3105C28.5534 32.4002 28.5874 32.3947 28.6576 32.5689C28.5618 33.1998 27.7264 34.0942 27.3537 34.6255C27.1881 34.5503 27.1784 34.5613 27.1016 34.3926C27.1833 33.8093 28.0014 32.7483 28.3915 32.3105Z" fill="#0275A6"/>
<path d="M94.9014 27.3945C95.0143 27.4925 95.0363 27.5055 95.0813 27.65C94.9222 28.2141 93.6339 29.4784 93.2032 29.9808C93.1121 29.9319 93.0753 29.8847 93.0078 29.8061L93.0182 29.6259C93.3812 28.9742 94.3112 27.8459 94.9014 27.3945Z" fill="#0275A6"/>
<path d="M35.0059 28.3845C35.0184 28.389 35.0314 28.392 35.0431 28.3981C35.1842 28.472 35.1907 28.482 35.2369 28.633C35.0639 29.3075 33.7024 30.5534 33.1266 30.962C32.9978 30.8865 32.9809 30.87 32.9067 30.7359C32.9932 30.496 34.6886 28.7544 35.0059 28.3845Z" fill="#0275A6"/>
<path d="M108.814 10.6094C108.956 10.6285 109.06 10.6304 109.181 10.7177C109.313 10.8136 109.334 11.0468 109.352 11.2017C109.475 12.2678 109.402 13.4459 109.42 14.5251C109.475 16.9496 109.513 19.3744 109.535 21.7995C109.605 25.6445 109.653 29.4898 109.68 33.3354C109.698 35.2904 109.819 37.3246 109.699 39.2718C109.683 39.5413 109.607 39.6186 109.454 39.8259C109.318 39.795 109.209 39.7414 109.084 39.6804C108.979 39.5505 108.954 39.4587 108.942 39.2936C108.893 38.5775 108.917 37.8339 108.902 37.1146C108.856 34.9027 108.867 32.6894 108.837 30.4771L108.569 12.128C108.561 11.6252 108.461 10.9933 108.814 10.6094Z" fill="#0275A6"/>
<path d="M84.9425 11.6556C88.314 11.5639 91.7007 11.6297 95.0739 11.6384L98.6966 11.6612C99.3443 11.6644 100.032 11.6188 100.676 11.6836C100.959 11.712 101.21 11.7513 101.4 11.9903C101.407 12.1375 101.408 12.1925 101.311 12.315C101.241 12.4033 101.129 12.5004 101.02 12.5285C100.509 12.6607 97.9306 12.5508 97.2032 12.5504C77.3205 12.5416 57.4381 12.6412 37.5559 12.8494C36.1882 12.8973 21.7214 13.1292 21.6672 13.1064C21.5079 13.0395 21.368 12.8905 21.3063 12.7225C21.2688 12.6201 21.3055 12.587 21.3403 12.4921C21.5986 12.2698 21.8772 12.234 22.2033 12.2109C23.25 12.1366 24.3288 12.2018 25.3795 12.1909L30.883 12.0976L44.0534 11.9612L84.9425 11.6556Z" fill="#FC7A00"/>
<path d="M69.7271 13.7139C76.8358 13.6228 83.9539 13.7638 91.0635 13.7884C92.1849 13.7922 101.02 13.7419 101.336 13.8696C101.479 13.9274 101.54 14.0233 101.563 14.1797C101.586 14.3405 101.504 14.4691 101.418 14.5872C100.67 14.7375 98.9095 14.6068 98.0728 14.5996C95.4778 14.5676 92.8828 14.5532 90.2878 14.5565C90.4151 16.56 90.4158 18.58 90.4336 20.5872L90.4835 30.1992L90.5507 36.4909C90.5571 37.3142 90.648 38.2228 90.5768 39.0331C90.5571 39.2577 90.4187 39.4811 90.2463 39.6104C90.1542 39.6795 90.1811 39.6578 90.0596 39.6358C89.8652 39.3984 89.8367 39.0498 89.8164 38.7475C89.7644 37.9779 89.8125 37.1805 89.8073 36.407L89.7794 30.8793L89.7081 14.5378C85.0463 14.4892 80.3845 14.4883 75.7226 14.535C75.695 16.5207 75.7977 18.5189 75.8151 20.5061L75.9039 32.0385C75.9188 32.9297 76.1268 37.6165 75.9848 38.1651C75.94 38.3382 75.8542 38.3573 75.716 38.4444C75.6361 38.4327 75.5803 38.4452 75.5223 38.3782C75.3569 38.1872 75.334 37.8766 75.3148 37.6321C75.2661 37.0143 75.299 36.3791 75.2869 35.7587C75.247 33.7308 75.2493 31.7053 75.2286 29.6774L75.0665 14.5302L61.198 14.4792C61.3013 15.3168 61.4918 17.7829 61.3673 18.5597C61.338 18.742 61.2492 18.8107 61.1183 18.9176C60.952 18.9294 60.9415 18.9329 60.8014 18.8402C60.4613 18.2744 60.5324 15.3135 60.5017 14.4759C59.5446 14.4653 58.5863 14.4783 57.629 14.48C53.8142 14.4817 49.9995 14.5138 46.1851 14.5763L46.2095 28.3667L46.2298 32.267C46.2352 32.7213 46.3264 33.2527 46.2797 33.6951C46.259 33.8912 46.1487 34.0877 45.9974 34.2004C45.8964 34.2759 45.8826 34.2482 45.7707 34.2314C45.575 34.0241 45.5617 33.5581 45.5475 33.2774C45.498 32.2884 45.5304 31.2838 45.5318 30.2932C45.5303 28.407 45.5421 26.521 45.5671 24.635C45.5748 21.2859 45.5644 17.9368 45.5357 14.5878C40.6644 14.5766 35.7933 14.5953 30.9222 14.6439C31.0846 16.5695 31.3612 40.7617 31.2098 41.2139C31.157 41.372 31.1041 41.417 30.9635 41.4819C30.8617 41.4556 30.7742 41.4563 30.6983 41.3738C30.5867 41.2525 30.5556 41.1135 30.5454 40.9506C30.4795 39.9008 30.5353 38.8149 30.5238 37.7608L30.434 32.4215L30.2961 14.6623C28.7786 14.6682 19.4732 14.8682 19.0104 14.6932C18.8747 14.642 18.8338 14.5468 18.7738 14.4182C18.7755 14.3226 18.7484 14.2594 18.8251 14.1926C19.0198 14.0232 19.3533 13.9908 19.5956 13.9696C20.9903 13.8473 22.7001 13.9348 24.1346 13.9076C28.1345 13.8288 32.1348 13.7963 36.1355 13.8101C43.7236 13.8435 51.3115 13.8219 58.8992 13.7452C62.5079 13.7314 66.1191 13.7711 69.7271 13.7139Z" fill="#FC7A00"/>
<path d="M63.4669 22.4245C63.4935 22.4243 63.5203 22.4233 63.5468 22.4242C63.7537 22.432 63.8444 22.4744 63.9821 22.636C64.0193 22.7534 64.0315 22.8217 64.0079 22.9462C63.9467 23.2707 61.945 26.9136 61.7149 27.2654C61.5857 27.4628 61.4718 27.6186 61.2706 27.7344C60.4169 27.526 59.5422 26.8265 58.7563 26.4092C57.9386 27.6569 57.3096 29.0705 56.4172 30.2584C55.6795 29.9888 54.9848 29.4366 54.2989 29.0401C53.5939 30.3614 51.9611 33.7931 51.1126 34.73C51.103 35.4294 51.0843 39.7374 51.1859 40.1862C51.2091 40.2892 51.2635 40.2938 51.3432 40.3466C51.5145 40.3511 51.5838 40.3394 51.7287 40.2419C51.9654 38.719 51.5005 36.6652 51.7377 35.0295L51.7518 34.9354C52.2198 34.9238 53.1193 34.7937 53.4866 35.1399C53.6317 35.2767 53.6952 35.4393 53.7225 35.6373C53.7774 36.0349 53.7077 36.5022 53.6953 36.9074C53.667 37.8331 53.6303 38.8734 53.6915 39.797C53.7067 40.0263 53.7238 40.1688 53.8899 40.3235L54.0181 40.2885C54.1916 39.7691 54.0046 33.6736 54.0307 32.6089C54.0358 32.4039 54.0248 32.1765 54.1682 32.0307C54.6162 31.8931 55.3503 31.8732 55.8078 31.9791C55.9857 32.0204 56.089 32.1413 56.1536 32.314C56.3137 32.7423 56.2239 33.5848 56.227 34.0515L56.2621 38.5027C56.2655 38.9528 56.1908 39.4371 56.224 39.8793C56.232 39.9847 56.2686 40.0648 56.3165 40.1553C56.4602 40.2654 56.5287 40.2794 56.7055 40.2826C56.908 39.9835 56.5928 33.2384 56.8219 32.1331C56.9374 31.9783 57.0627 31.9214 57.2411 31.8765C57.5559 31.7974 58.4217 31.7229 58.683 31.9364C59.0312 32.2209 58.873 38.2993 58.8568 39.2397C58.8524 39.4973 58.7951 40.0539 58.9571 40.2306C59.1341 40.244 59.2561 40.2505 59.4299 40.1998C59.5206 40.1062 59.5649 40.028 59.5847 39.8936C59.6504 39.4452 59.5901 38.8902 59.5898 38.4332C59.5889 37.3879 59.4529 31.503 59.6733 31.0645C59.8397 30.9316 59.9687 30.8913 60.178 30.8779C60.5496 30.854 61.1887 30.782 61.4824 31.0536C61.8335 31.7388 61.5569 38.291 61.6684 39.7639C61.6882 40.026 61.7124 40.1576 61.8966 40.33C61.9183 40.3139 61.9429 40.3016 61.9615 40.2819C62.2726 39.9548 62.2072 39.4249 62.1959 39.0059L62.268 28.4084C62.6309 28.3244 62.9812 28.2721 63.3536 28.2645C63.7229 28.257 64.0385 28.286 64.3109 28.5655C64.4847 29.59 64.3506 31.2507 64.3453 32.3342C64.3245 34.9604 64.3257 37.5865 64.3487 40.2126L66.2116 40.1955C66.2197 40.0552 66.2227 39.907 66.2477 39.7688C66.2816 39.5816 66.3321 39.5208 66.4783 39.419C66.6453 39.431 66.6906 39.4213 66.8233 39.5235C67.0327 40.2385 67.3218 39.9904 67.619 40.479C67.6288 40.4947 67.6377 40.511 67.6457 40.5279C67.6538 40.5448 67.6609 40.562 67.667 40.5797C67.6732 40.5975 67.6783 40.6156 67.6825 40.6339C67.6867 40.6522 67.69 40.6707 67.6921 40.6894C67.6943 40.7081 67.6955 40.727 67.6955 40.7458C67.6957 40.7647 67.6948 40.7835 67.6929 40.8022C67.691 40.821 67.6881 40.8396 67.6842 40.858C67.6802 40.8764 67.6753 40.8945 67.6694 40.9123C67.5855 41.1665 67.2056 41.4812 66.9709 41.5676C66.8242 41.6215 66.691 41.6134 66.5573 41.5252C66.3759 41.4059 66.3268 41.1459 66.269 40.9448L55.2509 41.068L52.3321 41.0967C51.623 41.1102 50.9001 41.1655 50.1929 41.0997C50.0921 41.0028 50.0866 40.9755 50.0469 40.8362C50.0829 40.5945 50.226 40.4166 50.3549 40.2201L50.2169 31.7116C50.1986 29.2736 50.2624 26.4585 50.0819 24.0605C49.8272 24.083 49.6184 24.0593 49.3852 23.9487C49.2853 23.8214 49.2311 23.7527 49.2544 23.5715C49.3279 22.9969 49.9102 23.4466 50.0972 23.1797C50.254 22.9558 50.1847 22.7734 50.4543 22.6106C51.0014 22.6693 50.698 23.0746 51.0268 23.3356C51.1614 23.3542 51.2757 23.372 51.4017 23.4263C51.423 23.4875 51.4359 23.5115 51.4368 23.5836C51.4391 23.7639 51.3545 23.8811 51.2449 24.0035C51.1029 24.0334 50.9775 24.0537 50.8482 24.1256C50.6921 24.6498 50.9498 32.204 50.9744 33.566C51.6121 32.4842 53.3486 28.6423 54.0817 28.0323C54.4291 28.007 55.7761 29.0146 56.1574 29.2301C56.6075 28.5571 58.0623 25.6832 58.5988 25.4147C58.7353 25.3465 60.7165 26.5041 61.0387 26.6685C61.3881 26.0103 61.7972 25.3864 62.161 24.7365C62.5919 23.9665 62.9776 23.1545 63.4669 22.4245Z" fill="#FC7A00"/>
<path d="M57.6111 92.8948C57.7889 92.8931 57.9042 92.895 58.0573 93.0098C58.5363 93.3689 58.7919 95.3883 58.9072 95.9977C62.6519 96.1487 66.4154 96.1547 70.1634 96.1809C71.487 96.1902 73.2963 96.0237 74.5486 96.1608C74.9458 96.2042 75.3535 96.3103 75.6543 96.6034C75.8534 96.7975 75.991 97.0439 76.1045 97.3007C76.4758 98.14 77.678 102.134 77.6827 103C77.6836 103.153 77.6663 103.359 77.5449 103.461C77.2519 103.71 76.7388 103.804 76.3703 103.861C74.6352 104.134 72.7513 104.1 70.9961 104.173C66.3297 104.362 61.6619 104.41 56.9928 104.319C55.3729 104.289 53.6397 104.312 52.039 104.061C51.6577 104.001 51.2368 103.899 50.9961 103.558C50.7957 102.724 51.605 101.472 51.9704 100.737C49.9277 101.16 47.8535 101.432 45.7986 101.781C44.1695 102.057 42.516 102.452 40.8717 102.594C40.5545 102.622 40.2323 102.642 39.9305 102.516C39.7279 102.431 39.4712 102.227 39.4154 101.991C39.2552 101.314 40.7974 96.6333 41.1543 95.7799C41.8405 95.5315 42.6551 95.4778 43.3754 95.3621L47.3769 94.7108C50.7922 94.1408 54.1909 93.4236 57.6111 92.8948Z" fill="#0275A6"/>
<path d="M57.4856 93.7012C57.559 93.7095 57.6176 93.699 57.6759 93.7547C58.038 94.0996 58.1406 95.4381 58.2216 95.9643C57.2929 95.931 56.1387 95.7685 55.2367 95.9861C54.8791 96.0724 54.5836 96.2424 54.3317 96.5244C53.8793 97.0308 52.847 99.1848 52.3829 99.9651C50.9472 100.106 49.5117 100.394 48.0864 100.627C45.7324 101.018 43.3761 101.393 41.0175 101.751C40.7399 101.788 40.4552 101.776 40.1758 101.777C40.578 99.9949 41.1903 98.2189 41.7123 96.4691C44.9188 95.9223 48.1225 95.3585 51.3235 94.7777C53.3574 94.4017 55.4331 93.9022 57.4856 93.7012Z" fill="#FEFEFE"/>
<path d="M55.5308 96.685C56.8172 96.6398 58.1312 96.7229 59.419 96.761C61.4137 96.8223 63.4087 96.8668 65.404 96.8946C67.5284 96.9205 69.6529 96.9309 71.7773 96.9257C72.6091 96.9194 73.4542 96.8266 74.2834 96.8542C74.5411 96.8627 74.85 96.9075 75.0687 97.0641C75.7664 97.5646 76.8502 101.988 77.0241 102.989C75.7231 103.275 74.2985 103.272 72.9715 103.306C70.3859 103.509 67.7547 103.471 65.1614 103.514C60.6688 103.588 56.1263 103.675 51.6465 103.276C52.1621 101.679 53.1356 100.16 53.932 98.7066C54.2525 98.1214 54.5438 97.4648 54.9254 96.9226C55.0914 96.6868 55.2771 96.7178 55.5308 96.685Z" fill="#FEFEFE"/>
<path d="M15.4071 10C15.5338 10.0203 15.7091 10.0299 15.8036 10.1199C15.9956 10.3032 16.0367 10.6136 16.0565 10.8728C16.1155 11.6421 16.0632 12.4481 16.08 13.2235C16.127 15.2769 16.1636 17.3306 16.1896 19.3844C16.2912 26.7411 16.2401 34.1034 16.4233 41.4581C16.6503 41.5025 16.8757 41.5543 17.0996 41.6136C18.9419 42.1137 20.4945 43.699 21.4446 45.386C23.7735 49.5206 21.4078 53.1693 21.9944 57.2665C22.4079 60.1552 24.4328 61.8689 23.6777 65.0442C24.184 66.1105 24.8552 67.1962 25.5118 68.1665C26.7647 67.7332 28.0217 67.3586 29.2956 67.0015C29.4689 65.2208 29.7187 63.4705 29.9988 61.7056C30.2474 60.1381 30.4908 58.617 30.9521 57.0979C31.34 55.8205 31.9145 54.2136 32.9476 53.3523C33.2662 53.0866 33.6443 52.8986 34.0038 52.703C33.1294 52.3713 32.2227 52.0546 31.6172 51.2609C31.5224 51.1368 31.4378 51.003 31.384 50.8535C31.199 50.3387 31.5266 49.7808 31.8523 49.4143C32.1378 49.093 32.4843 48.8114 32.7305 48.4543C33.2111 47.7566 32.7765 47.0092 32.6379 46.2644C32.5653 45.8752 32.5585 45.5017 32.5933 45.1085C32.7977 42.8087 34.4517 39.0424 36.1473 37.5722C36.91 36.9111 37.7678 36.5715 38.7628 36.673C39.6664 36.7653 40.4247 36.4355 41.3403 36.7158C42.152 36.9642 42.8653 37.4805 43.4548 38.1088C45.3433 40.122 45.1431 41.8895 45.3823 44.4622C45.4728 45.4375 45.6908 46.4113 45.9864 47.3395C46.3235 48.3985 46.9772 48.5196 47.3987 49.3784C47.6222 49.8342 47.696 50.3302 47.5239 50.8193C47.1498 51.8825 45.9923 52.4536 45.0926 52.9139C46.9619 54.0814 47.8309 57.6713 48.7667 59.7078C49.4185 61.1265 50.1812 62.4944 51.1733 63.6809C52.8582 63.7179 54.4656 63.7673 56.1323 64.066C55.9654 63.4371 55.4483 62.123 55.7166 61.5168C55.7711 61.3939 55.8037 61.3814 55.9285 61.3384C56.5311 61.1306 64.7321 61.1172 65.8926 61.2144C66.1935 61.2396 66.5141 61.2809 66.7823 61.4322C67.1713 62.1801 67.6508 65.6962 67.8555 66.777C69.2905 66.3382 70.5533 65.2209 72.0201 64.9339C72.4973 63.6652 72.8182 62.3342 73.2721 61.0553C73.6849 59.8921 74.2213 58.7967 74.6541 57.6501C74.8389 57.1602 74.8927 56.6183 75.0906 56.1345C75.5565 54.9954 76.4457 54.6461 77.4614 54.246C77.7476 53.7548 78.3425 53.336 78.4618 52.7723C78.4079 52.65 78.4118 52.6163 78.2728 52.5913C78.0574 52.5528 77.7509 52.6367 77.5297 52.6592C76.5394 52.7591 75.5092 52.7923 74.6651 52.1383C74.0284 51.645 73.7254 50.9207 73.6064 50.1179C73.2746 47.8794 74.5209 41.8948 75.8499 40.0784C76.6382 39.0011 77.9279 38.3583 79.1943 38.2185C80.9787 38.0216 82.9822 38.8182 84.3441 40.0099C85.5945 41.1041 86.4076 42.6091 86.3492 44.351C86.3228 45.1384 86.2214 45.9305 86.4011 46.7064C86.6519 47.7885 87.348 48.6323 87.4337 49.792C87.493 50.594 87.2889 51.3324 86.7846 51.9423C86.2795 52.5532 85.6517 52.8437 84.8896 52.8799C83.5004 52.946 82.8725 52.1905 81.9567 51.284C81.8916 51.5057 81.9332 51.7795 81.9442 52.0097C82.2567 52.1892 83.7932 53.1644 83.9923 53.3844C84.2861 53.7093 84.4897 54.1745 84.8399 54.4351C85.2088 54.7095 85.7053 54.7522 86.0634 55.0627C86.9947 55.8699 87.0908 57.9275 87.1883 59.1044C88.2958 59.5623 90.0684 59.9777 90.7027 61.0909C91.0505 61.7013 91.2228 62.428 91.2714 63.1334C91.4105 65.1573 90.9342 67.3645 90.5112 69.3278C89.847 72.41 88.9797 75.414 88.2393 78.4714L88.9407 79.261C89.2382 78.0401 89.4822 76.8045 89.7857 75.5851C90.338 73.4332 90.9393 71.2967 91.5898 69.1754C91.9867 67.8656 92.3501 66.3444 93.0678 65.1897C93.5098 64.4784 94.0532 63.8572 94.6686 63.3085C95.0834 62.9388 96.1525 62.3297 96.3914 61.8985L96.3022 61.79C95.9901 61.7831 95.721 62.1668 95.4185 62.2549C94.4706 62.5316 94.6666 61.4723 94.2611 61.2245C94.2347 61.2496 94.2087 61.2749 94.1822 61.2996C94.0798 61.3945 93.95 61.4771 93.8087 61.4521C93.3979 61.3794 93.0743 60.9256 92.8647 60.5778L92.8127 60.4908C92.515 60.6817 92.0697 60.9386 91.7111 60.9357C91.067 60.9304 91.3203 59.9727 91.0773 59.6559C90.9758 59.5237 90.5251 59.4083 90.351 59.2347C90.1648 58.8436 90.3001 58.4651 90.3867 58.0641C90.3376 57.8731 90.23 57.7313 90.094 57.5982C90.0715 57.5763 90.0486 57.5551 90.0264 57.5331C89.7554 57.264 89.7979 56.9052 89.783 56.5402C89.8727 56.3528 89.9707 56.1688 90.065 55.9838C89.7558 55.7779 89.3803 55.4991 89.2195 55.1382C89.0201 54.6906 89.4092 54.4167 89.5396 54.0324C89.5808 53.9108 89.5899 53.884 89.5404 53.7638C89.3918 53.6828 89.186 53.5897 89.0643 53.4674C88.88 53.2821 88.807 52.8688 88.8066 52.6127C88.8059 52.0068 88.9985 51.5097 89.3909 51.0769C88.3583 49.6673 89.3486 49.8548 89.3377 49.1567C89.0923 48.8562 88.9383 48.6517 88.8711 48.2569C88.821 47.9622 88.8715 47.6779 89.0491 47.4401C89.3778 46.9999 89.8035 46.9451 90.2937 46.8965C90.1484 46.4802 89.9994 46.0812 90.0009 45.63C90.0018 45.3645 90.0492 45.1247 90.2479 44.943C90.5715 44.6468 91.2374 44.7963 91.6252 44.8267C91.844 44.5301 91.738 43.9053 91.865 43.5274C91.9409 43.3022 92.07 43.1138 92.2879 43.0215C92.7418 42.8292 93.3698 43.0395 93.7918 43.2371C93.8265 43.021 93.8567 42.7984 93.9082 42.5857C94.0095 42.1678 94.2762 41.7307 94.6412 41.519C94.8959 41.3711 95.1885 41.3424 95.4629 41.448C96.0127 41.6596 96.2308 42.2119 96.4504 42.7304C96.749 42.1185 97.0739 41.3455 97.7445 41.1033C98.8524 40.7035 98.8734 42.6117 99.4214 42.9104C99.5606 42.8129 99.6311 42.6946 99.7272 42.556C100.043 42.1013 100.391 41.7728 100.949 41.7015C101.276 41.6598 101.582 41.7577 101.829 41.9892C102.257 42.3916 102.306 42.8036 102.32 43.3691C102.357 43.3362 102.395 43.3037 102.433 43.2715C102.851 42.9204 103.368 42.5869 103.928 42.6769C104.172 42.7161 104.386 42.8464 104.526 43.0626C104.854 43.5698 104.687 44.1735 104.573 44.7203C104.704 44.6235 104.836 44.5313 104.979 44.4557C105.404 44.2311 105.942 44.0711 106.407 44.2614C106.639 44.3564 106.813 44.5318 106.903 44.7767C107.085 45.2767 106.894 45.7359 106.714 46.1973C106.876 46.1921 107.055 46.1766 107.213 46.2105C107.454 46.2621 107.82 46.462 107.949 46.6867C108.304 47.307 107.705 48.04 107.613 48.6309C107.609 48.6532 107.602 48.7801 107.606 48.7884C107.618 48.8158 108.564 49.2895 108.772 49.5874C108.896 49.7665 108.953 49.9667 108.918 50.1872C108.828 50.7448 108.306 51.1745 107.888 51.4676C108.038 51.5352 108.193 51.6021 108.321 51.7109C108.51 51.8708 108.632 52.1322 108.65 52.3849C108.693 52.9606 108.284 53.4338 107.951 53.8338C108.045 53.9577 108.144 54.0832 108.219 54.2216C108.237 54.2545 108.254 54.2884 108.269 54.3231C108.284 54.3579 108.297 54.3934 108.308 54.4296C108.32 54.4657 108.329 54.5024 108.337 54.5397C108.345 54.5769 108.351 54.6145 108.355 54.6524C108.359 54.6902 108.362 54.7281 108.362 54.7663C108.363 54.8044 108.361 54.8425 108.358 54.8805C108.355 54.9184 108.35 54.9561 108.343 54.9936C108.336 55.031 108.327 55.068 108.316 55.1044C108.14 55.7299 107.545 56.1223 107.037 56.4266C107.154 56.5771 107.273 56.7293 107.356 56.9037C107.523 57.2541 107.539 57.7141 107.413 58.0814C107.293 58.4279 107.063 58.7024 106.743 58.853C106.311 59.0552 106.007 58.9546 105.59 58.7846C105.552 58.9761 105.509 59.1665 105.463 59.3559C105.11 60.7419 104.83 59.9355 104.161 60.3491C104.106 60.4764 104.108 60.4363 104.103 60.5523C104.098 60.6999 104.104 60.8184 104.066 60.964C103.997 61.2253 103.526 61.4867 103.313 61.6093C103.134 62.0515 103.03 62.3011 102.664 62.6036L102.59 62.6637L102.642 62.7663C103.32 62.942 104.021 63.5427 104.549 64.021C106.956 66.2008 107.528 69.42 107.763 72.6016C108.364 72.6117 108.965 72.6302 109.565 72.6572C112.401 72.7978 116.428 73.5824 118.385 75.8819C119.501 77.1928 119.751 78.8508 119.647 80.5577C119.33 85.7423 115.543 97.5482 111.819 100.985L117.348 106.849C118.147 107.705 119.099 108.568 119.759 109.543C119.918 109.778 120.04 110.002 119.988 110.299C119.892 110.407 119.833 110.471 119.678 110.478C119.598 110.482 119.478 110.459 119.413 110.407C118.81 109.927 118.27 109.171 117.739 108.594L114.262 104.876L106.359 96.6452C105.011 95.2194 103.641 93.8305 102.391 92.3072C103.783 92.1892 105.249 91.9849 106.547 91.4323C106.611 91.9093 106.71 92.3842 106.796 92.8574C106.994 94.0146 107.142 95.1788 107.241 96.3501L107.297 96.4224C107.813 97.0985 108.469 97.6637 109.073 98.2521C109.778 98.9494 110.477 99.6536 111.17 100.365C111.832 99.7344 112.47 98.9702 112.962 98.1852C115.316 94.4276 118.6 85.1539 118.836 80.6397C118.916 79.0943 118.779 77.6889 117.756 76.4978C115.61 73.9993 110.825 73.5204 107.797 73.3658C107.834 77.2643 107.732 81.1134 107.534 85.0062C107.463 86.4049 107.494 87.912 107.253 89.2912C107.149 89.8895 106.975 90.4309 106.498 90.8109C104.839 92.1316 98.1058 92.3395 95.8165 92.402C95.5363 92.4097 94.1205 92.3867 93.9391 92.5009C93.8344 92.5668 93.8426 93.0257 93.5557 93.2141C93.3645 93.3397 93.1394 93.4022 92.9193 93.441C90.7121 93.8286 88.4024 93.8959 86.1718 94.0712C84.6728 94.1907 83.1731 94.3004 81.6728 94.4001C80.9071 94.4522 80.1253 94.5371 79.3585 94.5397C78.9948 94.5407 78.6396 94.4927 78.2841 94.4144C75.4452 93.7885 72.8827 92.8526 70.1738 91.7869C69.292 91.44 68.2761 91.1294 67.485 90.5879C67.1578 90.3639 66.9132 90.0917 66.7031 89.7467C66.0133 88.6131 65.2883 86.5116 64.7397 85.2172C63.9729 83.421 63.2153 81.6205 62.4668 79.8158C61.9839 78.6619 61.471 77.5138 61.0654 76.3265C60.9516 75.9934 60.768 75.5154 60.8461 75.1646C60.9569 75.1346 61.0419 75.1458 61.1532 75.1661C62.2821 75.3723 63.4465 75.8738 64.5535 76.2072C66.6008 76.8236 68.8168 77.3013 70.7761 78.1726C71.1324 78.3311 71.4435 78.5173 71.6855 78.8434C72.0354 79.3149 72.2821 79.9108 72.5426 80.4409C73.1929 81.7641 73.8008 83.1801 74.6222 84.3979L74.6841 84.401C74.6888 84.2573 74.6824 84.0674 74.7405 83.9355C74.9792 83.393 76.088 82.8632 76.6114 82.6886C78.0513 82.2081 79.528 82.6299 80.7796 82.3003C81.3981 82.1374 81.9687 81.8099 82.5693 81.5878C84.5014 80.8735 86.5284 80.1192 88.507 79.6009C87.1906 78.4872 86.0535 77.1159 84.8938 75.8282C83.7914 74.6221 82.6797 73.4257 81.5587 72.2389C80.661 72.3375 75.2874 72.6655 74.7364 72.4426C74.5161 72.3535 74.4615 72.1192 74.4009 71.9067L74.3796 71.8289C73.6888 71.5764 72.4867 71.618 71.6995 71.4832C70.7674 71.886 69.8727 72.4025 68.9239 72.761C68.6402 72.8682 68.3692 72.9606 68.0634 72.9484C67.3388 72.9196 59.1718 71.4891 58.8525 71.3081C58.4901 71.1028 58.067 70.7369 57.8462 70.3681C57.1707 69.2399 56.5755 66.1677 56.2192 64.746C54.7311 64.463 53.1942 64.4128 51.6861 64.3681C51.858 64.9576 51.9029 65.5066 51.8631 66.1186C51.7783 67.4149 51.2211 70.0152 50.2374 70.8736C49.565 71.4604 48.2119 72.0394 47.3374 71.9217C46.9508 71.8697 46.8258 71.6779 46.6073 71.3631C46.116 71.5349 45.4892 71.8098 44.9626 71.7389C44.7877 71.7154 44.686 71.6549 44.5743 71.5107C44.5258 71.3696 44.5153 71.2889 44.541 71.1438C44.563 71.0179 44.569 71.0162 44.53 70.885C43.7366 70.8647 42.954 71.1719 42.153 71.1774C41.4748 71.182 40.8891 71.0304 40.2462 70.8249C40.0195 70.7525 39.7668 70.6406 39.534 70.611C38.9624 70.5383 38.3842 70.6266 37.7942 70.5376C36.2169 72.7045 34.2428 74.4598 32.543 76.499C34.1678 76.8654 35.8323 77.0365 37.4294 77.5425C38.1467 77.7696 38.733 78.3462 39.4762 78.5063C40.2332 78.6695 41.0445 78.7109 41.8143 78.7908C44.2418 79.0429 46.6577 79.132 49.0947 79.2004C50.4137 77.0341 51.5838 74.7584 52.9012 72.5871C53.2809 71.9612 54.5346 69.766 55.1228 69.6285C55.7179 69.7777 56.4381 70.4078 56.8721 70.8577C56.2818 72.3934 55.7067 73.9873 54.9436 75.4372C54.3538 76.5575 53.6494 77.6153 52.9722 78.6785C52.0119 80.2033 51.034 81.7155 50.0385 83.2152C49.0984 84.6324 48.2272 86.1233 47.1884 87.4635C46.8812 87.8598 46.4966 88.3235 46.0639 88.5686C45.7612 88.74 45.3535 88.7868 45.0129 88.8192C43.3867 88.974 29.9116 89.247 29.3902 89.0131C29.1834 88.9203 28.9976 88.7608 28.9222 88.532C28.8033 88.1713 28.9193 87.8591 29.0794 87.54C27.9027 87.5936 26.7206 87.7286 25.5456 87.8221L21.2845 88.1258C20.6354 89.0808 19.8599 89.9343 19.1079 90.7989C17.917 92.191 16.6866 93.5432 15.4165 94.8554C13.5476 96.8345 11.6592 98.7927 9.75108 100.73C8.1574 102.325 6.50909 103.862 4.9105 105.453C4.17635 106.186 3.45082 106.929 2.73389 107.681C2.2771 108.163 1.83695 108.74 1.29276 109.115C1.12299 109.232 0.958238 109.324 0.752081 109.276C0.651121 109.153 0.61103 109.067 0.609138 108.899C0.606968 108.707 0.678333 108.558 0.79057 108.412C1.46397 107.539 2.36316 106.736 3.12766 105.945C5.70447 103.278 8.43014 100.776 11.0366 98.1401C10.6073 97.6754 10.0742 97.277 9.59945 96.8606C9.26868 96.5739 8.95237 96.2705 8.65053 95.9505C8.34869 95.6305 8.0628 95.2953 7.79286 94.9451C4.6929 90.9983 0.699173 81.5836 0.0810271 76.5436C-0.1259 74.8565 0.019023 73.1924 1.04069 71.8085C1.96578 70.5554 3.23867 69.9827 4.69666 69.7794L4.65036 69.6062C4.27547 68.1952 3.84915 66.6577 4.58148 65.2907C4.51054 65.1782 4.44288 65.0636 4.37849 64.9469C4.3141 64.8301 4.2531 64.7115 4.19548 64.5908C4.13787 64.4703 4.08375 64.348 4.03312 64.224C3.98249 64.0999 3.93545 63.9744 3.89198 63.8474C3.84852 63.7204 3.80872 63.5921 3.77258 63.4626C3.73645 63.3331 3.70404 63.2025 3.67535 63.071C3.64668 62.9394 3.62177 62.807 3.60065 62.6739C3.57953 62.5408 3.56223 62.4071 3.54874 62.2729C3.20878 58.9259 5.553 58.1714 6.69207 55.5538C7.27562 54.2127 7.30841 52.6349 7.46243 51.1871C7.77675 48.2326 8.13837 44.8982 10.5122 42.9277C11.9826 41.707 13.7386 41.3651 15.5722 41.5846C15.6024 38.6468 15.4573 35.6865 15.4143 32.7478L15.3006 19.8645L15.2487 13.9804C15.2338 12.8336 15.136 11.6093 15.233 10.4698C15.2496 10.2748 15.3019 10.1589 15.4071 10Z" fill="#0275A6"/>
<path d="M82.9683 91.8359C83.0017 91.8416 83.0356 91.845 83.0686 91.8531C83.25 91.897 83.2608 91.9362 83.365 92.0914C83.3688 92.299 83.3689 92.342 83.2762 92.5232C83.2522 92.5089 83.2276 92.4955 83.2042 92.4802C83.0143 92.3566 82.9117 92.2609 82.855 92.0315L82.9683 91.8359Z" fill="#FEFEFE"/>
<path d="M45.8006 63.3242C45.8999 63.4113 46.001 63.5285 46.0779 63.6371C46.1978 63.8065 46.2732 63.908 46.2418 64.1148C46.2103 64.1177 46.1787 64.1213 46.1472 64.1234C45.9395 64.1375 45.8268 64.1451 45.6694 63.9948C45.6268 63.7728 45.7335 63.5348 45.8006 63.3242Z" fill="#FEFEFE"/>
<path d="M84.4102 87.6035C84.9462 87.6218 85.1561 87.935 85.5049 88.3194C85.3485 88.2965 85.1878 88.2766 85.0351 88.2336C84.6862 88.1352 84.5778 87.9175 84.4102 87.6035Z" fill="#FEFEFE"/>
<path d="M81.9702 88.8659C82.2677 88.8668 83.0059 88.7884 83.2372 88.9498L83.1154 89.0279L82.3834 89.4093L81.9702 88.8659Z" fill="#FEFEFE"/>
<path d="M82.1461 85.2988C82.4707 85.4982 82.8501 85.7446 83.0443 86.0922L83.0238 86.1657C82.8524 86.1895 82.7032 86.1661 82.538 86.117C82.4638 85.9215 82.3238 85.8369 82.1805 85.7025C82.0719 85.6007 81.9817 85.5476 81.9702 85.3876L82.1461 85.2988Z" fill="#FEFEFE"/>
<path d="M83.064 86.4224C83.0917 86.4216 83.1195 86.4196 83.1472 86.42C83.6033 86.4253 84.0116 86.9274 84.3187 87.2392C84.1786 87.2399 84.0468 87.2391 83.9103 87.2025C83.5083 87.0944 83.2692 86.7808 83.064 86.4224Z" fill="#FEFEFE"/>
<path d="M75.5834 86.1072L75.4692 85.862L75.5013 85.7876L75.7885 85.8629C75.923 85.8292 76.0092 85.8107 76.1223 85.7212C76.2198 85.6441 76.3153 85.5575 76.4112 85.4775C76.6317 85.4381 76.7528 85.4954 76.9552 85.5862C76.8739 85.7467 76.7768 85.7899 76.6126 85.8458C76.278 85.9594 75.9183 85.9958 75.5834 86.1072Z" fill="#FEFEFE"/>
<path d="M80.2837 85.0662C80.8414 85.0068 81.5458 84.7456 82.0164 85.1264C81.7459 85.2617 81.4059 85.2658 81.109 85.2763C80.7826 85.2877 80.5333 85.313 80.2837 85.0662Z" fill="#FEFEFE"/>
<path d="M78.2903 85.4883L78.7762 85.9289C78.5191 86.0009 78.0749 86.1908 77.8269 86.0399C77.7179 85.9735 77.6296 85.8454 77.5508 85.7438L78.2903 85.4883Z" fill="#FEFEFE"/>
<path d="M85.5283 91.698C86.2065 91.6647 86.7906 91.8123 87.4246 92.0489C87.3111 92.0824 87.1958 92.1162 87.0791 92.1355C86.5727 92.2188 85.9391 92.0051 85.5283 91.698Z" fill="#FEFEFE"/>
<path d="M77.2081 85.9062C77.3789 86.045 77.5375 86.2198 77.6978 86.373C77.4415 86.4353 77.2074 86.5196 76.9633 86.6223C76.7724 86.5951 76.5871 86.3424 76.4541 86.2008L77.2081 85.9062Z" fill="#FEFEFE"/>
<path d="M78.6152 85.3992C79.0717 85.27 79.5911 85.0536 80.0505 85.2521L80.1122 85.396C79.9596 85.5109 79.1603 85.7213 78.9638 85.6884C78.8547 85.67 78.7246 85.5468 78.6377 85.4775L78.6152 85.3992Z" fill="#FEFEFE"/>
<path d="M37.5764 78.3887C37.5858 78.4015 37.5996 78.412 37.6046 78.4273C37.6783 78.6559 37.2112 79.3267 37.1476 79.637C37.0844 79.9454 37.0396 80.5556 36.7986 80.7263C36.7041 80.6602 36.6836 80.6396 36.6235 80.5463C36.6609 79.8522 37.1095 78.874 37.5764 78.3887Z" fill="#FEFEFE"/>
<path d="M87.3228 91.7079C87.8159 91.6521 88.3938 91.6602 88.8884 91.6989C89.4043 91.7392 89.7653 91.793 90.1117 92.213C89.46 92.1328 87.8474 91.9782 87.3228 91.7079Z" fill="#FEFEFE"/>
<path d="M78.7911 87.5703C79.0533 87.7352 79.2319 87.9487 79.407 88.2085L78.6743 88.5218C78.3932 88.4125 78.1511 88.0675 77.9517 87.8393L78.7911 87.5703Z" fill="#FEFEFE"/>
<path d="M80.3158 85.6367C80.518 85.6914 80.8606 86.1905 81.0121 86.3693C80.6686 86.4136 80.3371 86.4719 79.999 86.5508C79.7753 86.4971 79.4546 86.161 79.2681 86.0054L80.3158 85.6367Z" fill="#FEFEFE"/>
<path d="M80.9116 86.5879C81.3755 86.611 81.5367 86.8923 81.8373 87.2318L80.9648 87.411L80.8817 87.4314C80.6024 87.3505 80.2803 86.9463 80.0635 86.738C80.3453 86.6827 80.628 86.6327 80.9116 86.5879Z" fill="#FEFEFE"/>
<path d="M79.5232 88.3691C79.7884 88.5897 80.0187 88.8893 80.2515 89.1479C80.1705 89.197 80.0894 89.2468 80.0062 89.2915C79.7872 89.4092 79.6851 89.4015 79.455 89.319C79.1818 89.134 78.8856 89.0267 78.5947 88.8784L78.5962 88.7916C78.922 88.6724 79.2177 88.5364 79.5232 88.3691Z" fill="#FEFEFE"/>
<path d="M81.5418 88.9023C81.585 88.9173 81.6267 88.9371 81.6676 88.9578C81.8572 89.0542 82.1683 89.2616 82.2377 89.4745L82.1403 89.5865C81.9903 89.6362 81.8424 89.6945 81.683 89.68C81.6512 89.6771 81.6196 89.6726 81.588 89.669L81.4637 89.8125L81.4049 89.8457C81.098 89.6612 80.8328 89.3612 80.5703 89.1128C80.8909 89.0194 81.2146 88.9617 81.5418 88.9023Z" fill="#FEFEFE"/>
<path d="M77.4643 87.2698C77.321 87.1242 77.1736 87.0123 77.1455 86.793C77.1788 86.6957 77.1667 86.6581 77.2632 86.6094C77.4878 86.4961 77.773 86.5945 77.99 86.6891C78.2449 86.8003 78.4897 87.1298 78.6553 87.356C78.4258 87.5416 78.0963 87.5709 77.8175 87.6319L77.4643 87.2698Z" fill="#FEFEFE"/>
<path d="M80.1212 87.9841L80.7803 87.7656C80.9806 88.0053 81.186 88.3083 81.4272 88.4996L81.3966 88.6405C81.1107 88.7923 80.7436 88.8431 80.4315 88.9196C80.215 88.6813 79.9102 88.4673 79.7905 88.1582L79.8486 88.0501L80.1212 87.9841Z" fill="#FEFEFE"/>
<path d="M32.5258 86.7288C32.685 86.6931 32.6088 86.6872 32.7545 86.7399C32.6297 87.009 32.3447 87.2254 32.1357 87.4261L30.8323 87.4925C30.7115 87.4941 30.6433 87.4926 30.5356 87.4326C30.5181 87.2721 30.5357 87.2093 30.6065 87.0666C31.0354 86.7339 31.9961 86.7839 32.5258 86.7288Z" fill="#FEFEFE"/>
<path d="M34.2904 86.3243C34.45 86.2981 34.3772 86.2863 34.5105 86.3451C34.4253 86.6717 34.051 87.0947 33.8631 87.3955C33.5499 87.4268 33.2285 87.419 32.9137 87.4252C32.8255 87.4238 32.7538 87.4076 32.668 87.3881C32.6913 87.1148 33.1598 86.7044 33.3455 86.5C33.6573 86.4295 33.976 86.3815 34.2904 86.3243Z" fill="#FEFEFE"/>
<path d="M83.0759 87.4318C83.4526 87.4295 83.7775 87.4467 84.0658 87.7336C84.2307 87.8978 84.3681 88.1107 84.4988 88.3058L83.7296 88.658C83.4769 88.4726 83.2859 88.2804 83.0797 88.043C82.9748 87.9056 82.8738 87.7677 82.7754 87.6252L82.8243 87.5168L83.0759 87.4318Z" fill="#FEFEFE"/>
<path d="M77.4125 87.9878C77.5181 87.9661 77.6264 87.9445 77.7301 87.9883C77.959 88.0851 78.2741 88.3418 78.3472 88.5985C78.3782 88.7079 78.346 88.7267 78.3038 88.822C78.1427 88.9394 78.0232 88.9488 77.8353 88.9649C77.6642 88.9689 77.4577 88.99 77.2933 88.9347C76.9745 88.8276 76.7868 88.3324 76.6338 88.0469L77.4125 87.9878Z" fill="#FEFEFE"/>
<path d="M75.6636 86.4572C75.9406 86.3942 76.0973 86.3505 76.35 86.5123C76.7063 86.7404 76.9396 87.2043 77.3165 87.3836L77.4197 87.5583L77.3893 87.6851C77.1504 87.8455 76.8324 87.8362 76.5557 87.8637C76.1958 87.4396 75.929 86.9492 75.6636 86.4572Z" fill="#FEFEFE"/>
<path d="M81.0005 87.613C81.306 87.5307 81.5926 87.4199 81.8862 87.3008C82.2215 87.589 82.567 88.0355 82.9494 88.2321L83.0386 88.4486C82.768 88.6625 82.2316 88.5733 81.9137 88.5178C81.7686 88.4926 81.7067 88.4418 81.5962 88.3464C81.4748 88.0552 81.2126 87.8331 81.0005 87.613Z" fill="#FEFEFE"/>
<path d="M80.6655 85.5103C81.1875 85.5 81.4648 85.4762 81.8717 85.8571C82.0185 86.0252 82.1696 86.1844 82.2799 86.3824C82.6523 86.5598 82.9557 86.7147 83.2086 87.0626L83.2436 87.2343C83.1519 87.3578 83.1574 87.3423 83.0321 87.3947C82.7299 87.4125 82.349 87.3532 82.1154 87.1287C81.8525 86.8762 81.8645 86.5029 81.8399 86.1582C81.7025 86.178 81.6233 86.2967 81.5222 86.3936C81.2051 86.1946 80.9202 85.7971 80.6655 85.5103Z" fill="#FEFEFE"/>
<path d="M78.6548 91.375C79.1551 91.4435 80.0409 91.4513 80.4106 91.8229C80.3917 91.9416 80.4026 91.9038 80.3705 92.004C80.3638 92.0251 80.3563 92.0458 80.3494 92.0668C80.6549 92.3066 81.1026 92.3694 81.4561 92.5265C80.7861 92.6605 80.1005 92.5554 79.4258 92.6762C79.1991 92.2255 78.9195 91.8018 78.6548 91.375Z" fill="#FEFEFE"/>
<path d="M78.9857 86.1113C79.5731 86.5733 80.1262 87.1058 80.6601 87.6349L80.116 87.7913C79.9573 87.8341 79.8043 87.8692 79.6424 87.8955C79.3716 87.8206 79.2142 87.56 79.0383 87.3445C79.1748 87.2138 79.2854 87.0935 79.3969 86.9388L79.3872 86.9293C79.2198 87.0037 79.0508 87.0884 78.8739 87.1345C78.8455 87.1419 78.8169 87.1484 78.7885 87.1555C78.5729 86.8726 78.3538 86.6082 78.1113 86.3503L78.9857 86.1113Z" fill="#FEFEFE"/>
<path d="M75.665 64.582C75.9307 64.8502 76.2932 67.9477 76.3349 68.5109C75.5932 68.5056 74.9497 68.4306 74.3394 68.9523L73.4712 68.7394C73.1358 68.6319 72.8025 68.5177 72.4712 68.3968C73.453 68.1724 74.4163 67.8804 75.3611 67.5209C75.4804 66.5429 75.5345 65.5591 75.665 64.582Z" fill="#FEFEFE"/>
<path d="M77.2393 89.0918C78.0295 89.1857 78.7903 89.143 79.4843 89.6339L79.4952 89.4889C79.5249 89.5715 79.5509 89.6794 79.5991 89.7508C79.867 89.5808 80.135 89.5108 80.4338 89.4269C80.6378 89.668 80.9122 89.9168 80.9243 90.2561C80.7052 90.6209 80.1897 90.6594 79.8125 90.7529C80.1458 91.0858 80.4091 91.3216 80.8511 91.4789L80.9382 91.5089L80.9089 91.5604C80.4796 91.6835 78.922 91.1223 78.3822 90.9969C77.9844 90.376 77.6181 89.726 77.2393 89.0918Z" fill="#FEFEFE"/>
<path d="M79.4846 89.6333L79.4956 89.4883C79.5253 89.5709 79.5512 89.6788 79.5994 89.7502C79.9656 89.8258 80.3325 89.8972 80.7002 89.9645C79.9318 90.0553 79.1867 90.0976 78.4126 90.0848C78.7776 89.9524 79.1299 89.7927 79.4846 89.6333Z" fill="#1C1616"/>
<path d="M48.6144 68.2559C48.9319 68.2768 49.2207 68.3139 49.5008 68.4837C49.8259 68.6808 50.0693 69.0346 50.1591 69.4176C50.2194 69.6749 50.1873 69.9141 50.0452 70.1359C49.5947 70.8389 48.3121 71.1003 47.5781 71.2829C47.4365 71.2926 47.4263 71.3092 47.293 71.2374C47.4151 70.9827 47.7051 70.8526 47.908 70.6672C48.0289 70.5566 48.1066 70.4915 48.1227 70.3181C47.9713 70.1674 47.8665 70.1895 47.6632 70.1635L47.6302 70.11C47.8647 69.9662 47.9435 69.7928 48.0262 69.5343C47.8552 69.4502 47.7663 69.4442 47.5856 69.4691C47.5672 69.4717 47.5488 69.4747 47.5304 69.4776L47.5518 69.4067C47.6945 69.2861 47.8773 69.1517 47.9913 69.0012C48.2424 68.6695 48.2111 68.438 48.6144 68.2559Z" fill="#FEFEFE"/>
<path d="M90.3661 92.4315C90.823 92.3513 91.0221 92.4402 91.4282 92.6549C91.8779 92.6131 92.6326 92.3603 93.0259 92.6015L92.9997 92.6618C92.4353 92.9815 84.0683 93.4453 82.6487 93.5253C82.2066 93.5442 80.1453 93.8374 79.8744 93.6659C79.8651 93.5137 79.8637 93.4087 79.9086 93.2628C80.0877 93.1387 81.4487 93.1505 81.764 93.1278C84.6344 92.9213 87.5104 92.8212 90.3661 92.4315Z" fill="#FEFEFE"/>
<path d="M81.232 51.25C81.3386 51.3751 81.3205 51.5815 81.3313 51.7482C81.3617 52.2148 81.4595 52.4041 81.6078 52.8227C81.6739 53.0092 81.6051 53.2716 81.5108 53.4369C81.132 54.101 80.0077 54.3727 79.345 54.5723C79.1657 54.5169 79.0785 54.486 78.9405 54.3441C78.6773 53.7745 79.1004 52.6847 79.1192 52.0335L79.1219 51.93C79.8806 51.8023 80.5417 51.6083 81.232 51.25Z" fill="#FEFEFE"/>
<path d="M29.3326 80.9902C31.1559 81.0302 33.3885 81.5989 35.2661 81.7793C35.9222 81.8424 35.9844 81.5742 36.486 81.496C36.6995 81.4629 37.0304 81.5829 37.2432 81.6342C37.363 81.8368 37.5154 82.019 37.6584 82.2039C37.0867 82.1317 36.5191 82.0627 35.9438 82.0319C34.5456 82.0726 32.7819 82.6039 31.4922 82.537C31.4392 82.4442 31.3849 82.3538 31.3289 82.263C30.6901 81.9641 28.2844 81.9898 27.4883 81.9681C28.0975 81.6276 28.7045 81.2915 29.3326 80.9902Z" fill="#FEFEFE"/>
<path d="M38.2113 49.4822C38.4484 49.64 38.6877 49.8212 38.9396 49.9509C39.7983 50.3928 40.5067 50.2035 41.3635 49.9045C41.414 50.4588 41.4725 51.0121 41.539 51.5645L41.2699 51.8884C40.8769 52.4057 40.5435 52.5452 39.9463 52.6797C39.5146 52.5571 39.0843 52.3897 38.7571 52.056C38.1102 51.3963 38.216 50.3499 38.2113 49.4822Z" fill="#FEFEFE"/>
<path d="M71.3722 69.0504C72.5347 68.9006 73.4982 69.5992 74.6534 69.5737C74.6172 69.9765 74.6403 70.6216 74.3278 70.9091C74.0184 71.1936 73.1403 70.9763 72.7444 70.9261C71.9304 70.8186 71.1361 70.7704 70.3165 70.7627C70.1057 70.5839 69.9294 70.439 69.6729 70.3375C69.6484 70.3278 69.6236 70.3191 69.5991 70.3092C69.5609 70.2935 69.523 70.2767 69.4849 70.2607L69.4126 70.2314C69.395 70.1511 69.3639 70.1104 69.4092 70.0346C69.7114 69.5299 70.8417 69.1814 71.3722 69.0504Z" fill="#FEFEFE"/>
<path d="M46.803 64.6975C47.1461 64.8856 47.8061 65.735 48.1244 66.073C47.9592 66.6666 47.8218 67.2563 47.7055 67.8625C47.4344 67.9435 47.1724 68.0623 46.8997 68.1385C46.664 68.2043 46.6059 68.2159 46.396 68.0814C45.8615 67.6676 45.3597 67.469 44.7241 67.2835C44.9639 66.458 45.1971 65.6305 45.4236 64.8009C45.8901 64.8011 46.3401 64.7563 46.803 64.6975Z" fill="#FEFEFE"/>
<path d="M38.1707 79.0879C38.9692 79.4416 39.6711 79.9928 40.4622 80.3552C41.8074 80.9715 44.4064 81.2635 45.3608 82.3207C45.4714 82.4431 45.4457 82.3791 45.4415 82.5423C45.2749 82.6225 45.2666 82.6072 45.0865 82.5593C42.0579 81.058 41.5701 81.6819 38.4872 81.7405C38.2442 81.5617 38.0557 81.361 37.8552 81.1346C37.6633 80.3086 37.8099 79.8206 38.1707 79.0879Z" fill="#FEFEFE"/>
<path d="M23.0039 74.2578C23.2601 74.5278 24.4327 77.1944 24.795 77.8597C25.6935 79.5092 26.268 80.19 28.0646 80.7031L27.3087 81.1212C26.9751 81.3374 26.7356 81.5492 26.5239 81.9005L25.341 81.854C25.0327 81.2912 24.7941 80.6604 24.5252 80.074C24.1175 79.1851 23.5967 78.3048 23.3776 77.339C23.1552 76.358 23.1322 75.2635 23.0039 74.2578Z" fill="#FEFEFE"/>
<path d="M83.2762 82.043C83.3394 82.0479 83.3898 82.0475 83.4513 82.0738C83.6936 82.1772 83.8817 82.4817 83.9553 82.7345C84.0145 82.9386 83.9728 83.0547 83.8759 83.2329C83.0822 83.7513 81.4455 84.3705 80.4853 84.5027C79.6366 84.6195 78.7567 84.5714 77.9025 84.566C78.1787 84.4805 78.4684 84.4359 78.7045 84.2553L78.6989 84.1727C77.8245 83.7967 76.4295 84.7854 75.5795 85.1008L75.5448 85.0736C75.522 84.7883 77.0315 84.1879 77.2258 83.7618L77.166 83.6817C76.6182 83.5572 76.0061 83.798 75.4766 83.9475C77.2045 82.722 79.1051 83.3394 81.0151 82.9638C81.7951 82.8103 82.5547 82.3796 83.2762 82.043Z" fill="#FEFEFE"/>
<path d="M43.374 67.9397C44.0868 67.8525 44.7812 67.8949 45.4401 68.2245C45.6554 68.3322 45.9987 68.5253 46.0796 68.7692C45.456 68.9082 44.6922 68.3074 44.0454 68.5325L44.0023 68.6362C44.0455 68.7233 44.1226 68.9338 44.2443 68.9353C44.2522 68.9354 44.4287 68.8624 44.4424 68.8602C44.6048 68.8336 45.196 69.3119 45.3978 69.3917C45.4152 69.3986 45.4327 69.4047 45.4501 69.4112L45.4433 69.5882L45.5807 69.6448C45.6556 69.6041 45.7236 69.566 45.7913 69.5125C45.808 69.4993 45.824 69.4853 45.8403 69.4716L45.8443 69.6154C45.7469 69.781 45.7394 69.8 45.572 69.8785C45.3091 69.8363 45.1659 69.552 44.9248 69.437C44.6765 69.3187 44.3117 69.2713 44.0537 69.378C43.9163 69.435 43.9095 69.454 43.856 69.5883C43.866 69.6076 43.8737 69.6283 43.8857 69.6462C44.0416 69.8778 44.3995 69.9047 44.6449 69.9496C44.6828 69.9573 44.7218 69.9606 44.7587 69.9727C44.8921 70.0166 44.9063 70.0404 44.9523 70.1757C44.5693 70.547 43.4044 69.6679 42.8825 69.9068C42.897 69.946 42.908 69.9867 42.9259 70.0244C42.9867 70.1523 43.3368 70.2699 43.4684 70.3293C42.5772 70.4668 40.7851 70.6054 40.0238 69.997C39.9279 69.9204 39.8155 69.7881 39.8226 69.6513C39.8469 69.1854 40.6339 68.3678 40.9364 68.0175C41.7972 68.1251 42.5206 68.0582 43.374 67.9397Z" fill="#FEFEFE"/>
<path d="M40.751 79.7496C41.5782 79.6753 42.5261 79.9348 43.3609 79.9951C45.0952 80.1041 46.8308 80.1771 48.5677 80.2141C48.252 81.0603 47.86 81.8802 47.5271 82.7203C46.8863 84.3376 46.2652 86.3835 45.2926 87.8019C44.9231 87.8501 44.5518 87.8688 44.1803 87.8914C44.6353 87.1578 45.0013 86.3502 45.4128 85.5873C45.9677 84.5585 46.6326 83.5043 47.0585 82.4119C47.1812 82.0973 47.3415 81.645 47.266 81.3065C47.2291 81.1416 47.1489 81.0332 47.0023 80.9549C46.3603 80.6116 45.2999 80.7904 44.6472 80.9967C44.089 80.8662 41.1824 79.9998 40.751 79.7496Z" fill="#FEFEFE"/>
<path d="M42.1154 50.998C42.1446 51.0088 42.1743 51.0186 42.2033 51.0302C42.9081 51.3116 43.0015 51.9502 43.2935 52.6004C43.5261 52.7232 43.9084 52.8779 44.06 53.1069C44.5628 53.8663 42.8465 60.0408 42.5463 61.0286C42.3752 61.5594 42.2058 62.083 41.9829 62.5929C42.3443 58.7781 42.7548 54.8114 42.1154 50.998Z" fill="#FEFEFE"/>
<path d="M17.2764 59.793C18.3353 60.1862 20.3496 62.2843 20.798 63.3489C21.011 63.8542 20.7577 64.3216 20.5677 64.7847C21.0153 66.1723 21.1186 67.7872 21.3718 69.2329C21.7289 71.2729 22.1862 73.2848 22.5116 75.333C22.52 75.4071 22.5103 75.4964 22.5083 75.5714L22.4396 75.6117C22.0844 75.1259 21.4755 71.2948 21.2738 70.3726C21.1047 69.5926 20.9066 68.8209 20.6796 68.0573C20.1471 66.3239 19.527 64.5907 18.7896 62.9419C18.314 61.8782 17.7661 60.8501 17.2764 59.793Z" fill="#FEFEFE"/>
<path d="M83.5184 84.2556C84.041 84.2623 84.5403 84.422 85.082 84.3946C85.3526 84.3809 85.62 84.3841 85.8909 84.3889C87.1743 85.6435 88.3639 87.0023 89.6631 88.2393C89.2839 88.2799 88.9005 88.2811 88.5195 88.2921C87.6941 88.3033 86.8801 88.2578 86.0591 88.1752C85.5798 87.8042 85.1471 87.3531 84.6932 86.9473C83.8584 86.2013 83.014 85.484 82.2393 84.6674C82.6633 84.5122 83.0806 84.3621 83.5184 84.2556Z" fill="#FEFEFE"/>
<path d="M12.9868 57.2891C14.0803 58.0903 14.8999 58.65 16.2482 58.7801C16.5354 59.9336 16.9905 60.8896 17.4988 61.9514C17.2926 62.227 17.0702 62.4337 16.8143 62.6536C16.1705 63.1253 15.6889 63.2024 14.9284 63.2098C14.4166 62.3282 13.6953 61.3021 13.4376 60.3032C13.3244 59.8642 13.32 59.3698 13.2609 58.9173C13.1898 58.3725 13.0838 57.8294 12.9868 57.2891Z" fill="#FEFEFE"/>
<path d="M90.4315 88.844L90.4809 88.8359C90.6095 88.8955 90.639 88.9055 90.683 89.0607C90.8512 89.6521 90.6008 90.4004 90.371 90.9394C88.816 91.1777 87.1082 90.9358 85.5326 90.9386C84.2 90.941 82.8709 91.1074 81.5452 91.0835C81.4352 91.0839 81.4873 91.0991 81.3901 91.0336C81.6966 90.6153 82.4208 90.2851 82.867 90.0519C83.9942 89.4624 85.1413 88.9643 86.4193 88.9321C87.8213 88.8966 89.011 89.1248 90.4315 88.844Z" fill="#FEFEFE"/>
<path d="M35.7588 82.8769C35.8857 82.8642 36.0162 82.8502 36.1438 82.8575C36.3914 82.8717 39.0503 84.3372 39.3581 84.5558C39.7045 84.802 39.9835 85.0752 40.2652 85.3989L40.2216 85.3904C39.5242 85.2601 38.9241 84.9374 38.2566 84.7097C37.2859 84.3785 36.1419 84.5199 35.2377 84.9978C34.1135 85.9048 32.2127 85.7949 30.8496 85.9839C31.0932 85.1322 31.2921 84.3316 31.304 83.4386C32.7876 83.2397 34.2726 83.0525 35.7588 82.8769Z" fill="#FEFEFE"/>
<path d="M78.2002 54.2988C78.2324 54.3541 78.2654 54.4088 78.2958 54.465C78.4517 54.7541 78.5591 54.9179 78.8553 55.0656C79.5306 55.4023 80.3329 54.9391 80.9734 54.6837C79.6433 57.478 78.3475 60.3534 77.398 63.3174C77.1334 64.1981 76.9032 65.0886 76.7073 65.989C76.6087 62.2561 77.0253 57.8202 78.2002 54.2988Z" fill="#FEFEFE"/>
<path d="M55.1827 70.5C55.4875 70.6036 55.7543 70.7472 56.0352 70.9049C55.6747 72.008 55.3014 73.1151 54.8073 74.1609C54.1356 75.5827 53.2571 76.9037 52.4307 78.2288C50.8913 80.6756 49.3059 83.089 47.6744 85.4689C47.5226 85.704 47.3527 85.9207 47.1821 86.1407C48.0696 83.8706 49.3089 81.666 50.4331 79.5166L55.1827 70.5Z" fill="#FEFEFE"/>
<path d="M17.8549 62.6582C18.1365 62.9331 18.3561 63.7562 18.5033 64.1424C19.6375 67.1184 20.6768 70.164 21.1227 73.3512L20.1438 71.736C18.4587 69.2055 16.8816 66.5406 15.3301 63.9157C16.3392 63.7784 17.1151 63.3881 17.8549 62.6582Z" fill="#FEFEFE"/>
<path d="M41.6662 52.2952C41.8125 53.0306 41.782 53.8362 41.7934 54.5862C41.8384 57.5914 41.7738 60.7502 41.2804 63.7148C41.0889 62.835 40.8829 61.9591 40.6624 61.0868C39.8941 58.3 39.1394 55.4368 38.5635 52.5993C39.0618 52.9353 39.6436 53.2416 40.2523 53.2032C40.9142 53.1614 41.2654 52.7938 41.6662 52.2952Z" fill="#FEFEFE"/>
<path d="M100.477 59.8789L100.525 59.929C100.664 60.3517 100.67 60.8498 100.716 61.2952C100.955 63.5884 100.832 63.8141 100.185 66.0082C99.2171 66.0105 98.3589 65.9761 97.428 65.6798C97.0797 65.5226 96.7981 65.3248 96.4912 65.0947C96.7344 64.0222 96.892 62.9458 97.0376 61.8549C98.2475 61.2824 99.3994 60.7077 100.477 59.8789Z" fill="#FEFEFE"/>
<path d="M37.5554 50.7715C37.628 50.8253 37.6633 50.8792 37.6917 50.9717C37.8177 51.3814 37.8307 51.9119 37.8919 52.3399C37.9899 53.0153 38.113 53.6856 38.2611 54.3509C38.5235 55.4949 38.8708 56.6243 39.1661 57.7604C39.6716 59.7048 40.1497 61.6567 40.7413 63.5747C40.3488 62.9539 39.9888 62.3099 39.6212 61.6727C38.0783 58.6801 36.4793 55.7212 34.8242 52.7959C35.789 52.205 36.7281 51.5639 37.5554 50.7715Z" fill="#FEFEFE"/>
<path d="M39.4821 83.6287C39.4633 83.4824 39.4744 83.4664 39.5593 83.3519C39.7957 83.033 40.2053 82.7443 40.5422 82.5588C40.5702 82.5434 40.5977 82.5266 40.6261 82.5119C41.3181 82.1526 42.9823 82.339 43.7085 82.6271C44.1666 82.8089 44.6007 83.0651 45.0194 83.3301C44.4662 84.4138 43.9816 85.4447 43.265 86.4332C41.7877 86.3332 40.3085 86.3737 38.829 86.3416C38.1768 86.3274 37.4061 86.1925 36.771 86.2943L36.7662 86.3442L36.9263 86.4103L36.8194 86.2842L36.8491 86.2786C37.0761 86.5354 37.5775 86.5736 37.9068 86.5835C38.891 86.6127 43.1953 86.3486 43.7768 86.8026C43.7946 86.9702 43.7653 87.0151 43.7002 87.1722C43.4391 87.3419 35.1288 87.4047 34.208 87.3983C34.4222 87.0897 34.6382 86.7825 34.8857 86.5022C35.2177 86.1261 35.6432 85.7844 35.8797 85.3343L36.0512 85.2421C36.4244 85.0489 37.4584 84.9828 37.8673 85.1409C38.0152 85.1981 38.1417 85.2974 38.2739 85.3852C38.376 85.4529 38.4581 85.4885 38.5725 85.5235L38.4944 85.5388C39.3876 86.0726 41.5469 86.0765 42.5185 85.7755C42.6499 85.7349 42.732 85.6762 42.8333 85.5821C42.1101 85.6957 41.3911 85.7196 40.6616 85.7463C40.6374 85.4382 40.5757 85.1312 40.5251 84.8267L40.4126 84.5144C40.3541 84.4429 40.3355 84.373 40.3038 84.2859C41.141 84.4794 43.105 84.2647 44.0253 84.2269L44.1671 84.1192L44.1441 84.0322C43.2297 83.7588 40.9375 84.3536 40.1957 84.0885C40.0393 84.0326 40.189 84.0707 40.0553 84.0379C39.9436 84.0105 39.8668 83.9911 39.7634 83.9348C39.6578 83.8452 39.5726 83.7346 39.4821 83.6287Z" fill="#FEFEFE"/>
<path d="M36.0513 85.2424C36.4244 85.0492 37.4585 84.9831 37.8674 85.1412C38.0152 85.1984 38.1417 85.2977 38.2739 85.3855C38.376 85.4532 38.4581 85.4888 38.5725 85.5238L38.4945 85.5391C38.3798 85.5508 38.3216 85.5241 38.2432 85.6187C38.3442 85.7336 38.4357 85.7962 38.4622 85.9538C38.3732 85.9632 38.3043 85.9762 38.2165 86.0009C38.2845 86.0613 38.3533 86.116 38.425 86.1714L38.3836 86.2323C38.2979 86.2404 38.2969 86.2438 38.196 86.2341C37.9705 86.2126 37.3178 86.0539 37.1964 85.8788C37.382 85.766 37.6381 85.7622 37.8499 85.7305C37.7744 85.6272 37.7961 85.668 37.7455 85.5596C37.6928 85.4467 37.741 85.3983 37.7765 85.2836C37.4278 85.0657 36.4778 85.2187 36.0513 85.2424Z" fill="#1C1616"/>
<path d="M40.4126 84.5152C40.4469 84.5158 40.4817 84.5108 40.5155 84.5168C41.5419 84.697 42.7909 84.5349 43.8384 84.4609C43.6213 84.641 43.4553 84.7543 43.1915 84.8392C43.0923 84.8712 42.9937 84.9041 42.8941 84.9346L43.0907 85.0076L43.1001 85.0651C42.4092 85.2556 41.156 85.1983 40.5251 84.8275L40.4126 84.5152Z" fill="#4B4747"/>
<path d="M39.4824 83.6279C40.2181 83.6259 44.2791 83.2717 44.6591 83.5197L44.6447 83.6285C44.0783 84.0245 40.631 83.9288 39.7637 83.9341C39.6581 83.8444 39.573 83.7339 39.4824 83.6279Z" fill="#1C1616"/>
<path d="M12.5333 59.5352L12.6071 59.6226C12.6194 60.1059 12.6782 60.483 12.8688 60.9308C13.4414 62.2762 14.6025 64.06 15.3749 65.3489C16.8416 67.8462 18.3465 70.3177 19.8897 72.7633C20.5494 73.82 21.3659 74.8279 21.861 75.9825C21.5093 75.654 21.1781 75.2937 20.8404 74.9489C18.0396 72.0664 15.2732 69.0861 12.7665 65.9151C12.9162 65.789 13.0642 65.6606 13.2103 65.53C13.3594 65.395 13.5026 65.2705 13.5186 65.0526C13.3582 64.6087 12.4413 64.2811 12.0635 64.0094C11.6956 63.7447 11.412 63.3889 11.3438 62.9144C11.1973 61.8943 11.971 60.3304 12.5333 59.5352Z" fill="#FEFEFE"/>
<path d="M96.2854 65.7598C97.381 66.5673 98.6311 66.6429 99.9219 66.6571C99.6742 67.5536 99.2934 68.4291 98.9894 69.3087C98.4408 70.9311 97.9018 72.5569 97.3721 74.1862L97.0146 75.1714C96.2823 75.0615 95.2605 75.0373 94.6071 74.6688C94.3303 74.1048 96.0267 66.9996 96.2854 65.7598Z" fill="#FEFEFE"/>
<path d="M75.3976 58.3495C75.3769 57.8029 75.3731 57.2932 75.53 56.764C75.8291 55.7555 76.5101 55.3354 77.3435 54.877C77.2804 55.1532 77.2323 55.5727 77.051 55.7877C76.8986 55.9685 76.7645 56.0276 76.5434 56.0325C76.5204 56.033 76.4976 56.0326 76.4748 56.0335C76.2854 56.0403 76.2551 56.0298 76.122 56.18C76.0809 56.3688 76.0494 56.4367 76.1069 56.6245C76.4436 56.8905 76.5733 56.7486 76.929 56.7252C76.4434 58.9546 76.1875 61.3698 76.1118 63.6568C75.8969 63.0627 75.7575 62.4425 75.6052 61.8282L75.5125 61.9203C75.417 61.9147 75.3265 61.9049 75.2323 61.8875C75.1383 62.0154 75.1526 62.0803 75.1339 62.2371C75.1354 62.2498 75.1365 62.2627 75.1384 62.2754C75.3298 63.5787 75.0006 65.6948 74.7589 66.9999C74.005 67.363 73.1918 67.5383 72.4031 67.7993C71.0438 68.2489 69.6888 68.8058 68.2679 68.9998C68.1454 68.5114 68.0618 68.006 67.9624 67.5113C69.4991 66.8693 70.9537 66.0276 72.4938 65.3928C72.7977 64.7448 72.9641 64.019 73.1653 63.3295C73.3724 62.62 74.3726 59.1539 74.8598 58.9128C75.1041 58.792 75.1948 58.6558 75.347 58.4268L75.3976 58.3495Z" fill="#FEFEFE"/>
<path d="M75.1338 62.2378C75.0169 61.8609 74.8393 61.421 74.8654 61.0216C74.8786 60.8186 74.9047 60.693 75.0502 60.5566L75.125 60.5796C75.4766 60.9395 75.5151 61.3424 75.6051 61.8289L75.5124 61.921C75.4169 61.9154 75.3265 61.9056 75.2322 61.8882C75.1382 62.0161 75.1525 62.081 75.1338 62.2378Z" fill="#1C1616"/>
<path d="M101.472 74.2422L101.685 74.2897C101.746 74.3536 101.779 74.4047 101.798 74.4944C101.914 75.0524 101.835 75.7181 101.856 76.2924C101.919 78.0312 101.959 79.7707 101.978 81.5107C102 82.9097 102.045 84.3779 101.914 85.7711C101.885 86.087 101.83 86.4711 101.645 86.7309C101.489 86.9513 101.147 87.0283 100.901 87.0754C99.9556 87.2572 98.9613 87.2532 98.0044 87.3482C95.4721 87.5997 92.94 87.7766 90.413 88.0931C89.2269 86.6737 87.7624 85.5251 86.5831 84.0907L86.5439 83.9772C86.8384 83.6744 90.617 83.6171 91.8954 82.6996C93.1208 84.4973 94.3162 85.7437 96.0234 87.0357C97.8129 86.9658 99.6475 86.8086 101.419 86.5312C101.598 84.1922 101.597 81.7932 101.541 79.447C101.512 78.2446 101.255 75.2916 101.472 74.2422Z" fill="#FEFEFE"/>
<path d="M12.2436 85.0762C12.8137 85.6065 13.1904 86.5538 13.7534 87.1572C14.8814 88.3663 18.7089 88.1522 20.3112 88.1556C19.3789 89.2471 18.4232 90.3154 17.4441 91.3604C16.9127 91.943 16.3634 92.506 15.7959 93.0494C14.7048 93.2671 13.2321 93.5656 12.146 93.3197C11.9097 93.2662 11.6904 93.1791 11.5662 92.946C11.0252 91.9309 11.9437 86.367 12.2436 85.0762Z" fill="#FEFEFE"/>
<path d="M77.6943 41.5508C78.0364 41.9144 78.2752 42.4417 78.5901 42.8431C79.8034 44.3901 81.2997 44.9803 83.0786 45.4775C83.1811 46.1815 83.1897 46.959 83.0608 47.6603C82.8213 48.9632 82.1556 49.7987 81.1273 50.5267C80.4841 50.9105 79.8225 51.184 79.0662 51.0747C78.2607 50.9583 77.5479 50.438 77.0638 49.7644C76.034 48.3314 76.0327 45.9384 76.2629 44.2312C76.4151 43.1026 76.8079 42.2475 77.6943 41.5508Z" fill="#FEFEFE"/>
<path d="M80.5355 45.4978C80.7512 45.5202 80.9779 45.5477 81.1287 45.7357C81.2919 45.9392 81.2479 46.1916 81.218 46.4322C81.1268 46.4368 81.0195 46.4481 80.9298 46.431C80.7452 46.3956 80.6677 46.3274 80.5556 46.1765C80.478 45.9287 80.5008 45.7534 80.5355 45.4978Z" fill="#1C1616"/>
<path d="M76.9959 45.3477C77.1107 45.3754 77.2107 45.4146 77.3206 45.4586C77.4183 45.5809 77.5089 45.655 77.4992 45.8288C77.4871 46.0445 77.3651 46.1579 77.225 46.2949C77.0785 46.2756 76.9144 46.2604 76.809 46.1341C76.6892 45.9905 76.6921 45.8887 76.6899 45.7121C76.7733 45.5168 76.8109 45.4592 76.9959 45.3477Z" fill="#1C1616"/>
<path d="M78.8549 46.0332C78.9548 46.103 79.0002 46.1575 79.0748 46.2536C79.1119 46.5101 78.9726 46.7486 78.8757 46.9775C78.96 47.1002 79.062 47.229 79.1294 47.3621C79.2218 47.5447 79.2004 47.566 79.1336 47.7458C79.0493 47.738 78.9628 47.7295 78.8835 47.6952C78.7295 47.6286 78.6406 47.4927 78.5856 47.3329C78.4457 46.9267 78.6806 46.3846 78.8549 46.0332Z" fill="#1C1616"/>
<path d="M76.9557 43.9572C77.1392 43.9418 77.338 43.9181 77.5201 43.9568C77.7029 43.9957 77.8207 44.0927 77.9153 44.255L77.8635 44.3851C77.7014 44.5254 77.5377 44.5527 77.3389 44.5993C77.032 44.6477 76.7739 44.7185 76.4979 44.5303L76.4883 44.3917C76.6161 44.1855 76.7608 44.0887 76.9557 43.9572Z" fill="#1C1616"/>
<path d="M78.446 49.2827C78.3536 49.2122 78.2549 49.117 78.1985 49.0096C78.116 48.8527 78.1189 48.7521 78.1502 48.5814L78.2608 48.5078C78.474 48.5891 78.5304 48.695 78.6765 48.8734C78.7144 48.8919 78.7519 48.9117 78.7904 48.9291C79.0843 49.0615 79.6695 49.1235 79.963 48.9783C80.2481 48.8371 80.3778 48.5454 80.7449 48.5723L80.7986 48.6552C80.6941 49.007 80.4507 49.3484 80.1345 49.5189C79.7967 49.7012 79.3215 49.7164 78.968 49.5798C78.7818 49.5079 78.6126 49.3938 78.446 49.2827Z" fill="#1C1616"/>
<path d="M29.4083 67.791C29.4974 67.9232 29.5892 68.0533 29.6837 68.1812C30.9421 69.8761 35.1804 70.1833 37.129 70.4198C35.639 71.9944 34.2165 73.6442 32.7478 75.2421C32.4115 75.604 32.0866 75.9789 31.7572 76.3481C31.0348 76.2041 30.3045 76.0994 29.5778 75.9837C28.9213 73.6769 27.1199 71.0253 25.9746 68.8896C27.1034 68.4729 28.259 68.1383 29.4083 67.791Z" fill="#FEFEFE"/>
<path d="M39.8849 39.2871C40.3991 39.7997 40.7964 40.4385 41.3226 40.9445C42.1712 41.7605 43.3227 42.3745 44.0248 43.3248C44.037 44.6508 43.6969 45.9041 43.1291 47.0814C42.5764 48.2272 41.8133 49.1653 40.6231 49.5722C40.5112 49.5982 40.4023 49.6201 40.2881 49.6307C39.6215 49.6929 39.003 49.355 38.5046 48.9141C37.3494 47.8924 36.6143 46.1984 36.4839 44.6349C36.6957 44.1471 37.0478 43.6923 37.3358 43.2503C38.1891 41.9406 39.1433 40.6706 39.8849 39.2871Z" fill="#FEFEFE"/>
<path d="M40.612 44.8984C40.6495 44.9103 40.6886 44.9174 40.7245 44.9339C40.8021 44.9695 40.8313 45.0155 40.8584 45.0945C41.0151 45.5482 41.103 46.0578 40.9004 46.5088C40.7667 46.3725 40.7251 46.2231 40.6733 46.039C40.5833 45.7176 40.4528 45.1991 40.612 44.8984Z" fill="#1C1616"/>
<path d="M42.1069 43.8887C42.2302 43.8895 42.4126 43.8797 42.5264 43.9318C42.6398 43.9839 42.707 44.0468 42.7621 44.1624C42.8101 44.2629 42.776 44.2799 42.7403 44.3756C42.5505 44.47 42.485 44.4541 42.2802 44.4398C42.2302 44.4622 42.1217 44.5134 42.0707 44.5242C41.9312 44.5539 41.8733 44.4724 41.774 44.3887L41.7646 44.2337C41.8608 44.0439 41.9376 43.9952 42.1069 43.8887Z" fill="#1C1616"/>
<path d="M38.4839 43.9504C38.6672 43.9482 38.9356 43.9201 39.1027 43.994C39.2927 44.0782 39.4655 44.2513 39.5441 44.4479L39.5007 44.5591L39.3503 44.607C39.188 44.5372 39.0621 44.4902 38.8839 44.5034C38.6674 44.5196 38.4924 44.5422 38.3178 44.3917C38.308 44.1942 38.3815 44.1033 38.4839 43.9504Z" fill="#1C1616"/>
<path d="M38.7518 42.4349C38.9831 42.4025 39.1991 42.3559 39.4056 42.4935L39.4137 42.5857C39.1953 42.8247 38.7327 42.9147 38.4369 43.0337C38.4221 43.0439 38.4078 43.0545 38.3926 43.0641C38.229 43.1677 38.1503 43.2098 37.9686 43.1628L37.9424 43.0322C38.1546 42.64 38.3684 42.5815 38.7518 42.4349Z" fill="#1C1616"/>
<path d="M41.4531 42.3725C41.6513 42.3602 41.8424 42.3627 42.0402 42.3861C42.3209 42.4193 42.6777 42.4922 42.8528 42.7505C42.9181 42.8469 42.8797 42.9232 42.8664 43.0334C42.4331 42.9328 41.9997 42.9034 41.5672 42.7939C41.4265 42.6531 41.4615 42.5714 41.4531 42.3725Z" fill="#1C1616"/>
<path d="M39.3855 47.2949C39.6443 47.3486 39.8293 47.5845 40.0865 47.6692C40.4903 47.8022 40.8868 47.4014 41.2862 47.3586C41.4117 47.3452 41.3548 47.3349 41.4684 47.4339C41.474 47.6028 41.3977 47.7188 41.3227 47.8611C41.0146 48.1245 40.7098 48.2419 40.3322 48.3466C40.0575 48.2323 39.6898 48.0984 39.498 47.8541C39.3476 47.6628 39.3561 47.5222 39.3855 47.2949Z" fill="#1C1616"/>
<path d="M87.1747 59.8379C88.2497 60.1943 89.8076 60.5228 90.3758 61.6662C90.7724 62.4648 90.7595 63.4943 90.7067 64.3705C90.5533 66.9074 89.8782 69.506 89.2757 71.9625C88.787 73.9552 88.297 75.9341 87.7358 77.9072L86.9424 77.0775C85.4083 75.4998 83.967 73.8046 82.4521 72.202C83.7105 72.0598 85.1073 71.8884 86.0604 70.9107C86.4109 70.5511 86.6058 70.0753 86.7235 69.5814C86.9898 68.4636 86.9876 67.1836 87.0383 66.0337C87.1295 63.9647 87.1821 61.9092 87.1747 59.8379Z" fill="#FEFEFE"/>
<path d="M96.1883 50.9824C96.2474 51.076 96.3075 51.1695 96.3742 51.2574C96.5521 51.4912 96.855 51.7707 97.1562 51.7831C97.5478 51.7992 97.8117 51.5468 98.0932 51.2983L98.2291 52.1832C98.0564 52.2273 97.8306 52.2756 97.6839 52.3867C97.548 52.4896 97.5135 52.586 97.4855 52.7513C97.9497 53.0931 99.1816 52.5204 99.758 52.5476C100.056 52.5617 100.451 53.3924 100.666 53.6094C100.812 53.7572 101.008 53.8723 101.179 53.9854C101.165 54.1885 101.132 54.4487 101.185 54.6474C101.384 55.379 102.377 55.2776 102.887 55.6178C102.963 55.7451 103.007 55.7916 102.988 55.9489C102.96 56.181 102.824 56.4725 102.651 56.6179C102.244 56.7562 102.091 56.6606 101.714 56.4689C100.916 58.3327 100.826 58.9802 99.0924 60.1368C98.4046 60.5403 97.6964 60.8991 96.9679 61.2132C95.793 60.6131 94.7636 60.0413 94.0757 58.8204C93.4685 57.7427 92.669 54.4955 93.0056 53.311C93.1419 52.8312 94.1934 53.1086 94.6079 52.8956L94.6378 52.7952C94.4104 52.4866 93.9864 52.3796 93.6428 52.2821C93.7958 52.0471 94.0664 51.5034 94.2822 51.3771C94.5019 51.5943 94.6385 51.7585 94.956 51.7625C95.4292 51.7685 95.8754 51.3078 96.1883 50.9824Z" fill="#FEFEFE"/>
<path d="M95.8988 55.8125C96.1314 56.117 96.0045 56.5914 96.1953 56.938C96.3144 56.9427 96.4294 56.9529 96.5476 56.9694C96.6482 57.1552 96.6225 57.2228 96.6085 57.4318C96.4181 57.3931 96.2519 57.3533 96.0956 57.2257C95.8723 57.0433 95.6958 56.7877 95.6732 56.4852C95.6523 56.2044 95.7321 56.0232 95.8988 55.8125Z" fill="#1C1616"/>
<path d="M94.1709 54.4199C94.3461 54.4359 94.5228 54.4771 94.6562 54.6067C94.7839 54.7306 94.851 54.8447 94.8507 55.0326C94.8505 55.3207 94.688 55.4796 94.5077 55.6653C94.3258 55.6482 94.1551 55.6214 94.0118 55.4905C93.8745 55.365 93.8235 55.2304 93.8232 55.0418C93.8227 54.7636 93.99 54.5916 94.1709 54.4199Z" fill="#1C1616"/>
<path d="M97.8943 54.4276C98.0962 54.4213 98.2689 54.4215 98.4411 54.5492C98.5876 54.6578 98.6481 54.776 98.6693 54.9609C98.7005 55.2337 98.551 55.4345 98.3905 55.626C98.1952 55.6535 98.0016 55.6856 97.8315 55.5498C97.6906 55.4371 97.6401 55.2937 97.6287 55.1135C97.611 54.8387 97.7319 54.6273 97.8943 54.4276Z" fill="#1C1616"/>
<path d="M97.723 58.1656C97.8917 58.1399 98.0268 58.1022 98.186 58.1879C98.2567 58.3733 98.2849 58.4747 98.2087 58.6734C98.0666 59.0444 97.7177 59.3448 97.3741 59.4953C96.9195 59.6946 96.5759 59.6288 96.1369 59.4283C95.8697 59.2138 95.5049 58.9389 95.4399 58.5709C95.6864 58.2299 96.4542 58.455 96.8346 58.4115C97.128 58.378 97.4398 58.2546 97.723 58.1656Z" fill="#1C1616"/>
<path d="M15.3476 45.9062C16.867 47.3439 17.4532 47.0851 19.0031 47.9607C19.708 48.3587 20.0933 48.9726 20.3167 49.7606C20.0235 49.6564 19.7246 49.5365 19.4233 49.4627C19.1743 49.4018 18.9251 49.345 18.7008 49.4922L18.7823 49.4475L18.6928 49.5758C18.6953 49.5855 18.6954 49.5963 18.7003 49.6049C18.9357 50.0131 19.8955 50.0889 20.3317 50.2947C20.3562 50.3063 20.3804 50.3185 20.4048 50.3304C20.4528 52.7466 19.9496 54.9551 18.5775 56.8933C18.4707 57.0183 18.3614 57.1409 18.2497 57.2611C17.7302 57.8157 17.0336 58.057 16.3036 58.0599C14.9642 58.0651 13.7231 57.2945 12.7997 56.3218C12.7018 55.7872 12.6306 55.2486 12.5861 54.7061C12.5417 54.1637 12.5243 53.6203 12.5338 53.0759C12.5726 50.6246 13.2547 50.0694 14.4078 48.0778C14.8051 47.3914 15.0872 46.659 15.3476 45.9062Z" fill="#FEFEFE"/>
<path d="M18.8734 51.268C19.0479 51.2616 19.2656 51.2554 19.4357 51.3041C19.581 51.3458 19.6476 51.4149 19.719 51.5468C19.7087 51.5659 19.7004 51.5863 19.688 51.6042C19.5999 51.7321 19.4539 51.7993 19.3059 51.8014C19.1501 51.8037 18.9901 51.7937 18.8338 51.7912C18.7155 51.8619 18.5931 51.943 18.467 51.9969C18.3394 52.0516 18.2732 52.0485 18.1511 51.9815L18.1445 51.844C18.341 51.4838 18.5031 51.4026 18.8734 51.268Z" fill="#0275A6"/>
<path d="M15.1078 49.2769C15.2868 49.2588 15.4836 49.2276 15.6631 49.2386C15.828 49.2487 15.993 49.2836 16.1127 49.4099C15.8841 49.7386 15.2727 49.7578 14.9215 49.8244C14.7822 49.8995 14.6345 49.9873 14.4866 50.0427C14.3485 50.0945 14.2457 50.1022 14.1118 50.039L14.1237 49.9136C14.4205 49.5383 14.6882 49.44 15.1078 49.2769Z" fill="#1C1616"/>
<path d="M14.0919 51.2633C14.5203 51.2421 14.9249 51.2568 15.3277 51.4323C15.4879 51.5022 15.5762 51.5899 15.6486 51.7567C15.6436 51.9108 15.6314 51.9708 15.5432 52.0949L15.3671 52.0931L14.746 51.7134C14.3982 51.7711 14.0907 51.8387 13.7553 51.6789L13.7183 51.5622C13.8308 51.4201 13.9417 51.351 14.0919 51.2633Z" fill="#1C1616"/>
<path d="M17.9556 52.3691L18.0052 52.4532C17.9844 52.9573 18.3023 53.8209 17.9917 54.2442C17.8437 54.4458 17.5904 54.482 17.3675 54.5076C17.3433 54.4787 17.3183 54.4504 17.295 54.4208C17.1889 54.286 17.1197 54.2227 17.1323 54.045C18.1419 53.8288 17.3382 53.1841 17.9556 52.3691Z" fill="#1C1616"/>
<path d="M15.4267 55.1014C15.8573 55.073 16.6116 55.151 17.0125 55.3401C17.1856 55.4216 17.3567 55.548 17.4123 55.7492C17.5001 56.0664 17.2642 56.4264 17.1152 56.6797C16.896 56.8704 16.6892 56.9905 16.3965 56.9629C16.1433 56.9389 15.9253 56.7931 15.7661 56.5896C15.4077 56.1318 15.3652 55.6697 15.4267 55.1014Z" fill="#1C1616"/>
<path d="M15.8657 55.623C16.2131 55.688 16.6845 55.6439 16.9693 55.8742C17.0407 56.0698 16.9971 56.1635 16.9582 56.3657C16.73 56.4521 16.4493 56.5656 16.2211 56.4168C15.9738 56.2554 15.9264 55.8961 15.8657 55.623Z" fill="#FEFEFE"/>
<path d="M79.335 38.8672C79.7026 38.8309 80.0787 38.8625 80.4442 38.9143C82.0551 39.1424 83.8365 40.0877 84.832 41.4639C86.3609 43.5776 85.3995 44.6521 85.7558 46.6587C86.0051 48.0629 86.9962 49.0057 86.7591 50.5557C86.6797 51.0748 86.4667 51.5008 86.0447 51.7964C85.5044 52.1747 84.7745 52.3043 84.1412 52.171C83.2224 51.9777 82.7057 51.2564 82.2214 50.4855C83.0954 49.5279 83.6607 48.5591 83.7501 47.2088C83.7785 46.7806 83.8074 45.4371 83.6105 45.1389C83.3542 44.7511 82.1762 44.5764 81.7389 44.4135C81.3555 44.2699 80.9859 44.0943 80.63 43.8866C79.9872 43.5048 79.4985 43.0088 79.0149 42.4285C78.6455 41.8983 78.4366 41.3069 78.0863 40.7762C77.9365 40.7155 77.932 40.7061 77.7801 40.755C77.2965 41.4222 76.6065 41.4294 76.1793 42.3205C75.3991 43.9483 75.406 47.2324 75.9632 48.9406C76.4762 50.513 77.4677 51.0752 78.7914 51.7608C78.6973 51.782 78.6047 51.8018 78.5097 51.8183C77.4893 51.9942 75.8893 52.277 74.9998 51.5708C74.5117 51.1834 74.2853 50.5308 74.2044 49.9148C73.9352 47.8654 75.1268 42.0312 76.3528 40.4212C77.059 39.4936 78.2402 38.9885 79.335 38.8672Z" fill="#FEFEFE"/>
<path d="M21.002 62.3203C21.2175 62.4063 21.338 62.5783 21.4693 62.7696C21.8856 63.3763 22.2229 64.0634 22.5854 64.7069C23.0589 65.5473 23.5579 66.3722 24.0394 67.2074C25.0787 69.0099 26.2004 70.762 27.1929 72.5933C27.8072 73.7271 28.3118 74.9349 28.936 76.0544C29.0352 76.2323 29.1837 76.539 29.3588 76.6269C30.0239 76.9605 31.3459 77.0633 32.0934 77.1967C33.6872 77.4811 35.2785 77.7449 36.8468 78.1634C36.4913 78.8557 36.1848 79.5713 35.9274 80.3101L35.6829 81.1329C34.6428 81.0807 33.566 80.8272 32.5378 80.6503C30.9435 80.3757 29.3034 80.143 27.7387 79.7191C27.4574 79.6429 27.1235 79.5573 26.8814 79.3848C26.1064 78.8328 25.5562 77.6535 25.1093 76.814C24.6041 75.8647 23.1202 73.084 22.866 72.1422C22.6433 71.3172 22.5805 70.4021 22.4179 69.5566C22.1314 68.067 21.7807 66.5957 21.5521 65.0936C21.4436 64.3807 21.4371 63.6026 21.2821 62.906C21.2419 62.7252 21.14 62.5593 21.0495 62.4016L21.002 62.3203Z" fill="#FEFEFE"/>
<path d="M62.5538 61.9054C63.7854 61.8951 65.0208 61.8635 66.2518 61.9091C66.6589 63.3046 66.824 65.0142 67.0917 66.4719C67.4476 68.4104 67.9345 70.327 68.168 72.2897C66.4146 71.9261 64.6378 71.6898 62.8763 71.3718C61.727 71.1191 59.4769 70.8456 58.5607 70.2723C57.9521 69.1561 57.6948 67.7251 57.3761 66.4883C56.9882 64.9827 56.5912 63.478 56.2974 61.9481C58.3152 61.8142 60.5185 61.9182 62.5538 61.9054Z" fill="#FEFEFE"/>
<path d="M82.3285 53.0566C82.6478 53.2315 82.9557 53.4566 83.2619 53.6572C83.0096 54.8482 82.7009 56.0348 82.1259 57.1017C81.9924 56.9056 81.9145 56.7437 81.6816 56.6853C81.5865 56.7386 81.5424 56.7414 81.4903 56.8488C81.391 57.0532 81.4006 57.3031 81.4973 57.5086C81.562 57.6464 81.6722 57.7455 81.8184 57.7704C81.9811 57.7981 82.1521 57.7289 82.2891 57.6416C83.2368 57.0373 83.4784 55.2999 83.7495 54.2604C84.5559 55.2422 85.0638 55.0967 85.7666 55.7423C86.3476 56.276 86.4578 57.7632 86.5133 58.5345C86.7013 61.1479 86.5629 63.7704 86.4108 66.3813C86.3516 67.3991 86.3471 68.5251 86.1061 69.5143C86.0304 69.8252 85.8953 70.0765 85.6911 70.3143C85.3207 70.7455 84.8332 70.9869 84.3118 71.1466C82.5765 71.6781 80.5378 71.6228 78.7416 71.686C77.5175 71.7291 76.2946 71.8011 75.0703 71.8382C75.2203 70.9964 75.2182 70.1154 75.2611 69.2602C76.909 69.0559 78.5703 68.947 80.2245 68.8156C80.8158 68.7686 81.4309 68.641 82.017 68.6263C82.1289 68.6235 82.1992 68.6449 82.2977 68.7002C82.3093 68.7067 82.4005 68.7636 82.4154 68.7689C82.5876 68.8309 82.617 68.8005 82.768 68.7166C83.2472 67.9743 83.3048 66.5578 83.4362 65.664C83.5238 65.0153 83.9344 62.2936 83.7015 61.8802C83.5564 61.796 83.5273 61.7951 83.3605 61.7997C83.2283 61.9155 83.2197 61.9529 83.1846 62.1333C83.0732 62.7039 83.0792 63.3513 83.0269 63.9363C82.9071 65.2764 82.7525 66.64 82.4385 67.9464C81.0176 68.0998 79.5948 68.2259 78.1749 68.3904C77.7948 66.2256 78.0667 65.4311 79.1856 63.606C79.667 62.8329 80.1316 62.0489 80.5795 61.2538C80.7555 60.9453 81.0472 60.5782 81.0665 60.2129C80.989 60.0664 80.988 60.0739 80.837 60.0164C80.7504 60.0466 80.6756 60.0768 80.6093 60.1463C80.068 60.7143 78.2277 63.8936 77.8443 64.7051C77.6841 65.0443 77.5358 65.4401 77.476 65.8149C77.353 66.585 77.5578 67.3047 77.5545 68.0625C77.5537 68.2321 77.5603 68.2583 77.4466 68.3678C77.2956 68.4029 77.1596 68.4722 77.0158 68.4055C76.8815 67.9819 77.0485 67.3525 77.1204 66.9146C77.6341 63.7888 79.0167 60.3894 80.3304 57.5372C81.0128 56.0555 81.7733 54.5988 82.3285 53.0566Z" fill="#FEFEFE"/>
<path d="M61.7051 76.1211C64.8295 77.0274 67.9032 78.111 71.0094 79.0755C71.6012 80.0981 72.1024 81.185 72.6398 82.2402C73.6846 84.291 74.7551 86.3799 75.9328 88.3493C76.4933 89.2868 78.9119 93.0623 79.0872 93.7417C78.5627 93.7454 77.9925 93.5682 77.4804 93.4523C74.7362 92.8314 72.1392 91.8211 69.536 90.726C68.922 90.4678 67.9578 90.1817 67.5014 89.6542C66.9415 89.0072 65.4562 85.079 65.0413 84.0874L61.7051 76.1211Z" fill="#FEFEFE"/>
<path d="M4.8617 70.5176C5.02484 70.611 6.43497 74.0247 6.59851 74.382C8.1243 77.6345 9.78165 80.8108 11.5706 83.9112C11.4366 85.1304 11.2558 86.3339 11.0605 87.5435C10.8214 89.0256 10.3017 91.017 10.5204 92.4939C10.5952 92.9992 10.7671 93.5225 11.1845 93.8229C12.2192 94.5678 13.7898 94.2314 14.9463 94.0381C13.9812 95.1637 12.8755 96.2013 11.8509 97.2727L11.7087 97.3968C11.6289 97.3922 11.5769 97.377 11.5086 97.3319C11.1733 97.1103 10.8648 96.8004 10.5639 96.5292C9.13357 95.24 7.94587 93.8251 6.91946 92.1636C6.05403 90.7626 5.36787 89.2671 4.68743 87.7605C3.30426 84.698 1.99966 81.4882 1.2237 78.1876C0.813541 76.443 0.540472 74.2797 1.48004 72.6626C2.26895 71.3048 3.47379 70.8808 4.8617 70.5176Z" fill="#FEFEFE"/>
<path d="M34.1931 53.3574C34.7078 53.5194 38.4299 60.7934 39.0121 61.8533C39.4631 62.6743 39.9536 63.4728 40.4288 64.2785C40.7279 64.7854 41.0046 65.5376 41.4384 65.9149C41.5576 66.0186 41.627 66.0408 41.7769 66.0238L41.8784 65.8781C41.9391 65.5834 41.8406 65.3058 41.7712 65.0203C42.0516 64.15 42.4027 63.3025 42.6972 62.4366C43.6873 59.5249 44.5299 56.4714 44.6933 53.3714C45.1802 53.7384 45.6207 54.1642 45.9355 54.7074C46.4559 55.6056 46.7936 56.6468 47.1733 57.6164C47.7073 58.9801 48.276 60.3468 48.9443 61.6445C49.218 62.1758 49.551 62.698 49.9079 63.1713C50.3003 63.6919 50.8012 64.2143 51.0629 64.8224C51.5664 65.9919 51.0014 67.8276 50.5943 68.9534C50.4674 68.7506 50.3421 68.5528 50.1779 68.3808C49.619 67.7956 49.0435 67.754 48.3 67.7674C48.4882 66.98 48.8087 66.2549 49.0507 65.4878C49.1416 65.1992 49.2211 64.9154 49.0834 64.6351C48.9867 64.612 48.9609 64.5877 48.8626 64.6322C48.5603 64.7687 48.4547 65.2398 48.344 65.5393C47.6026 64.5095 46.7875 63.5731 46.0708 62.5148C46.2388 61.0217 46.4974 59.26 45.9989 57.8128C45.8855 57.6981 45.8632 57.6669 45.7124 57.6299L45.6221 57.7025C45.432 58.1727 45.6037 58.9697 45.6529 59.4787C45.7188 62.223 44.8319 64.6066 44.0408 67.1764C43.2418 67.224 42.4577 67.4136 41.6567 67.4552L41.1311 66.89L40.6164 67.2603C38.631 66.2014 36.632 65.5202 34.4265 65.199C34.4589 64.3226 34.6775 59.1564 34.5063 58.7351C34.4471 58.589 34.4256 58.5792 34.295 58.5197L34.1622 58.6253C33.8364 59.3126 33.84 64.0125 33.7738 65.134C33.4518 65.1265 33.0628 65.0584 32.7579 65.1801C32.6257 65.2329 32.5811 65.2775 32.5235 65.4119L32.6213 65.4523L32.5425 65.4979C32.8671 65.8791 34.4952 65.8249 35.067 65.9546C36.7956 66.3466 38.464 66.8712 40.0316 67.7494C39.5674 68.4872 39.2547 69.1148 39.0149 69.9696C36.688 69.5139 34.2926 69.4934 32.0099 68.7834C31.4054 68.5954 30.514 68.2641 30.2167 67.6383C29.5603 66.2562 31.1156 58.7673 31.7155 56.9099C32.2061 55.391 32.77 54.0962 34.1931 53.3574Z" fill="#FEFEFE"/>
<path d="M10.7171 61.5957L10.8054 61.6412C10.7244 62.078 10.5347 62.8172 10.6525 63.2539C10.9037 64.1849 11.8922 64.7915 12.6616 65.1886C12.423 65.3747 12.1884 65.5548 12.0436 65.8324C11.8954 66.9512 21.073 76.0056 22.4068 77.7515C23.3215 78.9488 23.8979 80.4013 24.4907 81.7923C22.8806 81.7851 20.0313 81.6786 18.5078 81.215C17.6984 79.8513 16.9643 78.4414 16.1848 77.0589C15.7638 76.312 15.299 75.5938 14.8795 74.8462C14.3818 73.9592 13.396 71.8899 12.7578 71.2616C12.6187 71.1247 12.51 71.065 12.3206 71.0743C12.2269 71.2589 12.2205 71.408 12.2667 71.6133C12.3237 71.8664 12.4473 72.1114 12.5702 72.3363C13.3093 73.6889 14.166 74.9865 14.9214 76.3343C15.8664 78.0201 16.73 79.777 17.7543 81.4106C17.8914 81.6292 18.0285 81.7847 18.2377 81.9271C19.5542 82.4329 22.1059 82.426 23.5623 82.5113C25.935 82.6632 28.3093 82.7795 30.6851 82.8602C30.6045 84.1661 30.3815 85.6515 29.5437 86.671C28.5471 86.9357 27.3674 86.9227 26.3403 87.0053C23.5978 87.2255 17.7776 87.8229 15.2753 87.1193C14.8668 87.0044 14.5857 86.8257 14.2754 86.5238C12.8546 85.1419 10.9659 81.149 9.92464 79.2656C8.49533 76.6804 4.27435 68.8006 5.02149 66.1132C5.12281 65.7488 5.32618 65.4404 5.57778 65.1725C6.60933 64.0739 9.38231 62.4127 10.7171 61.5957Z" fill="#FEFEFE"/>
</svg>
