<svg width="32" height="32" viewBox="0 0 32 32" fill="none" xmlns="http://www.w3.org/2000/svg">
<path d="M9.30518 4.09803C10.4853 3.89696 11.6954 3.96329 12.8465 4.29213C13.9975 4.62096 15.0601 5.20392 15.9558 5.99803L16.0052 6.04203L16.0505 6.00203C16.9054 5.25176 17.9105 4.69243 18.9987 4.36134C20.087 4.03026 21.2333 3.93504 22.3612 4.08203L22.6892 4.13003C24.1109 4.37551 25.4398 5.00091 26.5351 5.93999C27.6304 6.87908 28.4514 8.09689 28.9111 9.46448C29.3708 10.8321 29.4521 12.2985 29.1464 13.7085C28.8407 15.1185 28.1593 16.4196 27.1745 17.474L26.9345 17.7207L26.8705 17.7754L16.9372 27.614C16.7079 27.8409 16.4042 27.977 16.0824 27.9971C15.7605 28.0172 15.4422 27.92 15.1865 27.7234L15.0612 27.614L5.07051 17.718C4.01214 16.6882 3.25944 15.3856 2.89579 13.9544C2.53213 12.5232 2.57171 11.0192 3.01014 9.60912C3.44856 8.19901 4.26872 6.93776 5.37979 5.96506C6.49086 4.99236 7.84948 4.34616 9.30518 4.09803Z" fill="#930303"/>
</svg>
