<svg width="32" height="32" viewBox="0 0 32 32" fill="none" xmlns="http://www.w3.org/2000/svg">
<path d="M15.9771 18.6667V4M15.9771 18.6667C13.7664 18.6667 11.9731 20.58 11.9731 22.1667C11.9731 24.5 13.7664 28 15.9771 28C18.1878 28 19.9811 24.5 19.9811 22.1667C19.9811 20.58 18.1878 18.6667 15.9771 18.6667ZM6.63843 13.3707V28M4.91443 4.17333L3.87177 4.276C3.69137 4.29381 3.5165 4.34822 3.35785 4.4359C3.19919 4.52358 3.06008 4.64269 2.94901 4.78595C2.83795 4.92921 2.75726 5.09361 2.71188 5.26911C2.66651 5.44461 2.65739 5.62752 2.6851 5.80667L3.5771 11.5613C3.72777 12.536 4.56777 13.348 5.55577 13.348H7.71977C8.70643 13.348 9.54643 12.536 9.69843 11.5613L10.5918 5.80667C10.6195 5.62752 10.6104 5.44461 10.565 5.26911C10.5196 5.09361 10.4389 4.92921 10.3279 4.78595C10.2168 4.64269 10.0777 4.52358 9.91902 4.4359C9.76036 4.34822 9.58549 4.29381 9.4051 4.276L8.3651 4.172C7.21774 4.05722 6.06179 4.05722 4.91443 4.172M23.9944 18.424V4.03467C25.5398 4.46133 28.1091 6.07067 28.5344 10.0373L29.2984 16.056C29.4318 17.1133 29.1638 18.168 28.1118 18.3493C27.2318 18.5 25.8971 18.5493 23.9944 18.424ZM23.9944 18.424V28" stroke="currentColor" stroke-width="1.5" stroke-linecap="round" stroke-linejoin="round"/>
</svg>
