<svg width="32" height="32" viewBox="0 0 32 32" fill="none" xmlns="http://www.w3.org/2000/svg">
<path d="M26.6663 12.6673C26.477 12.6673 26.3183 12.6038 26.1903 12.4767C26.0623 12.3495 25.9988 12.1909 25.9997 12.0007C26.0006 11.8104 26.0641 11.6518 26.1903 11.5247C26.3166 11.3975 26.4752 11.334 26.6663 11.334C26.8575 11.334 27.0161 11.3975 27.1423 11.5247C27.2686 11.6518 27.3321 11.8104 27.333 12.0007C27.3339 12.1909 27.2703 12.3495 27.1423 12.4767C27.0143 12.6038 26.8557 12.6673 26.6663 12.6673ZM13.9997 28.6673V22.9193L9.86634 27.0527L8.94767 26.134L13.9997 21.0833V18.0007H10.9183L5.86634 23.0513L4.94901 22.134L9.08234 18.0007H3.33301V16.6673H9.08234L4.94901 12.534L5.86634 11.6153L10.9183 16.6673H13.9997V13.586L8.94901 8.53398L9.86634 7.61665L13.9997 11.75V6.00065H15.333V11.75L19.4663 7.61665L20.3837 8.53398L15.333 13.586V16.6673H25.9997V18.0007H20.2503L24.3837 22.134L23.4663 23.0513L18.4157 18.0007H15.333V21.0833L20.3837 26.134L19.4663 27.0513L15.333 22.918V28.6673H13.9997ZM25.9997 8.97398V3.33398H27.333V8.97398H25.9997Z" fill="currentColor"/>
</svg>
