<svg width="32" height="32" viewBox="0 0 44 44" fill="none" xmlns="http://www.w3.org/2000/svg">
<circle cx="22.0003" cy="21.9993" r="18.3333" fill="#0077B5"/>
<path fill-rule="evenodd" clip-rule="evenodd" d="M17.2103 13.0936C17.2103 14.2349 16.3413 15.1586 14.9823 15.1586C13.6762 15.1586 12.8072 14.2349 12.8341 13.0936C12.8072 11.8968 13.6762 11 15.0083 11C16.3413 11 17.1843 11.8968 17.2103 13.0936ZM12.9434 30.0841V16.7899H17.075V30.0833H12.9434V30.0841Z" fill="white"/>
<path fill-rule="evenodd" clip-rule="evenodd" d="M20.3866 21.0334C20.3866 19.3752 20.332 17.9616 20.2773 16.7925H23.8661L24.0568 18.6138H24.1384C24.6822 17.7708 26.0412 16.4941 28.2432 16.4941C30.9612 16.4941 33.0001 18.2885 33.0001 22.2016V30.0868H28.8685V22.7194C28.8685 21.0057 28.2709 19.8375 26.7757 19.8375C25.6336 19.8375 24.9545 20.6258 24.683 21.3864C24.5737 21.6587 24.52 22.0386 24.52 22.4202V30.0868H20.3883V21.0334H20.3866Z" fill="white"/>
</svg>
