<svg width="32" height="32" viewBox="0 0 32 32" fill="none" xmlns="http://www.w3.org/2000/svg">
<g clip-path="url(#clip0_2179_317)">
<path d="M15.9997 15.9993C14.533 15.9993 13.333 14.7993 13.333 13.3327C13.333 11.866 14.533 10.666 15.9997 10.666C17.4663 10.666 18.6663 11.866 18.6663 13.3327C18.6663 14.7993 17.4663 15.9993 15.9997 15.9993ZM23.9997 13.5993C23.9997 8.75935 20.4663 5.33268 15.9997 5.33268C11.533 5.33268 7.99967 8.75935 7.99967 13.5993C7.99967 16.7193 10.5997 20.8527 15.9997 25.786C21.3997 20.8527 23.9997 16.7193 23.9997 13.5993ZM15.9997 2.66602C21.5997 2.66602 26.6663 6.95935 26.6663 13.5993C26.6663 18.026 23.1063 23.266 15.9997 29.3327C8.89301 23.266 5.33301 18.026 5.33301 13.5993C5.33301 6.95935 10.3997 2.66602 15.9997 2.66602Z" fill="currentColor"/>
</g>
<defs>
<clipPath id="clip0_2179_317">
<rect width="32" height="32" fill="currentColor"/>
</clipPath>
</defs>
</svg>
