<svg width="32" height="32" viewBox="0 0 32 32" fill="none" xmlns="http://www.w3.org/2000/svg">
<path d="M24 6.67935L24.0133 6.66468M28 5.33268V26.666C28 27.3733 27.719 28.0515 27.219 28.5516C26.7189 29.0517 26.0406 29.3327 25.3333 29.3327H6.66667C5.95942 29.3327 5.28115 29.0517 4.78105 28.5516C4.28095 28.0515 4 27.3733 4 26.666V5.33268C4 4.62544 4.28095 3.94716 4.78105 3.44706C5.28115 2.94697 5.95942 2.66602 6.66667 2.66602H25.3333C26.0406 2.66602 26.7189 2.94697 27.219 3.44706C27.719 3.94716 28 4.62544 28 5.33268Z" stroke="currentColor" stroke-width="1.5" stroke-linecap="round" stroke-linejoin="round"/>
<path d="M16 25.332C18.1217 25.332 20.1566 24.4892 21.6569 22.9889C23.1571 21.4886 24 19.4538 24 17.332C24 15.2103 23.1571 13.1755 21.6569 11.6752C20.1566 10.1749 18.1217 9.33203 16 9.33203C13.8783 9.33203 11.8434 10.1749 10.3431 11.6752C8.84286 13.1755 8 15.2103 8 17.332C8 19.4538 8.84286 21.4886 10.3431 22.9889C11.8434 24.4892 13.8783 25.332 16 25.332Z" stroke="currentColor" stroke-width="1.5" stroke-linecap="round" stroke-linejoin="round"/>
<path d="M16 21.332C14.9391 21.332 13.9217 20.9106 13.1716 20.1605C12.4214 19.4103 12 18.3929 12 17.332" stroke="currentColor" stroke-width="1.5" stroke-linecap="round" stroke-linejoin="round"/>
</svg>
