<svg width="120" height="120" viewBox="0 0 120 120" fill="none" xmlns="http://www.w3.org/2000/svg">
<path fill-rule="evenodd" clip-rule="evenodd" d="M38.112 24.976C45.3913 24.3479 52.6936 24.0223 60 24C67.52 24 74.944 24.392 81.888 24.976C90.24 25.68 95.648 26.16 99.776 27.136C103.536 28.024 105.64 29.2 107.448 31.048C107.64 31.248 107.928 31.552 108.104 31.768C109.704 33.608 110.744 35.912 111.344 40.264C111.984 44.928 112 51.008 112 60.2C112 69.28 111.984 75.28 111.344 79.88C110.752 84.168 109.712 86.448 108.104 88.312L107.44 89.032C105.6 90.904 103.52 92.064 99.856 92.928C95.8 93.888 90.512 94.352 82.304 95.04C75.352 95.616 67.808 96 60 96C52.192 96 44.64 95.616 37.696 95.04C29.488 94.352 24.2 93.888 20.144 92.928C16.472 92.064 14.392 90.904 12.56 89.032L11.896 88.312C10.296 86.448 9.256 84.168 8.656 79.88C8.016 75.28 8 69.28 8 60.2C8 51.008 8.016 44.92 8.656 40.264C9.256 35.912 10.296 33.608 11.896 31.768C12.08 31.552 12.36 31.248 12.552 31.048C14.36 29.2 16.464 28.024 20.224 27.136C24.36 26.16 29.76 25.68 38.112 24.976ZM0 60.2C0 42.264 0 33.296 5.84 26.536C6.128 26.2 6.52 25.776 6.832 25.456C13.072 19.064 21.2 18.376 37.44 17.008C44.56 16.4 52.216 16 60 16C67.784 16 75.44 16.4 82.56 17.008C98.8 18.376 106.928 19.064 113.168 25.456C113.48 25.776 113.864 26.2 114.16 26.536C120 33.296 120 42.264 120 60.2C120 77.92 120 86.784 114.152 93.544C113.83 93.9141 113.496 94.2743 113.152 94.624C106.904 101.016 98.928 101.68 82.968 103.008C75.84 103.608 68.064 104 60 104C51.936 104 44.16 103.6 37.04 103.008C21.072 101.68 13.096 101.008 6.848 94.624C6.5037 94.2743 6.17021 93.9141 5.848 93.544C0 86.784 0 77.92 0 60.2ZM42 43.064C41.9988 42.7313 42.0807 42.4036 42.2381 42.1105C42.3956 41.8175 42.6236 41.5683 42.9016 41.3856C43.1796 41.2029 43.4989 41.0925 43.8303 41.0642C44.1618 41.036 44.4951 41.0909 44.8 41.224L83.424 58.168C85.024 58.872 85.024 61.128 83.424 61.832L44.8 78.768C44.4957 78.9008 44.1632 78.9558 43.8323 78.9279C43.5015 78.9001 43.1828 78.7903 42.905 78.6086C42.6272 78.4268 42.399 78.1787 42.241 77.8867C42.083 77.5947 42.0002 77.268 42 76.936V43.064Z" fill="currentColor"/>
</svg>
