<svg width="32" height="32" viewBox="0 0 32 32" fill="none" xmlns="http://www.w3.org/2000/svg">
<path d="M5.33333 15.9993V29.3327M26.6667 15.9993V29.3327M4 15.9993H28M5.33333 22.666H26.6667M14.6667 19.3327H17.3333M16 9.33268V15.9993M19.1813 4.47268C19.0436 4.24513 18.9191 4.03402 18.808 3.83935C18.4747 3.24868 18.3067 2.95402 18.04 2.81002C17.7733 2.66602 17.4187 2.66602 16.708 2.66602H15.2933C14.5827 2.66602 14.2267 2.66602 13.96 2.81002C13.6933 2.95402 13.528 3.25002 13.1933 3.83935C13.0723 4.05246 12.9479 4.2636 12.82 4.47268C11.2173 7.09802 10.416 8.41002 10.736 8.87135C11.056 9.33268 12.56 9.33268 15.568 9.33268H16.432C19.44 9.33268 20.944 9.33268 21.264 8.87135C21.584 8.41002 20.784 7.09802 19.1813 4.47268Z" stroke="currentColor" stroke-width="1.5" stroke-linecap="round" stroke-linejoin="round"/>
</svg>
