<svg width="32" height="32" viewBox="0 0 32 32" fill="none" xmlns="http://www.w3.org/2000/svg">
<path d="M2.66699 26.6673V12.0007C2.66699 11.2934 2.94794 10.6151 3.44804 10.115C3.94814 9.61494 4.62641 9.33398 5.33366 9.33398H26.667C27.3742 9.33398 28.0525 9.61494 28.5526 10.115C29.0527 10.6151 29.3337 11.2934 29.3337 12.0007V26.6673C29.3337 27.3746 29.0527 28.0528 28.5526 28.5529C28.0525 29.053 27.3742 29.334 26.667 29.334H5.33366C4.62641 29.334 3.94814 29.053 3.44804 28.5529C2.94794 28.0528 2.66699 27.3746 2.66699 26.6673Z" stroke="currentColor" stroke-width="1.5"/>
<path d="M11.3335 3.33398L16.0002 8.00065L20.6668 3.33398" stroke="currentColor" stroke-width="1.5" stroke-linecap="round" stroke-linejoin="round"/>
</svg>
