<svg width="32" height="32" viewBox="0 0 44 44" fill="none" xmlns="http://www.w3.org/2000/svg">
<circle cx="22.0003" cy="21.9993" r="18.3333" fill="#1DA1F2"/>
<path fill-rule="evenodd" clip-rule="evenodd" d="M33 14.9502C32.1912 15.3096 31.3208 15.5515 30.4078 15.6608C31.3398 15.102 32.0555 14.2177 32.3921 13.164C31.521 13.6817 30.5538 14.0564 29.5264 14.2595C28.703 13.3825 27.529 12.834 26.2318 12.834C23.7393 12.834 21.7184 14.8549 21.7184 17.3473C21.7184 17.7008 21.7587 18.0454 21.8357 18.3761C18.0843 18.1884 14.7588 16.3911 12.5326 13.6604C12.1439 14.327 11.9217 15.102 11.9217 15.9292C11.9217 17.4947 12.7174 18.8763 13.9295 19.6858C13.1889 19.6623 12.4937 19.4592 11.8843 19.1212V19.1776C11.8843 21.365 13.4411 23.1887 15.5046 23.6045C15.1262 23.7071 14.7273 23.7629 14.3159 23.7629C14.0248 23.7629 13.7417 23.7343 13.466 23.6815C14.0402 25.4743 15.7077 26.7796 17.6824 26.8163C16.1381 28.0262 14.192 28.7485 12.0772 28.7485C11.712 28.7485 11.3527 28.7272 11 28.6847C12.9975 29.965 15.3696 30.7129 17.9185 30.7129C26.2201 30.7129 30.7598 23.8354 30.7598 17.8716C30.7598 17.6759 30.7562 17.4808 30.7466 17.288C31.6295 16.65 32.395 15.8551 33 14.9502Z" fill="white"/>
</svg>
