<svg width="32" height="32" viewBox="0 0 32 32" fill="none" xmlns="http://www.w3.org/2000/svg">
<path fill-rule="evenodd" clip-rule="evenodd" d="M12.3829 20.968C12.4934 20.9388 12.6096 20.9384 12.7203 20.967C12.831 20.9956 12.9324 21.0522 13.0149 21.1313L15.1809 23.2087C15.2691 23.2934 15.3322 23.4007 15.3635 23.5188C15.3948 23.637 15.393 23.7615 15.3583 23.8787L14.8856 25.4747C14.7677 25.8731 14.5286 26.225 14.2016 26.4813L11.1063 28.9053C10.8998 29.0703 10.6627 29.1927 10.4087 29.2654C10.1546 29.3382 9.88871 29.3599 9.62624 29.3293C9.36377 29.2987 9.10997 29.2164 8.8795 29.0871C8.64903 28.9578 8.44647 28.7842 8.28351 28.5762C8.12055 28.3681 8.00042 28.1299 7.93008 27.8752C7.85973 27.6205 7.84056 27.3543 7.87367 27.0922C7.90678 26.83 7.99152 26.577 8.12298 26.3478C8.25444 26.1186 8.43002 25.9177 8.63958 25.7567L11.2323 23.726L11.9143 21.4227C11.9468 21.3131 12.007 21.2137 12.0891 21.134C12.1712 21.0544 12.2724 20.9972 12.3829 20.968ZM12.8823 22.8507L12.4496 24.3087C12.4102 24.4414 12.3306 24.5586 12.2216 24.644L9.46158 26.8067C9.32712 26.9172 9.24123 27.076 9.22228 27.2491C9.20334 27.4221 9.25283 27.5957 9.36018 27.7327C9.46753 27.8698 9.62423 27.9594 9.79678 27.9824C9.96933 28.0055 10.144 27.9601 10.2836 27.856L13.3789 25.4313C13.4881 25.3461 13.5681 25.2288 13.6076 25.096L13.9649 23.8893L12.8823 22.8507ZM18.6669 7.99935C19.1974 7.99935 19.7061 7.78864 20.0811 7.41356C20.4562 7.03849 20.6669 6.52978 20.6669 5.99935C20.6669 5.46892 20.4562 4.96021 20.0811 4.58514C19.7061 4.21006 19.1974 3.99935 18.6669 3.99935C18.1365 3.99935 17.6278 4.21006 17.2527 4.58514C16.8776 4.96021 16.6669 5.46892 16.6669 5.99935C16.6669 6.52978 16.8776 7.03849 17.2527 7.41356C17.6278 7.78864 18.1365 7.99935 18.6669 7.99935ZM18.6669 9.33268C19.551 9.33268 20.3988 8.98149 21.0239 8.35637C21.6491 7.73125 22.0003 6.8834 22.0003 5.99935C22.0003 5.11529 21.6491 4.26745 21.0239 3.64233C20.3988 3.01721 19.551 2.66602 18.6669 2.66602C17.7829 2.66602 16.935 3.01721 16.3099 3.64233C15.6848 4.26745 15.3336 5.11529 15.3336 5.99935C15.3336 6.8834 15.6848 7.73125 16.3099 8.35637C16.935 8.98149 17.7829 9.33268 18.6669 9.33268Z" fill="currentColor"/>
<path fill-rule="evenodd" clip-rule="evenodd" d="M14.4915 9.57476C15.4435 9.22143 16.4662 9.24143 17.3842 9.71676C18.2575 10.1681 18.8489 10.9321 19.2209 11.7308C19.36 12.0294 19.4895 12.3092 19.6095 12.5701C19.9029 13.2061 20.1429 13.7281 20.3729 14.1834C20.6969 14.8281 20.9342 15.2061 21.1435 15.4501C21.3235 15.6588 21.4775 15.7648 21.6762 15.8421C21.9095 15.9341 22.2915 16.0174 22.9709 16.0381C23.4647 16.0529 23.9324 16.2632 24.2712 16.6228C24.61 16.9825 24.792 17.4619 24.7772 17.9558C24.7624 18.4496 24.5521 18.9173 24.1925 19.2561C23.8328 19.5948 23.3534 19.7769 22.8595 19.7621C21.9549 19.7348 21.1035 19.6188 20.3202 19.3128C19.5015 18.9928 18.8555 18.5041 18.3169 17.8761C18.2528 17.8016 18.1905 17.7256 18.1302 17.6481L17.8615 19.0508L20.7729 21.9234C20.9589 22.1061 21.1035 22.3261 21.1989 22.5688L22.8549 26.7888C22.9442 27.0165 22.9878 27.2596 22.9832 27.5041C22.9786 27.7487 22.9259 27.99 22.8281 28.2141C22.7302 28.4383 22.5892 28.6411 22.413 28.8107C22.2368 28.9804 22.0289 29.1137 21.8012 29.2031C21.5735 29.2924 21.3304 29.3361 21.0858 29.3315C20.8413 29.3269 20.6 29.2741 20.3758 29.1763C20.1516 29.0784 19.9489 28.9374 19.7792 28.7612C19.6095 28.585 19.4762 28.3771 19.3869 28.1494L17.8749 24.2981L12.6355 19.1281C12.435 18.9298 12.2819 18.6886 12.188 18.4227C12.094 18.1568 12.0615 17.873 12.0929 17.5928L12.3095 15.6794C11.7149 16.4481 11.2149 17.3728 10.8655 18.4661C10.7153 18.9368 10.3843 19.3285 9.94529 19.5551C9.50627 19.7817 8.99521 19.8246 8.52454 19.6744C8.05387 19.5242 7.66214 19.1932 7.43553 18.7542C7.20893 18.3152 7.166 17.8041 7.3162 17.3334C8.49487 13.6414 11.1609 10.8608 14.4695 9.58343L14.4735 9.58143L14.4915 9.57476ZM14.9582 10.8241L14.9475 10.8281C12.0262 11.9568 9.64487 14.4221 8.58687 17.7388C8.56573 17.805 8.55784 17.8747 8.56365 17.944C8.56946 18.0133 8.58886 18.0808 8.62074 18.1425C8.65262 18.2043 8.69636 18.2592 8.74946 18.3041C8.80256 18.349 8.86397 18.3829 8.9302 18.4041C8.99643 18.4252 9.06618 18.4331 9.13546 18.4273C9.20474 18.4215 9.27219 18.4021 9.33398 18.3702C9.39576 18.3383 9.45066 18.2946 9.49553 18.2415C9.54041 18.1884 9.57439 18.127 9.59554 18.0608C10.2582 15.9854 11.4122 14.4154 12.7689 13.3074C12.8715 13.2237 12.9967 13.1724 13.1286 13.1602C13.2605 13.1479 13.393 13.1752 13.5093 13.2386C13.6256 13.3019 13.7204 13.3985 13.7816 13.516C13.8428 13.6334 13.8676 13.7665 13.8529 13.8981L13.4182 17.7428C13.4095 17.8223 13.4188 17.9028 13.4455 17.9783C13.4722 18.0538 13.5155 18.1223 13.5722 18.1788L18.9122 23.4481C18.9793 23.5143 19.0302 23.5912 19.0649 23.6788L20.6282 27.6628C20.6527 27.7287 20.6901 27.7891 20.7381 27.8404C20.7862 27.8918 20.8441 27.933 20.9083 27.9617C20.9725 27.9904 21.0418 28.0061 21.1121 28.0077C21.1824 28.0094 21.2523 27.997 21.3178 27.9713C21.3833 27.9456 21.443 27.9071 21.4934 27.8581C21.5438 27.809 21.584 27.7505 21.6115 27.6857C21.6391 27.621 21.6534 27.5514 21.6538 27.4811C21.6541 27.4108 21.6404 27.3411 21.6135 27.2761L19.9575 23.0561C19.9305 22.987 19.8894 22.9244 19.8369 22.8721L16.6715 19.7494C16.5935 19.6725 16.5356 19.5775 16.5031 19.4728C16.4705 19.3681 16.4643 19.2571 16.4849 19.1494L17.1389 15.7328C17.1648 15.5969 17.2323 15.4724 17.3321 15.3766C17.432 15.2808 17.5591 15.2184 17.696 15.1982C17.8328 15.1779 17.9726 15.2006 18.0959 15.2633C18.2192 15.326 18.32 15.4256 18.3842 15.5481C18.6842 16.1194 18.9842 16.6081 19.3282 17.0081C19.7389 17.4861 20.2089 17.8374 20.8055 18.0708C21.3922 18.3001 22.0755 18.4041 22.8989 18.4288C22.9691 18.4322 23.0394 18.4216 23.1055 18.3976C23.1716 18.3735 23.2322 18.3366 23.2839 18.2889C23.3356 18.2411 23.3772 18.1836 23.4064 18.1196C23.4355 18.0555 23.4517 17.9864 23.4538 17.9161C23.4559 17.8458 23.444 17.7757 23.4188 17.7101C23.3935 17.6444 23.3554 17.5845 23.3068 17.5337C23.2581 17.4829 23.1998 17.4424 23.1352 17.4144C23.0707 17.3864 23.0012 17.3716 22.9309 17.3708C22.1709 17.3481 21.6215 17.2528 21.1909 17.0841C20.7709 16.9201 20.4402 16.6774 20.1322 16.3181C19.8149 15.9494 19.5202 15.4554 19.1822 14.7834C18.9132 14.2389 18.6531 13.6899 18.4022 13.1368L18.3989 13.1288C18.2793 12.8679 18.1504 12.5894 18.0122 12.2934C17.7255 11.6788 17.3122 11.1801 16.7722 10.9008C16.2202 10.6154 15.5929 10.5888 14.9582 10.8241Z" fill="currentColor"/>
</svg>
