<svg width="32" height="32" viewBox="0 0 32 32" fill="none" xmlns="http://www.w3.org/2000/svg">
<path d="M3.66699 11.9847C5.17843 10.1832 7.06633 8.73499 9.19782 7.74185C11.3293 6.7487 13.6526 6.23481 16.0041 6.23633C18.3556 6.23786 20.6781 6.75477 22.8083 7.75067C24.9385 8.74658 26.8246 10.1973 28.3337 12.0007" stroke="currentColor" stroke-width="1.5" stroke-linecap="round" stroke-linejoin="round"/>
<path d="M7.52051 15.9536C8.55982 14.715 9.85799 13.7193 11.3236 13.0366C12.7893 12.3538 14.3868 12.0007 16.0036 12.002C17.6205 12.0032 19.2174 12.3589 20.682 13.0439C22.1465 13.729 23.4431 14.7267 24.4805 15.9669M11.4072 20.0056C11.9702 19.3348 12.6734 18.7956 13.4672 18.4258C14.2611 18.0561 15.1263 17.8648 16.0021 17.8654C16.8778 17.8661 17.7428 18.0586 18.5361 18.4295C19.3294 18.8004 20.0318 19.3407 20.5938 20.0122" stroke="currentColor" stroke-width="1.5" stroke-linecap="round" stroke-linejoin="round"/>
<path d="M16.0004 25.7654C17.0645 25.7654 17.9271 24.9028 17.9271 23.8388C17.9271 22.7747 17.0645 21.9121 16.0004 21.9121C14.9363 21.9121 14.0737 22.7747 14.0737 23.8388C14.0737 24.9028 14.9363 25.7654 16.0004 25.7654Z" fill="currentColor"/>
</svg>
