<svg width="120" height="120" viewBox="0 0 120 120" fill="none" xmlns="http://www.w3.org/2000/svg">
<g clip-path="url(#clip0_2415_2815)">
<path d="M73.3434 13.375C73.7262 13.3212 74.2676 13.2868 74.6498 13.3368C74.9051 13.3701 75.0273 13.4374 75.1848 13.6376C75.2026 13.7745 75.2238 13.8402 75.1157 13.9519C74.7274 14.3528 71.7393 14.3982 71.0274 14.4391C70.5982 14.4397 69.6685 14.6676 69.3197 14.4768C69.1996 14.4113 69.1044 14.3082 69.0851 14.1695C69.0654 14.0278 69.1188 13.8955 69.2232 13.7988C69.5595 13.487 72.6691 13.4299 73.3434 13.375Z" fill="#0275A6"/>
<path d="M68.7805 3.05859C69.0198 3.06647 69.1444 3.10439 69.3173 3.2735C69.3497 3.36299 69.3971 3.4665 69.3801 3.56405C69.3036 4.00181 66.4651 7.78545 66.0164 8.14189C65.9951 8.14424 65.9739 8.14773 65.9525 8.14894C65.7486 8.16049 65.6496 8.11251 65.504 7.97647C65.4588 7.86927 65.4323 7.79212 65.4404 7.67313C65.4637 7.33124 68.362 3.46304 68.7805 3.05859Z" fill="#0275A6"/>
<path d="M45.5134 3.48242C45.6528 3.50932 45.79 3.53308 45.9101 3.61266C46.0524 3.70699 48.8492 7.83897 49.129 8.29871C49.1983 8.41254 49.2717 8.53425 49.2668 8.67232C49.2599 8.85974 49.1275 8.95382 49.0095 9.08345C48.858 9.0773 48.6839 9.06734 48.5658 8.96757C48.1065 8.57985 45.2679 4.32605 45.2686 3.89769C45.2688 3.71641 45.3962 3.60486 45.5134 3.48242Z" fill="#0275A6"/>
<path d="M44.7255 14.5979C44.9599 14.576 45.2711 14.5184 45.4978 14.5879C45.6595 14.6376 45.7276 14.7585 45.812 14.8897C45.8275 15.0381 45.8444 15.0824 45.7372 15.2041C45.277 15.7266 41.2281 15.5523 40.4052 15.5487L40.1726 15.552C40.002 15.5543 39.8198 15.5674 39.6523 15.53C39.4657 15.4883 39.2473 15.3803 39.1514 15.2112C39.101 15.122 39.1367 15.0887 39.1632 14.9985C39.3332 14.824 39.4865 14.7525 39.7282 14.7048C40.1717 14.6174 40.6717 14.6821 41.1246 14.6785C42.3207 14.6692 43.5326 14.6862 44.7255 14.5979Z" fill="#0275A6"/>
<path d="M58.3773 0C58.5398 0.00290421 58.6954 0.0169532 58.8081 0.148834C58.9694 0.337691 58.9714 0.658939 58.9761 0.895018C58.9966 1.91859 58.9571 5.9604 58.7541 6.65888C58.7119 6.8037 58.6044 6.91073 58.5004 7.01582C58.3567 6.99227 58.2262 6.97453 58.1049 6.88907C57.9854 6.80484 57.9387 6.71034 57.9215 6.56766C57.8745 6.17634 58.0506 0.73226 58.1062 0.450387C58.1406 0.275248 58.2652 0.133574 58.3773 0Z" fill="#0275A6"/>
<path d="M24.1585 110.834C24.7545 110.809 25.4137 110.724 26.004 110.79C26.5161 110.848 26.8863 111.092 27.1887 111.497C27.448 111.844 27.5149 112.194 27.4437 112.619C27.3615 113.111 27.0656 113.663 26.6359 113.942C26.4032 114.094 26.1251 114.11 25.8542 114.131C24.0635 114.274 22.2153 114.204 20.416 114.255L14.5291 114.412C13.0712 114.45 11.3032 114.651 9.8898 114.349C9.16194 114.15 6.85551 113.813 6.45735 113.347C6.44174 113.185 6.44857 113.125 6.56343 113.001C6.93819 112.598 10.3809 111.252 11.0073 111.16C12.2845 110.972 14.1348 111.073 15.4523 111.049C18.3552 111.007 21.2572 110.935 24.1585 110.834Z" fill="#0275A6"/>
<path d="M56.8544 8.35691C56.9316 8.34474 56.9424 8.34117 57.0327 8.33813C59.4177 8.25757 62.2221 9.29158 63.8824 10.9927C64.6659 11.7955 65.233 12.7282 65.6859 13.7448C66.8824 16.4306 66.8206 19.2601 65.1239 21.7401C64.0427 23.3203 62.4952 24.5396 61.72 26.3309C61.1614 27.6217 61.2234 28.9442 61.2028 30.3156C60.7836 30.8754 60.5896 31.5175 60.1981 32.0777C59.7023 32.7872 59.0022 33.0541 58.181 33.2051C57.2315 33.2998 56.1316 33.255 55.3358 32.6714C54.9516 32.3896 54.6955 31.989 54.4804 31.5747C53.5751 29.8309 53.9937 29.1232 53.6046 27.3867C52.7403 23.5283 49.1887 22.2033 48.5934 18.266C48.2641 16.0888 48.8 13.6172 50.144 11.837C51.9316 9.46923 54.0336 8.77665 56.8544 8.35691Z" fill="#0275A6"/>
<path d="M54.8564 29.6819C56.4974 30.0672 58.4967 29.8811 60.1595 29.6928C60.2661 29.8047 60.2322 29.9074 60.2357 30.0561C59.2634 30.1972 55.5435 30.5655 54.8918 29.9966C54.8213 29.9353 54.8551 29.7714 54.8564 29.6819Z" fill="#FEFEFE"/>
<path d="M59.8934 28.2906C59.9421 28.2819 60.0262 28.2647 60.0739 28.268C60.2219 28.2781 60.2568 28.345 60.3402 28.4492C60.3227 28.5578 60.3203 28.6011 60.2202 28.663C59.534 29.0872 56.4209 28.9357 55.4984 28.8479C55.1895 28.8366 55.0066 28.83 54.7436 28.6549L54.7305 28.586C55.3749 28.4094 56.2735 28.5266 56.9533 28.5089C57.9253 28.4836 58.9316 28.4233 59.8934 28.2906Z" fill="#FEFEFE"/>
<path d="M55.3179 30.9707C56.8009 31.2264 58.3114 31.1483 59.8069 31.0727C59.6348 31.3509 59.4402 31.5802 59.2214 31.8224C58.8851 32.0841 58.3538 32.2418 57.9357 32.2922C57.2299 32.3773 56.3501 32.2636 55.7849 31.8168C55.4808 31.5764 55.3687 31.3455 55.3179 30.9707Z" fill="#FC7A00"/>
<path d="M55.2926 18.0369C55.5534 18.2158 55.5185 18.6167 55.7954 18.777C56.0598 18.9301 58.1174 18.9675 58.3654 18.8196C58.736 18.5987 58.9143 18.1389 59.3647 18.0117C59.5161 18.0573 59.4556 18.0126 59.5416 18.1514C59.2377 18.6977 58.4981 19.1716 58.3362 19.7693C58.1934 20.2972 58.3525 21.0833 58.3889 21.6379C58.4381 22.3895 58.8259 27.1055 58.6558 27.453C58.509 27.4881 58.4282 27.4824 58.2814 27.4486C58.2515 27.4079 58.2051 27.375 58.1918 27.3266C58.1114 27.038 58.1823 26.5424 58.1588 26.2303C58.0337 24.7354 57.9 23.2412 57.7577 21.7478C57.7334 21.3495 57.7142 20.9486 57.6724 20.5518C57.6422 20.2648 57.6118 19.8158 57.3739 19.626L57.1868 19.7277L57.2347 19.6761C57.1593 19.776 57.1158 19.837 57.1008 19.9642C57.0429 20.4549 57.1919 21.1473 57.2308 21.6504C57.384 23.5962 57.554 25.5406 57.741 27.4837C57.2314 27.5281 56.7183 27.5448 56.2074 27.5704C56.3691 25.0198 56.2467 22.0124 56.0695 19.4527C55.8479 19.1507 55.5689 18.8984 55.3197 18.6195C55.1911 18.4757 55.0749 18.3393 55.0896 18.1455L55.2926 18.0369Z" fill="#FC7A00"/>
<path d="M56.7323 9.33482C57.8106 9.23631 58.9065 9.42451 59.9348 9.74474C60.0595 9.78344 60.1832 9.8252 60.3059 9.87004C60.4285 9.91488 60.5499 9.96272 60.6701 10.0136C60.7903 10.0644 60.9091 10.1182 61.0265 10.175C61.144 10.2317 61.2599 10.2914 61.3743 10.3539C61.4887 10.4164 61.6014 10.4817 61.7125 10.5498C61.8236 10.6179 61.9328 10.6887 62.0403 10.7622C62.1477 10.8357 62.2532 10.9118 62.3568 10.9906C62.4603 11.0693 62.5618 11.1506 62.6613 11.2344C62.7608 11.3182 62.858 11.4044 62.953 11.493C63.048 11.5816 63.1407 11.6725 63.2312 11.7657C63.3216 11.8589 63.4096 11.9543 63.4951 12.0518C63.5807 12.1494 63.6636 12.2491 63.7441 12.3508C63.8246 12.4525 63.9024 12.5561 63.9775 12.6616C64.0527 12.7672 64.1252 12.8745 64.1948 12.9836C64.2645 13.0928 64.3314 13.2036 64.3954 13.3161C64.4595 13.4285 64.5206 13.5425 64.5789 13.658C65.8034 16.0473 65.9643 18.6465 64.4544 20.9707C64.0344 21.6173 63.5121 22.1899 63.0156 22.7792C61.831 24.185 60.9113 25.5849 60.3359 27.3344L59.6722 27.4412C59.5887 24.9394 59.4169 22.4171 59.2238 19.9213C59.6339 19.5584 60.6246 18.5581 60.6855 18.0328C60.7057 17.8583 60.6732 17.7434 60.5559 17.6106C60.1345 17.1336 58.6059 17.0903 58.0095 17.0505C56.9673 16.9552 55.3692 17.0171 54.4015 17.4428C54.1773 17.5413 54.0408 17.65 53.9482 17.8782C53.9225 18.5262 54.8164 19.3528 55.2229 19.8277C55.1862 20.6746 55.2545 21.5309 55.2684 22.379L55.3395 27.5331C55.1 27.5379 54.8832 27.5462 54.6501 27.4864C54.4314 27.1229 54.404 26.596 54.2609 26.1897C54.0511 25.5937 53.7495 25.0225 53.4365 24.4737C52.1042 22.138 50.0039 21.1274 49.555 18.2131C49.237 16.1484 49.6983 14.008 50.9807 12.3217C52.3879 10.4714 54.4708 9.64291 56.7323 9.33482Z" fill="#FC7A00"/>
<path d="M58.2106 108.702C60.5751 108.589 63.0615 108.751 65.4108 109.022C66.4297 109.14 67.7306 109.461 68.7209 109.454C69.3915 109.448 70.0734 109.17 70.751 109.118C74.142 108.857 77.3322 108.847 80.7251 108.966C81.3825 108.989 82.4473 108.903 83.0397 109.173C83.7492 109.496 89.8465 117.652 90.1589 118.565C90.2203 118.744 90.2197 118.864 90.1378 119.033C88.8792 119.592 84.057 119.335 82.3867 119.314C81.2253 119.3 80.0617 119.322 78.8997 119.313C76.8074 119.314 74.68 119.316 72.5979 119.524C71.3002 119.654 69.976 120 68.6737 120.001C68.0058 120.001 67.3243 119.896 66.6606 119.826C65.4954 119.695 64.3285 119.58 63.1599 119.483C59.1155 119.161 55.1084 118.979 51.0514 119.114C50.3771 119.137 49.7029 119.144 49.0292 119.186C48.549 119.216 47.9997 119.31 47.5225 119.268C47.4056 119.258 47.2731 119.226 47.1827 119.148C47.1052 119.082 47.0701 119.013 47.0643 118.915C46.9822 117.537 52.9126 110.877 54.1977 109.553C54.4297 109.314 54.7002 109.01 55.0101 108.873C55.5593 108.629 57.4998 108.718 58.2106 108.702Z" fill="#0275A6"/>
<path d="M57.832 109.614C60.3027 109.488 62.8418 109.734 65.298 110C66.3055 110.108 67.3443 110.191 68.334 110.409C68.3511 111.049 68.3279 112.679 68.6381 113.193C68.7269 113.34 68.7941 113.368 68.9553 113.414C69.0691 113.383 69.1541 113.359 69.2445 113.278C69.5524 113.002 69.3057 110.82 69.293 110.284C70.3045 110.038 71.3942 110 72.4323 109.937C75.8615 109.726 79.269 109.836 82.698 109.995C83.545 110.948 84.2938 111.997 85.0606 113.014C85.8939 114.118 86.7524 115.212 87.5438 116.346C85.8215 116.06 84.0506 116.039 82.3089 115.968C79.3927 115.84 76.3459 116.031 73.4502 116.369C72.585 116.473 71.7213 116.589 70.8593 116.716C70.3124 116.795 69.7385 116.917 69.1862 116.918C68.2429 116.918 67.2578 116.57 66.3219 116.424C64.9867 116.215 63.6304 116.114 62.2825 116.022C59.666 115.843 56.9998 115.775 54.3793 115.889C52.8257 115.957 51.2749 116.151 49.7246 116.201C50.5655 115.3 51.3332 114.283 52.1215 113.335C53.1401 112.112 54.1874 110.914 55.2634 109.74L57.832 109.614Z" fill="#FEFEFE"/>
<path d="M19.0726 36.619C20.2867 36.7255 21.5751 36.6387 22.797 36.6482L30.5739 36.6983C31.6056 36.6986 32.9518 36.5882 33.9455 36.6871C34.1386 36.7063 34.3353 36.7971 34.4856 36.9159C34.7695 37.1409 34.8408 37.4587 34.875 37.8027C34.9318 38.3725 34.9406 41.2659 34.8522 41.7555C34.8172 41.9494 34.7359 42.153 34.5981 42.2987C34.1766 42.7439 33.1287 42.6395 32.5462 42.6854C32.509 44.0131 32.66 45.3637 32.5131 46.6851C32.9893 46.698 33.5088 46.6036 33.9748 46.7035C34.3735 46.789 34.5245 46.9778 34.7423 47.3043C34.7632 48.6884 34.7551 50.0723 34.7182 51.456C35.5781 51.4492 37.6339 51.3257 38.3505 51.4477C38.5623 51.4837 38.7754 51.5625 38.9399 51.7018C39.1681 51.895 39.2569 52.1587 39.2793 52.4472C39.3324 53.1308 39.2094 54.2656 38.7159 54.779C38.5557 54.9456 38.2927 54.9548 38.0758 54.9724C36.9616 55.0623 35.7917 54.9763 34.6719 54.9773L27.388 54.9961L14.3469 54.9959C12.2645 54.9923 10.1623 55.0594 8.08276 54.9801C7.89707 54.973 7.54044 54.9789 7.39329 54.869C7.19555 54.7215 7.16048 54.4501 7.14761 54.222C7.11303 53.6093 6.98431 52.1962 7.44219 51.7215C7.57624 51.5825 7.74955 51.5093 7.93969 51.4797C8.44075 51.402 9.0134 51.5065 9.52418 51.5146C10.5742 51.531 11.6275 51.513 12.6779 51.5123C12.6754 50.2503 12.6312 48.9639 12.7429 47.7059C12.1557 47.6806 10.9918 47.8316 10.5425 47.4255C10.2701 47.1792 10.1996 46.6342 10.1794 46.2931C10.126 45.3875 10.0193 42.5267 10.6836 41.9897C11.2628 41.5214 14.3855 41.7335 15.2444 41.7435C15.261 40.5684 15.1441 38.6073 15.3028 37.5378C15.3382 37.2987 15.4228 37.0364 15.5874 36.8518C15.6746 36.7543 15.7807 36.6775 15.9099 36.6462C16.5637 36.4878 18.2014 36.6699 19.0028 36.6235L19.0726 36.619Z" fill="#0275A6"/>
<path d="M30.6748 42.6838C30.9825 42.666 31.2905 42.6821 31.5983 42.6918C31.5963 43.4696 31.6943 46.0741 31.5368 46.614L31.4092 46.6597C31.1794 46.6691 30.9295 46.706 30.7178 46.6042C30.5071 45.7624 30.7435 43.7897 30.6806 42.7714L30.6748 42.6838Z" fill="#FEFEFE"/>
<path d="M32.4433 47.6632C32.88 47.6302 33.3206 47.6425 33.7583 47.6447C33.7642 48.2469 33.9155 51.0355 33.6997 51.4267L33.4632 51.4463C32.9836 51.4662 32.5031 51.4549 32.0234 51.4495C32.1628 50.2552 32.0593 48.9759 32.0582 47.7715C32.1588 47.6731 32.3051 47.6838 32.4433 47.6632Z" fill="#FEFEFE"/>
<path d="M33.2917 37.6602L33.9159 37.684L33.8926 41.682L32.9812 41.688L31.9556 41.6719C32.0311 40.3405 31.8672 38.9943 32.0255 37.6649C32.4483 37.6758 32.8695 37.6929 33.2917 37.6602Z" fill="#FEFEFE"/>
<path d="M16.2412 41.0938C17.9624 41.1851 30.6268 40.9628 30.993 41.1908C31.0407 41.3492 31.042 41.4284 31.0048 41.5894C30.8437 41.704 30.5359 41.6572 30.3325 41.6568C29.3298 41.5459 28.2353 41.6378 27.2227 41.6332L20.1554 41.6453C18.8906 41.6525 17.5841 41.7264 16.3239 41.6389C16.2244 41.4647 16.2467 41.2899 16.2412 41.0938Z" fill="#FEFEFE"/>
<path d="M11.4196 42.7042C12.0833 42.688 12.7471 42.6872 13.4109 42.7018C13.3873 43.2716 13.4422 46.4388 13.2863 46.6994C12.5848 46.7084 11.8891 46.7066 11.188 46.6763C11.1426 45.9502 11.0946 43.5847 11.2584 42.9801C11.2874 42.873 11.353 42.7909 11.4196 42.7042Z" fill="#FEFEFE"/>
<path d="M16.279 37.6055L26.0505 37.6665C27.57 37.6748 29.6076 37.805 31.051 37.6419C31.0224 38.2477 31.1518 39.5385 30.9759 40.0569L30.8282 40.0956C29.6303 40.1824 28.3808 40.1138 27.1774 40.1102L20.2431 40.0972C19.7902 40.0976 16.3978 40.19 16.2919 40.1207C16.1418 39.3164 16.2491 38.4197 16.279 37.6055Z" fill="#FEFEFE"/>
<path d="M8.13856 52.448C12.1142 52.5714 16.1166 52.4809 20.0948 52.4795C26.1584 52.4771 32.23 52.5089 38.2923 52.4199C38.2456 52.9327 38.2136 53.4703 38.0541 53.9623C34.2373 54.0629 30.4078 54.004 26.5895 53.9914C23.0124 54.0086 19.4353 54.007 15.8583 53.9867C14.1763 53.9778 12.4944 53.9854 10.8125 54.0096C9.99864 54.0193 9.0992 54.1157 8.29723 54.0115C8.2833 53.9932 8.26724 53.9762 8.25542 53.9564C8.05161 53.6152 8.06758 52.8269 8.13856 52.448Z" fill="#FEFEFE"/>
<path d="M15.0698 42.6682C18.261 42.7464 21.4886 42.6852 24.6814 42.6658C25.4005 42.6615 29.3203 42.5417 29.7079 42.6867C29.83 43.3743 29.8134 45.9586 29.7063 46.6534C26.9538 46.6996 24.1966 46.6252 21.4433 46.6463L17.1139 46.6693C16.1715 46.6778 15.2205 46.7218 14.2793 46.6768C14.3903 45.3497 14.347 44.0184 14.3066 42.6889L15.0698 42.6682Z" fill="#FEFEFE"/>
<path d="M13.78 47.6806C16.8543 47.6564 19.9287 47.6483 23.003 47.6564C25.7042 47.6508 28.415 47.6197 31.1152 47.6884C31.0355 48.9247 31.1679 50.1705 31.1061 51.4062L30.9833 51.4579L13.6674 51.5044C13.6843 50.7998 13.5575 48.1485 13.78 47.6806Z" fill="#FEFEFE"/>
<path d="M79.5257 16.4167C79.6509 16.4122 79.819 16.3934 79.9339 16.4508C80.4293 16.6985 80.8353 17.7121 81.0785 18.2039C82.5505 21.1828 84.466 25.6873 84.4475 29.0264C84.4397 30.4357 84.1571 31.6386 83.6974 32.9585C84.431 34.1856 85.3515 36.4429 85.7065 37.8391C85.9342 38.735 86.0487 39.6751 86.3325 40.5542L86.3584 40.6328C86.3898 39.7769 86.1673 38.9178 86.1897 38.0495C86.2703 34.9211 87.6721 31.6738 89.5973 29.2051C89.9961 28.6939 90.9981 27.2708 91.645 27.2798C91.792 27.2818 91.911 27.3261 91.9842 27.457C92.4219 28.2407 91.4854 33.5791 91.2052 34.5732C90.6864 36.4145 89.8637 38.2439 88.2037 39.3608C87.9246 39.5486 87.6184 39.6209 87.3424 39.7892C87.2685 39.8342 87.2202 39.8585 87.192 39.9434C87.0135 40.4835 86.9932 41.6706 86.8581 42.3472C89.1902 42.2903 91.624 42.4049 93.9394 42.1136C94.1492 41.0132 94.2866 39.8981 94.4581 38.7913L95.3508 33.0848C95.518 32.0069 95.7223 29.7656 96.1726 28.8372C96.2327 28.8025 96.2353 28.7962 96.3146 28.7782C96.5095 28.734 101.098 29.3604 101.613 29.4766C101.805 29.5198 101.959 29.5666 102.124 29.6738C102.24 30.5142 101.773 32.6259 101.635 33.5387C101.299 35.8808 100.946 38.2204 100.575 40.5575L98.935 51.6899C100.229 51.707 101.523 51.701 102.817 51.6721C102.699 47.2494 102.745 42.7914 102.746 38.3663L102.753 33.3629C102.755 32.411 102.725 31.433 102.793 30.4838C102.818 30.1389 102.863 29.8086 103.047 29.509C103.138 29.4633 103.219 29.4322 103.321 29.4139C104.298 29.2358 105.462 29.3889 106.46 29.3707C107.116 29.3587 107.796 29.2545 108.449 29.307C108.622 29.3209 108.971 29.3519 109.096 29.4857C109.256 29.657 109.284 30.1406 109.303 30.3735C109.38 31.3117 109.321 32.2975 109.324 33.2408L109.385 37.7299C109.383 40.0148 109.441 42.3004 109.465 44.5851L109.526 51.6296C110.51 51.6233 111.551 51.4873 112.528 51.5901C112.719 51.6102 112.869 51.6472 112.99 51.8034C113.366 52.2912 113.262 53.5924 113.198 54.1809C113.171 54.4328 113.103 54.9008 112.865 55.0506C112.768 55.1119 112.656 55.1409 112.544 55.1604C111.887 55.2746 111.072 55.1719 110.394 55.175L104.743 55.1999L86.3048 55.3046C84.0597 55.3498 81.8143 55.3814 79.5688 55.3995C78.7731 55.4068 77.7052 55.5242 76.9458 55.3805C76.8164 55.2147 76.774 55.0715 76.7431 54.8646C76.6605 54.3136 76.5265 52.5452 76.8329 52.1454C77.1894 51.9341 79.8608 52.0291 80.5068 52.0184C80.3486 49.269 80.1729 46.5116 80.0588 43.7604C80.0446 43.4224 80.0113 42.9169 80.2506 42.6599L80.1899 42.6635C80.7305 42.4011 84.8271 42.4626 85.826 42.3807C85.3033 40.9369 85.1652 39.3751 84.6989 37.9125C84.1368 38.0229 83.6524 38.1009 83.1583 38.4072C82.3373 40.2272 80.3986 41.8604 78.5976 42.7028C77.9224 43.0186 75.0499 43.9596 74.3776 43.6231C74.2354 43.5518 74.1416 43.4689 74.0998 43.3104C74.0435 43.0969 74.1566 42.8345 74.2528 42.6491C75.0525 41.106 77.4502 38.7676 78.987 37.8877C79.6084 37.5318 80.2808 37.3068 80.9647 37.1C80.3467 37.0613 79.735 36.9775 79.1297 36.8486C76.6543 36.3244 74.6107 35.1126 72.8434 33.3471C72.5122 33.0161 72.091 32.6608 71.8498 32.2604C71.7514 32.0972 71.7384 32.0016 71.7878 31.821C71.9295 31.6711 72.0415 31.6129 72.2464 31.5709C72.9469 31.4274 73.8609 31.5942 74.5758 31.6689C76.9886 31.9211 79.5919 32.3136 81.7866 33.392C82.3278 33.6579 82.8308 34.0039 83.331 34.3367C83.1342 33.9265 82.9841 33.506 82.8333 33.0777C82.5864 32.9385 82.3368 32.7977 82.1001 32.6421C80.4743 31.5731 79.7455 29.4024 79.4022 27.6041C78.8478 24.6993 78.9162 21.7305 79.1132 18.7967C79.1616 18.0772 79.1064 17.0248 79.5257 16.4167Z" fill="#0275A6"/>
<path d="M84.1538 36.6406L84.2483 36.6712C84.3388 36.8277 84.3956 36.8764 84.376 37.0591C83.8958 37.2743 83.3512 37.3407 82.8562 37.5585L82.7488 37.6063C82.5811 37.4758 82.4317 37.3205 82.2793 37.173C82.9309 37.0494 83.5601 36.9443 84.1538 36.6406Z" fill="#FEFEFE"/>
<path d="M81.1786 37.9414C81.3464 37.9275 81.5102 37.8814 81.6639 37.9535C81.0489 38.5019 77.5714 40.4587 77.4935 41.0759C77.4733 41.2358 77.54 41.3498 77.631 41.471C77.8284 41.5175 77.9342 41.5033 78.116 41.4103C78.636 41.1446 79.0963 40.6999 79.5776 40.3671C80.2738 39.8858 81.0302 39.4651 81.7575 39.0302C81.2975 39.4906 80.8766 39.976 80.3999 40.4229C78.8813 41.6999 77.2611 42.2855 75.3315 42.6716C76.5061 40.8684 79.0577 38.4895 81.1786 37.9414Z" fill="#FEFEFE"/>
<path d="M91.0515 28.8633C91.0575 28.8893 91.0664 28.9149 91.0693 28.9414C91.1244 29.4533 90.9413 30.1404 90.8831 30.666C90.5793 33.4053 90.088 36.2853 88.0282 38.3128C88.3888 37.1539 88.7264 35.9881 89.1322 34.8434C89.4154 34.0441 89.7556 33.2659 90.0429 32.4688C90.1252 32.2402 90.203 32.1123 90.0962 31.8884C89.9291 31.7676 89.8169 31.7517 89.6188 31.7329C88.733 32.4481 87.5223 36.8746 87.0459 38.1791C87.0543 37.4146 87.2286 36.6212 87.4157 35.8824C88.0901 33.2201 89.3769 31.0202 91.0515 28.8633Z" fill="#FEFEFE"/>
<path d="M73.3867 32.555C76.2207 32.5345 80.8276 33.5171 82.9479 35.3271C82.0046 35.0622 77.727 33.5208 77.1764 33.5904C77.039 33.6711 76.9722 33.6919 76.9472 33.8644C76.922 34.0371 77.026 34.1683 77.1173 34.3011C78.695 35.1387 81.2699 35.9419 83.0372 36.2389C82.8828 36.252 82.7281 36.2602 82.5732 36.2633C81.7252 36.2772 80.8857 36.172 80.0519 36.0316C77.2365 35.5579 75.4208 34.4655 73.3867 32.555Z" fill="#FEFEFE"/>
<path d="M80.0775 18.4043C80.124 18.4504 80.1344 18.4571 80.176 18.5196C80.4857 18.9843 80.7081 19.6264 80.9287 20.1386C81.944 22.4975 83.0782 25.1753 83.4045 27.7349C83.5474 28.8569 83.4689 29.9916 83.3065 31.107C83.0214 29.738 82.5658 28.3594 82.2072 27.0044C81.9447 26.0118 81.5039 23.8764 81.084 23.0213C81.0006 22.8512 80.9625 22.8017 80.7817 22.7429C80.5786 22.7717 80.4953 22.8044 80.3301 22.9246C80.2885 23.0573 80.2458 23.1848 80.2616 23.3255C80.3399 24.0239 80.6113 24.7808 80.7905 25.4654C81.3449 27.5833 81.9941 29.6725 82.5595 31.7877C82.2609 31.5125 81.9812 31.2411 81.7435 30.9119C81.1546 30.0964 80.7621 29.097 80.5146 28.1312C79.8894 25.6912 79.646 20.8558 80.0775 18.4043Z" fill="#FEFEFE"/>
<path d="M111.66 52.5753C111.782 52.5344 112.035 52.5667 112.171 52.5684C112.219 53.1007 112.19 53.6487 112.187 54.183C108.824 54.1805 105.461 54.202 102.099 54.2476L78.6518 54.4661C78.6294 54.4723 78.6078 54.4838 78.5844 54.4851C78.4086 54.4939 78.2318 54.4902 78.0508 54.5018C77.8934 54.5121 77.8395 54.5076 77.72 54.4061C77.6542 53.9748 77.6401 53.4677 77.7331 53.0397C77.8728 52.9695 78.0268 52.9582 78.1827 52.957L99.4127 52.6577C103.493 52.6217 107.581 52.6883 111.66 52.5753Z" fill="#FEFEFE"/>
<path d="M96.8147 29.7246C98.2325 30.061 99.7322 30.1292 101.175 30.3436C100.629 32.9016 100.371 35.5448 99.9551 38.128C99.4765 41.0999 99.0653 44.0768 98.635 47.0556C98.4128 48.5938 98.0993 50.1455 97.958 51.6908C96.5075 51.5735 95.0479 51.2717 93.6143 51.0251C93.6973 49.5661 94.0401 48.0733 94.2522 46.6219L96.0881 34.5638C96.3263 32.9602 96.6895 31.3391 96.8147 29.7246Z" fill="#FEFEFE"/>
<path d="M107.665 30.3157C107.874 30.3212 108.096 30.2903 108.306 30.2771C108.42 35.0289 108.429 39.7935 108.469 44.5467C108.488 46.8772 108.393 49.2695 108.579 51.5912C107.363 51.6648 106.123 51.6244 104.904 51.6288L103.748 51.6491L103.761 37.867C103.763 35.3949 103.662 32.8827 103.794 30.417C105.07 30.2643 106.383 30.3806 107.665 30.3157Z" fill="#FEFEFE"/>
<path d="M56.5388 35.5059C57.6796 35.3313 59.7133 35.4431 60.8437 35.6582C64.106 36.2787 66.691 38.0978 68.5238 40.7971C71.4622 45.1245 72.0118 50.6558 72.2197 55.7198C72.4377 61.0295 72.1841 65.8993 71.1277 71.1159C73.239 71.4997 75.1617 71.781 77.1049 72.7631C79.1665 73.8051 80.8466 75.3479 82.1741 77.2104C84.1049 79.9191 85.3362 83.1447 86.5441 86.213C88.0803 90.2198 89.5183 94.2606 90.8583 98.3353C91.6726 100.842 92.4203 103.371 93.246 105.874C93.8481 105.907 94.4532 105.859 95.0558 105.85C96.0274 105.84 96.9991 105.836 97.9708 105.84C103.227 105.825 108.483 105.777 113.739 105.698C114.661 105.686 119.284 105.547 119.815 105.721C119.931 105.838 119.983 105.924 119.997 106.093C120.012 106.263 119.969 106.356 119.859 106.479C119.032 106.807 114.68 106.631 113.462 106.651L82.4776 106.91L55.4685 107.253L48.6033 107.331C47.1536 107.351 45.685 107.416 44.2374 107.345C44.2002 107.412 44.1616 107.477 44.1214 107.542C42.4617 110.251 39.769 113.065 36.5535 113.815C35.0804 114.159 33.4709 114.02 32.173 113.217C30.2368 112.02 29.4192 109.697 28.9252 107.615C26.5946 107.747 24.232 107.69 21.8974 107.699L10.4644 107.771C8.01875 107.809 5.57292 107.833 3.12694 107.843C2.46073 107.848 0.98419 107.967 0.432538 107.824C0.279069 107.784 0.107574 107.656 0.0411978 107.512C-0.0331749 107.351 0.00566672 107.271 0.0594223 107.118C0.227843 106.956 0.330792 106.9 0.565848 106.873C1.31171 106.79 2.11225 106.841 2.86566 106.839C4.28519 106.841 5.70466 106.832 7.12406 106.813L21.8734 106.659C24.1758 106.638 26.5095 106.727 28.807 106.603C28.5257 104.168 29.0995 101.655 29.5148 99.2616C30.0557 96.1454 30.6962 93.0503 31.2955 89.9453C31.8728 86.9538 32.2668 83.9071 33.1126 80.9749C33.5557 79.439 34.1448 77.9398 35.0003 76.5783C36.6074 74.0214 39.0287 72.6289 41.9506 71.9431C42.7763 71.7493 43.6181 71.6462 44.4445 71.4574C44.1263 70.8709 43.8246 70.2921 43.6294 69.652C43.3144 68.6192 43.1906 67.4891 43.0101 66.4263C42.664 64.3895 42.3118 62.3482 42.1139 60.2908C41.4634 53.5238 41.1408 45.7696 45.8157 40.1989C48.8621 36.5684 52.0333 35.9236 56.5388 35.5059Z" fill="#0275A6"/>
<path d="M68.6227 51.5742L68.6996 51.6026C68.7377 51.6685 68.7716 51.7255 68.7915 51.7997C69.0599 52.8046 69.0264 54.6845 68.6694 55.6551C68.491 56.1399 68.2124 56.5789 67.9456 57.0197L67.7864 57.1376C67.7685 57.1004 67.7461 57.0651 67.733 57.0261C67.6413 56.7531 67.8633 55.9743 67.8933 55.6609C67.958 54.9841 68.0087 52.1158 68.1945 51.7174L68.6227 51.5742Z" fill="#FEFEFE"/>
<path d="M45.0145 51.5508C45.026 51.5667 45.0394 51.5816 45.0492 51.5987C45.2068 51.8746 45.243 52.4745 45.3262 52.7979C45.5052 53.4934 46.789 57.8302 46.6661 58.2023L46.5259 58.1932C45.5234 57.1358 45.0042 55.8584 44.7312 54.4452C44.5484 53.4989 44.4431 52.3877 45.0145 51.5508Z" fill="#FEFEFE"/>
<path d="M49.9836 64.9531C50.0302 64.954 50.0767 64.9559 50.1233 64.9588C50.3637 64.974 50.6253 65.0229 50.7925 65.206C50.7847 65.4841 50.1938 66.0559 50.0168 66.3122C49.5028 67.0561 49.0428 67.8817 48.7231 68.726C48.6404 68.9444 48.6222 69.0578 48.7252 69.2812C48.869 69.3914 48.8746 69.3976 49.0559 69.4014C49.5018 69.1714 50.369 66.6646 51.0339 65.9874C51.1973 65.8208 51.4176 65.6884 51.6619 65.705C52.041 65.7308 52.2992 66.0353 52.5522 66.2823C52.4491 66.4035 52.3476 66.526 52.2478 66.6498C51.8087 67.1963 50.2666 69.3872 50.4579 70.0635C50.5043 70.2275 50.5462 70.2389 50.6881 70.3113C50.9028 70.2812 51.0443 70.1136 51.1629 69.9473C51.9255 68.8785 52.1878 67.5766 53.4469 66.7539C53.4685 66.7397 53.4904 66.7261 53.5123 66.7122C53.9773 66.9131 54.2934 67.1246 54.6321 67.4997C54.453 67.6545 54.2717 67.8103 54.1116 67.9844C53.6609 68.4744 52.2506 70.2963 52.3713 70.9557C52.4031 71.1295 52.4252 71.1468 52.5646 71.2375C52.725 71.2501 52.822 71.2602 52.9544 71.1585C53.428 70.7947 54.0114 69.0804 55.1159 68.2579L55.1799 68.2112C55.2086 68.2305 55.237 68.2501 55.2659 68.2692C55.4814 68.4107 55.6484 68.5408 55.8109 68.7428C56.3622 69.4279 56.5798 70.2246 56.4888 71.0855C56.3493 71.9916 56.0385 72.4348 55.432 73.1184C55.5637 72.6125 56.0466 71.1898 55.9517 70.7481C55.9185 70.5934 55.8553 70.5283 55.7277 70.4426C55.6326 70.4366 55.574 70.4152 55.4872 70.464C55.0137 70.7302 54.8156 72.3423 54.6796 72.849C54.4142 73.8379 54.0889 74.859 53.6925 75.8038C53.2772 76.7937 52.7692 77.7481 52.3439 78.7361C51.9659 79.6143 51.6515 80.5143 51.3349 81.4154C49.9578 80.9804 48.454 80.6992 47.1309 80.1372C47.4772 78.6574 47.4971 77.207 47.3628 75.7016C47.1611 73.4414 46.1826 70.1037 47.1334 68.0198C47.6331 66.9246 48.8369 65.3804 49.9836 64.9531Z" fill="#FEFEFE"/>
<path d="M62.3041 67.3906C62.4675 67.578 62.7111 69.3803 62.822 69.7689C63.1491 70.9148 63.6513 71.9093 64.127 72.9908C64.3433 73.4829 64.5127 74.0424 64.8211 74.485C64.9797 74.7124 65.1447 74.8688 65.4246 74.9242C65.5637 74.8678 65.5956 74.8609 65.6558 74.7136C65.9585 73.9734 64.604 71.8734 64.3044 71.1217L64.2722 71.0397C65.588 71.2643 66.9303 71.3034 68.2511 71.4959C67.9174 73.4919 67.6682 75.4389 67.5352 77.4589C66.4754 77.6724 65.4077 77.8348 64.3319 77.9458C63.8049 78.0843 63.1201 78.0813 62.5727 78.1222C61.0815 78.2272 59.5885 78.2815 58.0936 78.2851C56.5987 78.2888 55.1054 78.2418 53.6138 78.1441C54.2442 77.0208 54.5167 75.6902 55.1328 74.614C55.2414 74.4243 56.3554 73.5205 56.7208 72.9947C57.5197 71.8452 57.4463 70.6732 57.1943 69.3674C59.3782 69.2447 60.5611 68.6352 62.3041 67.3906Z" fill="#FEFEFE"/>
<path d="M53.6377 43.666C53.7833 43.8706 53.9314 44.0736 54.0958 44.264C55.7017 46.1233 58.1193 48.1724 60.2984 49.3654C61.1154 49.8125 61.9828 50.1527 62.8442 50.506C64.294 51.1004 65.6982 51.5667 67.2758 51.6864C67.1688 52.8234 67.1342 53.9682 67.0292 55.1063C66.7493 58.1416 66.0757 61.326 64.3336 63.8833C63.0535 65.7626 60.6172 67.9179 58.3232 68.3662C57.8201 68.4557 57.305 68.4767 56.7956 68.5046C55.9958 67.6088 54.6548 65.992 53.4228 65.8559C53.299 65.7224 53.1729 65.5915 53.0381 65.4686C52.9756 65.4121 52.9116 65.3571 52.8462 65.3036C52.7809 65.2502 52.7144 65.1984 52.6465 65.1482C52.5786 65.0979 52.5095 65.0493 52.4392 65.0024C52.3689 64.9556 52.2975 64.9104 52.225 64.867C52.1524 64.8234 52.0789 64.7817 52.0043 64.7419C51.9298 64.7019 51.8542 64.6638 51.7777 64.6275C51.7012 64.5912 51.6239 64.5567 51.5457 64.5242C51.4676 64.4916 51.3887 64.4609 51.3089 64.4321C51.2293 64.4033 51.1489 64.3765 51.0679 64.3517C50.9869 64.3267 50.9053 64.3038 50.8232 64.2828C50.741 64.2619 50.6584 64.2429 50.5752 64.2258C50.4922 64.2088 50.4087 64.1938 50.3249 64.1808C50.241 64.1679 50.1569 64.1569 50.0725 64.1479C49.9881 64.139 49.9036 64.1321 49.8189 64.1273C49.7342 64.1224 49.6494 64.1195 49.5646 64.1187C49.4797 64.118 49.3949 64.1192 49.3101 64.1225C48.1689 61.6116 47.8263 58.8887 47.16 56.2363C46.7292 54.5214 46.1185 52.7998 45.8369 51.0598C46.2133 51.303 46.793 52.0282 47.2026 52.1026C48.2719 51.5082 52.6879 45.0075 53.6377 43.666Z" fill="#FEFEFE"/>
<path d="M52.121 54.0497C52.2372 54.0422 52.3469 54.0501 52.4618 54.0673C52.7602 54.1122 53.0162 54.2313 53.1934 54.4804C53.3487 54.6985 53.4022 54.9653 53.3367 55.2245C53.2456 55.5848 53.0177 55.7618 52.7057 55.941C52.5816 55.9496 52.4655 55.9508 52.3417 55.9379C52.3103 55.9344 52.2791 55.9293 52.2483 55.9227C52.2174 55.9161 52.1869 55.908 52.1569 55.8984C52.1269 55.8887 52.0974 55.8777 52.0684 55.8652C52.0396 55.8527 52.0114 55.8387 51.9839 55.8234C51.9564 55.8081 51.9297 55.7914 51.9039 55.7735C51.8781 55.7555 51.8533 55.7363 51.8294 55.7159C51.8056 55.6955 51.7829 55.6739 51.7612 55.6512C51.7396 55.6286 51.7191 55.6049 51.6998 55.5802C51.5206 55.3527 51.4686 55.0712 51.5264 54.7913C51.5986 54.4422 51.8311 54.2361 52.121 54.0497Z" fill="#0275A6"/>
<path d="M61.2611 53.3476C61.4429 53.326 61.6493 53.2875 61.8297 53.329C62.1244 53.3971 62.4117 53.6201 62.5559 53.8808C62.6731 54.0929 62.7095 54.3519 62.6381 54.5845C62.5317 54.9308 62.3062 55.0974 61.9951 55.2604C61.8662 55.2792 61.7347 55.299 61.6042 55.2924C61.332 55.2783 61.0593 55.1679 60.8798 54.9611C60.6982 54.7517 60.6319 54.4841 60.6683 54.2135C60.7222 53.8127 60.9487 53.5817 61.2611 53.3476Z" fill="#0275A6"/>
<path d="M60.0713 61.9509C60.2332 62.0079 60.3686 62.0999 60.4805 62.2299C60.6005 62.3694 60.6036 62.3904 60.5999 62.5647C60.5374 62.6899 60.4565 62.7784 60.3465 62.8646C59.4648 63.5558 58.1081 63.862 57.0066 63.7326C56.8607 63.7092 56.7944 63.6756 56.6773 63.5871C56.586 63.4211 56.5416 63.3483 56.5581 63.1526C56.9035 62.6589 58.016 62.9527 58.589 62.7856C59.1516 62.6215 59.6014 62.2827 60.0713 61.9509Z" fill="#0275A6"/>
<path d="M61.1322 50.4825C61.5921 50.4342 62.1841 50.4841 62.6201 50.6409C62.8659 50.7293 63.1789 50.9083 63.2728 51.1673C63.3341 51.3358 63.3237 51.4262 63.2616 51.5902C63.1231 51.7084 63.1169 51.7079 62.9336 51.7197C62.3003 51.4027 61.7737 51.3231 61.077 51.3778C60.5458 51.5502 59.8237 52.1809 59.2895 52.1392C59.139 52.1275 59.1193 52.0633 59.0506 51.9505C59.0459 51.7697 59.0385 51.6467 59.144 51.4876C59.5368 50.8951 60.4575 50.5698 61.1322 50.4825Z" fill="#0275A6"/>
<path d="M51.4875 51.2709C52.1476 51.2014 52.8699 51.2197 53.5062 51.4258C53.7929 51.5189 54.1347 51.6802 54.2441 51.9825C54.3034 52.1468 54.2852 52.1824 54.2025 52.3197C53.6859 52.5448 52.8488 52.1341 52.2757 52.1133L52.1899 52.1111C52.1097 52.1139 52.0312 52.1194 51.9513 52.1249C51.3026 52.1694 50.3521 52.5902 49.8159 52.5519C49.6502 52.5401 49.5892 52.4921 49.4763 52.3793C49.4705 52.223 49.4739 52.1287 49.5765 52.0002C49.9188 51.5718 50.9611 51.3767 51.4875 51.2709Z" fill="#0275A6"/>
<path d="M56.2698 54.6689C56.3432 54.668 56.4171 54.6669 56.4903 54.6701C56.692 54.6789 56.7586 54.7266 56.8887 54.8638C57.0351 55.5171 57.093 57.792 56.9231 58.4155C56.817 58.8052 56.6048 59.1399 56.3941 59.4809C56.7357 59.7327 57.4868 59.9391 57.6158 60.3681C57.675 60.5651 57.5693 60.7071 57.4893 60.8782L57.2529 60.9142C56.752 60.7377 55.9106 60.3002 55.6804 59.8089C55.4439 59.3037 55.9004 58.7086 56.0658 58.2511C56.4617 57.1563 55.7946 55.7731 56.2698 54.6689Z" fill="#0275A6"/>
<path d="M67.3642 78.4824L67.4221 78.5038C67.5766 78.929 67.4733 80.9134 67.4939 81.5258C67.5149 82.15 67.5692 82.7751 67.6186 83.3979C67.8939 86.8588 68.702 90.2618 68.9154 93.7228C69.074 96.2948 68.9349 98.8791 68.9709 101.454C69.0047 103.027 69.1152 104.596 69.3025 106.159C66.6643 106.146 64.0221 106.204 61.3838 106.23L46.542 106.395L44.8584 106.393C45.3258 105.432 45.8578 104.503 46.3111 103.534C47.0361 101.985 47.6667 100.35 48.2603 98.7468C49.8876 94.3503 50.9474 89.6961 52.0897 85.1581C52.259 84.4856 52.8796 82.6684 52.7634 82.0731C52.712 81.8092 52.5206 81.7536 52.3133 81.6258C52.2448 81.1418 52.982 79.5739 53.189 79.0333C54.4001 79.1986 55.6591 79.1961 56.8798 79.2088C60.3506 79.2447 63.9504 79.1385 67.3642 78.4824Z" fill="#FEFEFE"/>
</g>
<defs>
<clipPath id="clip0_2415_2815">
<rect width="120" height="120" fill="white"/>
</clipPath>
</defs>
</svg>
